<svg id="svg" version="1.1" xmlns="http://www.w3.org/2000/svg" xmlns:xlink="http://www.w3.org/1999/xlink" width="400" height="438.3500557413601" viewBox="0, 0, 400,438.3500557413601"><g id="svgg"><path id="path0" d="M32.456 38.757 C 32.156 38.947,31.543 39.006,31.093 38.888 C 30.573 38.752,30.371 38.830,30.539 39.102 C 30.768 39.471,29.840 39.770,27.000 40.241 C 26.780 40.278,26.465 40.351,26.300 40.404 C 26.135 40.457,25.865 40.538,25.700 40.585 C 25.535 40.631,25.099 40.802,24.731 40.965 C 24.363 41.128,23.823 41.311,23.531 41.372 C 22.346 41.619,20.000 42.836,20.000 43.205 C 20.000 43.422,19.807 43.600,19.572 43.600 C 19.337 43.600,18.370 44.133,17.423 44.784 C 16.476 45.436,15.608 45.875,15.495 45.761 C 15.381 45.647,14.888 46.114,14.401 46.799 C 13.913 47.484,12.813 48.487,11.957 49.027 C 11.101 49.568,10.400 50.236,10.400 50.512 C 10.400 50.788,9.590 51.859,8.600 52.892 C 7.610 53.926,6.800 54.912,6.800 55.085 C 6.799 55.258,6.353 55.918,5.808 56.552 C 5.263 57.186,4.914 57.861,5.032 58.052 C 5.150 58.243,5.057 58.400,4.824 58.400 C 4.591 58.400,4.421 58.535,4.447 58.700 C 4.566 59.453,4.369 60.028,4.058 59.836 C 3.660 59.590,2.800 61.310,2.800 62.352 C 2.800 62.745,2.675 63.192,2.522 63.345 C 2.369 63.498,2.207 63.843,2.162 64.112 C 2.118 64.380,1.760 65.770,1.368 67.200 C 0.709 69.601,0.643 72.977,0.513 111.300 L 0.372 152.800 171.800 152.800 L 343.228 152.800 343.099 111.300 C 343.028 88.475,342.843 69.350,342.687 68.800 C 342.531 68.250,342.293 67.217,342.158 66.504 C 342.023 65.790,341.752 65.306,341.556 65.427 C 341.360 65.548,341.178 65.367,341.150 65.024 C 341.075 64.084,340.980 63.814,339.546 60.449 C 339.136 59.486,338.800 58.496,338.800 58.248 C 338.800 58.000,338.260 57.288,337.600 56.665 C 336.940 56.042,336.400 55.258,336.400 54.924 C 336.400 54.589,335.950 53.781,335.400 53.127 C 334.850 52.473,334.400 52.070,334.400 52.231 C 334.400 52.392,334.044 52.202,333.609 51.809 C 333.175 51.415,332.897 50.967,332.992 50.813 C 333.088 50.658,332.418 49.827,331.503 48.966 C 330.589 48.105,329.986 47.670,330.162 48.000 C 330.339 48.330,329.772 47.835,328.902 46.900 C 328.033 45.965,327.058 45.200,326.736 45.200 C 326.414 45.200,325.772 44.847,325.310 44.416 C 324.847 43.985,323.994 43.513,323.415 43.368 C 322.836 43.223,322.464 43.003,322.588 42.879 C 322.769 42.697,320.804 41.597,320.000 41.429 C 319.890 41.406,319.575 41.245,319.300 41.070 C 319.025 40.896,318.800 40.845,318.800 40.959 C 318.800 41.072,318.035 40.889,317.100 40.552 C 316.165 40.214,314.777 39.856,314.015 39.755 C 313.253 39.654,312.506 39.372,312.355 39.128 C 312.193 38.865,311.581 38.784,310.856 38.929 C 310.182 39.064,309.523 39.000,309.392 38.787 C 309.260 38.574,308.285 38.400,307.224 38.400 L 305.295 38.400 305.043 57.900 C 304.766 79.298,304.607 81.265,302.849 85.020 C 296.781 97.988,278.414 99.352,270.212 87.444 C 267.018 82.806,267.065 83.193,266.819 59.600 L 266.600 38.600 171.765 38.499 L 76.930 38.398 76.665 53.099 C 76.520 61.185,76.401 70.512,76.401 73.827 C 76.400 78.173,76.222 80.453,75.763 81.998 C 71.172 97.458,50.665 100.602,41.827 87.200 C 38.554 82.238,38.675 83.218,38.424 59.600 L 38.200 38.600 35.863 38.479 C 34.303 38.398,33.613 38.498,33.787 38.779 C 33.930 39.011,33.756 39.200,33.400 39.200 C 33.044 39.200,32.864 39.020,33.000 38.800 C 33.300 38.314,33.171 38.304,32.456 38.757 M261.802 360.796 L 243.405 379.198 246.450 382.244 L 249.496 385.289 268.048 366.798 L 286.600 348.307 285.600 347.673 C 285.050 347.324,283.610 345.994,282.400 344.716 L 280.200 342.393 261.802 360.796 " stroke="none" fill="#e14a3a" fill-rule="evenodd"></path><path id="path1" d="M289.200 246.242 C 215.279 251.343,181.128 341.433,233.408 393.423 C 283.988 443.723,371.352 415.380,381.587 345.351 C 389.606 290.487,344.786 242.406,289.200 246.242 M300.120 273.900 C 300.777 274.285,301.874 275.292,302.558 276.137 L 303.800 277.673 304.000 297.337 L 304.200 317.000 306.143 318.791 C 307.212 319.776,308.616 321.351,309.263 322.291 L 310.438 324.000 338.741 324.000 L 367.043 324.000 369.139 325.044 C 374.160 327.546,375.414 334.586,371.532 338.468 C 368.764 341.236,369.201 341.200,338.365 341.200 L 310.876 341.200 309.841 342.966 C 306.040 349.451,295.860 352.453,288.583 349.234 C 287.210 348.626,286.546 348.512,286.175 348.820 C 285.894 349.054,277.526 357.356,267.580 367.268 L 249.497 385.291 246.451 382.245 L 243.405 379.198 261.840 360.699 L 280.275 342.200 279.258 339.800 C 276.475 333.235,278.254 325.379,283.814 319.680 L 286.358 317.073 286.479 297.837 C 286.612 276.749,286.526 277.498,289.064 275.149 C 291.986 272.445,296.724 271.909,300.120 273.900 M292.580 324.530 C 287.246 326.583,285.023 333.581,288.273 338.086 C 294.254 346.375,306.660 339.816,303.425 330.074 C 301.933 325.583,296.742 322.929,292.580 324.530 " stroke="none" fill="#334a5b" fill-rule="evenodd"></path><path id="path2" d="M76.307 48.300 L 76.200 57.800 57.257 57.800 L 38.314 57.800 38.500 69.200 C 38.710 82.060,38.817 82.636,41.827 87.200 C 50.666 100.603,71.462 97.386,75.744 81.953 C 76.350 79.769,77.210 38.800,76.649 38.800 C 76.520 38.800,76.366 43.075,76.307 48.300 M304.707 48.300 L 304.600 57.800 285.661 57.800 L 266.721 57.800 266.897 69.200 C 267.095 82.017,267.318 83.241,270.212 87.444 C 279.666 101.170,301.576 96.643,304.371 80.385 C 304.788 77.963,305.428 38.800,305.051 38.800 C 304.921 38.800,304.766 43.075,304.707 48.300 M284.800 229.626 C 254.134 232.485,224.683 249.905,208.715 274.629 C 198.615 290.266,193.860 303.479,191.628 322.104 C 190.825 328.807,190.398 340.238,190.919 341.074 C 191.082 341.335,191.491 343.675,191.828 346.274 C 194.249 364.955,200.985 381.515,212.378 396.800 C 213.608 398.450,214.853 400.270,215.145 400.844 C 215.778 402.089,224.331 410.846,227.067 413.049 C 228.126 413.902,229.444 415.013,229.996 415.518 C 230.548 416.023,231.630 416.826,232.400 417.302 C 233.170 417.777,233.980 418.369,234.200 418.617 C 235.479 420.057,244.334 425.357,249.600 427.834 C 251.250 428.610,253.500 429.674,254.600 430.198 C 256.645 431.174,263.826 433.600,264.667 433.600 C 264.923 433.600,265.193 433.744,265.267 433.921 C 265.340 434.097,267.020 434.634,269.000 435.114 C 291.603 440.594,318.839 438.339,337.800 429.419 C 339.560 428.591,341.675 427.644,342.500 427.314 C 343.325 426.983,344.000 426.572,344.000 426.400 C 344.000 426.228,344.675 425.801,345.500 425.452 C 347.984 424.401,352.676 421.452,357.986 417.606 C 362.993 413.980,371.652 405.939,374.579 402.200 C 375.096 401.540,375.853 400.640,376.263 400.200 C 377.476 398.896,382.800 391.776,382.800 391.458 C 382.800 391.296,383.590 390.011,384.555 388.601 C 385.520 387.192,386.723 385.175,387.227 384.119 C 387.732 383.064,388.277 382.109,388.438 381.998 C 388.599 381.886,389.387 380.266,390.189 378.398 C 390.991 376.529,392.076 374.100,392.602 373.000 C 393.127 371.900,394.032 369.470,394.614 367.600 C 395.196 365.730,395.996 363.300,396.392 362.200 C 400.698 350.237,401.158 324.851,397.380 307.683 C 396.833 305.199,396.211 302.859,395.997 302.483 C 395.784 302.107,394.955 299.730,394.155 297.200 C 393.356 294.670,392.579 292.510,392.430 292.400 C 392.280 292.290,391.741 291.210,391.232 290.000 C 389.991 287.049,385.694 278.896,384.592 277.400 C 384.106 276.740,383.241 275.387,382.671 274.393 C 382.100 273.400,381.306 272.230,380.906 271.793 C 380.506 271.357,379.740 270.370,379.205 269.600 C 377.374 266.966,373.501 262.601,369.621 258.800 C 366.064 255.315,364.451 253.858,360.340 250.411 C 358.341 248.735,349.906 243.202,349.349 243.201 C 349.101 243.200,348.667 242.922,348.384 242.581 C 347.744 241.810,343.574 239.788,342.910 239.928 C 342.640 239.984,341.894 239.759,341.253 239.427 C 326.468 231.782,303.831 227.852,284.800 229.626 M308.581 247.017 C 378.327 257.308,407.290 343.651,357.620 393.210 C 307.121 443.596,219.122 415.373,209.173 345.600 C 200.880 287.445,250.316 238.419,308.581 247.017 M299.600 273.719 C 299.600 273.800,300.365 274.468,301.300 275.203 C 302.792 276.377,302.878 276.405,302.000 275.433 C 301.089 274.425,299.600 273.361,299.600 273.719 M288.647 275.601 C 287.851 276.482,287.200 277.328,287.200 277.481 C 287.200 277.635,287.335 277.589,287.501 277.380 C 287.667 277.171,288.422 276.325,289.180 275.500 C 289.937 274.675,290.453 274.000,290.325 274.000 C 290.197 274.000,289.442 274.721,288.647 275.601 M286.496 298.615 L 286.400 317.030 283.835 319.659 C 281.646 321.903,278.847 326.180,279.283 326.616 C 279.358 326.691,279.949 325.728,280.596 324.476 C 281.243 323.224,282.906 321.057,284.290 319.659 L 286.808 317.118 286.700 298.659 L 286.592 280.200 286.496 298.615 M306.084 319.300 C 307.270 320.455,308.736 322.030,309.342 322.800 C 310.396 324.139,310.393 324.121,309.266 322.391 C 308.169 320.708,304.727 317.200,304.173 317.200 C 304.038 317.200,304.898 318.145,306.084 319.300 M311.002 324.687 C 313.236 330.036,313.327 336.783,311.205 339.800 C 310.032 341.469,308.913 341.411,338.551 341.201 L 366.600 341.001 343.348 340.897 L 320.096 340.794 320.724 339.097 C 321.553 336.856,321.566 328.558,320.744 326.000 L 320.166 324.200 315.435 324.087 C 311.028 323.982,310.725 324.023,311.002 324.687 M299.000 324.864 C 299.440 325.106,300.498 325.956,301.352 326.752 C 302.696 328.006,302.811 328.053,302.211 327.107 C 301.542 326.054,299.280 324.387,298.553 324.412 C 298.359 324.419,298.560 324.622,299.000 324.864 M289.200 326.400 C 288.320 327.280,287.601 328.225,287.603 328.500 C 287.604 328.775,287.949 328.479,288.369 327.842 C 288.788 327.205,289.642 326.267,290.266 325.757 C 290.890 325.246,291.265 324.822,291.100 324.814 C 290.935 324.806,290.080 325.520,289.200 326.400 M369.000 325.044 C 369.220 325.241,370.099 326.032,370.953 326.801 C 372.212 327.935,372.386 328.010,371.870 327.196 C 371.521 326.644,370.642 325.854,369.917 325.440 C 369.193 325.025,368.780 324.847,369.000 325.044 M303.450 329.800 C 304.203 332.105,304.057 335.006,303.092 336.885 C 302.559 337.922,302.295 338.665,302.503 338.536 C 304.082 337.561,304.866 332.424,303.776 330.200 C 303.453 329.540,303.306 329.360,303.450 329.800 M278.142 333.400 C 278.141 335.380,278.208 336.240,278.292 335.312 C 278.376 334.384,278.377 332.764,278.295 331.712 C 278.212 330.660,278.143 331.420,278.142 333.400 M286.446 333.276 C 286.421 334.528,286.535 335.636,286.700 335.738 C 286.865 335.840,286.946 335.086,286.880 334.062 C 286.693 331.141,286.497 330.786,286.446 333.276 M373.693 333.200 C 373.693 333.970,373.775 334.285,373.876 333.900 C 373.976 333.515,373.976 332.885,373.876 332.500 C 373.775 332.115,373.693 332.430,373.693 333.200 M371.805 337.526 C 371.148 338.297,370.068 339.258,369.405 339.662 C 368.742 340.066,368.359 340.398,368.553 340.399 C 369.293 340.402,371.622 338.693,372.436 337.549 C 373.635 335.866,373.233 335.852,371.805 337.526 M288.072 338.400 C 290.418 342.192,296.649 343.577,299.807 341.008 L 301.000 340.037 299.032 341.019 C 295.556 342.752,291.800 341.968,288.879 338.898 C 287.973 337.946,287.679 337.764,288.072 338.400 M280.187 341.975 C 280.521 342.621,280.976 343.261,281.198 343.399 C 281.420 343.536,281.223 343.007,280.761 342.224 C 279.748 340.507,279.335 340.328,280.187 341.975 M307.400 345.296 C 306.080 346.658,305.540 347.391,306.200 346.925 C 307.342 346.119,308.398 345.045,309.568 343.500 C 310.560 342.190,309.805 342.816,307.400 345.296 M303.600 348.207 C 300.281 350.128,293.783 350.639,289.945 349.281 C 286.264 347.980,286.143 347.961,288.313 349.026 C 292.471 351.070,298.186 351.060,302.700 349.002 C 303.855 348.475,304.800 347.944,304.800 347.822 C 304.800 347.525,304.754 347.539,303.600 348.207 " stroke="none" fill="#93a3a3" fill-rule="evenodd"></path><path id="path3" d="M0.401 249.300 C 0.401 354.029,0.288 348.533,2.571 355.155 C 6.689 367.100,16.497 376.348,28.600 379.697 L 31.800 380.582 116.900 380.697 C 163.705 380.759,202.000 380.689,202.000 380.541 C 202.000 380.392,201.572 379.534,201.050 378.635 C 197.650 372.786,192.647 356.398,191.535 347.466 L 191.000 343.175 172.000 343.087 L 153.000 343.000 152.896 323.896 L 152.792 304.792 171.696 304.896 L 190.600 305.000 190.800 314.200 L 191.000 323.400 191.524 319.032 C 193.138 305.582,199.622 287.973,207.224 276.395 L 209.600 272.778 209.600 260.389 L 209.600 248.000 221.956 248.000 L 234.312 248.000 237.856 245.680 C 250.461 237.429,264.582 232.186,280.544 229.828 C 282.713 229.508,284.588 229.146,284.710 229.023 C 284.833 228.900,280.853 228.800,275.867 228.800 L 266.800 228.800 266.800 209.800 L 266.800 190.800 285.800 190.800 L 304.800 190.800 304.800 209.954 L 304.800 229.108 307.100 229.388 C 318.924 230.827,330.053 233.917,340.100 238.550 L 343.200 239.980 343.200 196.390 L 343.200 152.800 171.800 152.800 L 0.400 152.800 0.401 249.300 M76.600 209.800 L 76.600 228.600 57.500 228.704 L 38.400 228.808 38.400 210.071 C 38.400 199.765,38.522 191.212,38.671 191.063 C 38.819 190.914,47.414 190.839,57.771 190.896 L 76.600 191.000 76.600 209.800 M133.600 209.800 L 133.600 228.800 114.600 228.800 L 95.600 228.800 95.600 209.800 L 95.600 190.800 114.600 190.800 L 133.600 190.800 133.600 209.800 M190.704 209.900 L 190.808 228.800 171.804 228.800 L 152.800 228.800 152.800 209.796 L 152.800 190.792 171.700 190.896 L 190.600 191.000 190.704 209.900 M247.800 209.800 L 247.800 228.600 228.700 228.704 L 209.600 228.808 209.600 210.071 C 209.600 199.765,209.722 191.212,209.871 191.063 C 210.019 190.914,218.614 190.839,228.971 190.896 L 247.800 191.000 247.800 209.800 M76.600 267.000 L 76.600 285.800 57.600 285.800 L 38.600 285.800 38.496 266.896 L 38.392 247.992 57.496 248.096 L 76.600 248.200 76.600 267.000 M133.600 267.000 L 133.600 286.000 114.600 286.000 L 95.600 286.000 95.600 267.000 L 95.600 248.000 114.600 248.000 L 133.600 248.000 133.600 267.000 M190.704 266.900 L 190.600 285.800 171.700 285.904 L 152.800 286.008 152.800 267.004 L 152.800 248.000 171.804 248.000 L 190.808 248.000 190.704 266.900 M76.557 305.433 C 77.054 306.728,76.828 342.212,76.320 342.720 C 75.812 343.228,40.328 343.454,39.033 342.957 C 38.373 342.704,38.015 305.718,38.667 305.067 C 39.318 304.415,76.304 304.773,76.557 305.433 M133.504 323.900 L 133.400 343.000 114.600 343.000 L 95.800 343.000 95.696 323.900 L 95.592 304.800 114.600 304.800 L 133.608 304.800 133.504 323.900 " stroke="none" fill="#ebf3f3" fill-rule="evenodd"></path><path id="path4" d="M54.000 0.781 C 47.378 1.992,42.760 5.371,40.196 10.876 C 39.653 12.044,39.206 13.279,39.204 13.620 C 39.202 13.961,38.975 14.466,38.700 14.742 C 38.193 15.251,38.127 56.835,38.632 57.652 C 38.894 58.076,75.878 58.123,76.136 57.700 C 76.237 57.535,76.451 48.473,76.613 37.562 C 76.973 13.351,77.015 13.681,72.706 7.264 C 72.104 6.368,71.204 5.425,70.706 5.168 C 70.208 4.912,69.331 4.265,68.757 3.731 C 66.408 1.543,58.486 -0.040,54.000 0.781 M283.200 0.669 C 274.846 1.513,268.171 7.818,266.756 16.200 C 266.402 18.296,266.373 23.880,266.641 38.400 L 267.000 57.800 285.576 57.904 C 295.793 57.961,304.282 57.871,304.441 57.704 C 305.107 57.004,305.313 17.956,304.667 14.926 C 303.108 7.617,296.896 1.905,289.314 0.808 C 286.612 0.418,285.863 0.401,283.200 0.669 M9.234 51.753 L 8.269 53.000 9.413 51.912 C 10.043 51.314,10.477 50.753,10.379 50.665 C 10.280 50.577,9.765 51.067,9.234 51.753 M38.671 191.063 C 38.522 191.212,38.400 199.765,38.400 210.071 L 38.400 228.808 57.500 228.704 L 76.600 228.600 76.600 209.800 L 76.600 191.000 57.771 190.896 C 47.414 190.839,38.819 190.914,38.671 191.063 M95.600 209.800 L 95.600 228.800 114.600 228.800 L 133.600 228.800 133.600 209.800 L 133.600 190.800 114.600 190.800 L 95.600 190.800 95.600 209.800 M152.800 209.796 L 152.800 228.800 171.804 228.800 L 190.808 228.800 190.704 209.900 L 190.600 191.000 171.700 190.896 L 152.800 190.792 152.800 209.796 M209.871 191.063 C 209.722 191.212,209.600 199.765,209.600 210.071 L 209.600 228.808 228.700 228.704 L 247.800 228.600 247.800 209.800 L 247.800 191.000 228.971 190.896 C 218.614 190.839,210.019 190.914,209.871 191.063 M266.800 209.800 L 266.800 228.800 275.900 228.828 C 280.905 228.844,284.692 228.979,284.315 229.128 C 283.938 229.278,288.978 229.400,295.515 229.400 C 302.052 229.400,306.815 229.344,306.100 229.275 L 304.800 229.149 304.800 209.975 L 304.800 190.800 285.800 190.800 L 266.800 190.800 266.800 209.800 M281.300 229.876 C 281.685 229.976,282.315 229.976,282.700 229.876 C 283.085 229.775,282.770 229.693,282.000 229.693 C 281.230 229.693,280.915 229.775,281.300 229.876 M308.100 229.876 C 308.485 229.976,309.115 229.976,309.500 229.876 C 309.885 229.775,309.570 229.693,308.800 229.693 C 308.030 229.693,307.715 229.775,308.100 229.876 M269.000 232.000 C 267.460 232.415,266.035 232.764,265.833 232.777 C 265.632 232.790,265.566 232.899,265.687 233.020 C 265.899 233.232,272.425 231.707,272.767 231.366 C 273.100 231.033,271.739 231.263,269.000 232.000 M318.033 231.357 C 318.125 231.444,320.000 231.989,322.200 232.568 C 324.400 233.148,326.560 233.729,327.000 233.861 C 327.440 233.992,327.678 233.970,327.529 233.812 C 327.379 233.653,325.309 233.001,322.929 232.362 C 318.758 231.243,317.677 231.021,318.033 231.357 M255.882 236.268 C 253.948 237.055,252.431 237.764,252.512 237.846 C 252.655 237.988,259.625 235.290,259.967 234.961 C 260.399 234.544,259.106 234.958,255.882 236.268 M330.886 235.020 C 331.084 235.217,337.319 237.772,338.800 238.262 C 340.564 238.846,337.324 237.259,334.431 236.123 C 331.035 234.789,330.485 234.618,330.886 235.020 M247.500 240.026 C 246.235 240.679,245.200 241.303,245.200 241.412 C 245.200 241.591,249.960 239.325,250.367 238.953 C 250.890 238.473,249.498 238.994,247.500 240.026 M341.200 239.400 C 341.750 239.714,342.380 239.972,342.600 239.972 C 342.820 239.972,342.550 239.714,342.000 239.400 C 341.450 239.086,340.820 238.828,340.600 238.828 C 340.380 238.828,340.650 239.086,341.200 239.400 M241.376 243.427 C 240.069 244.211,238.820 245.054,238.600 245.300 C 238.380 245.546,238.650 245.474,239.200 245.140 C 239.750 244.806,241.055 244.035,242.100 243.428 C 243.746 242.472,244.333 242.000,243.876 242.000 C 243.809 242.000,242.684 242.642,241.376 243.427 M235.400 247.227 C 234.283 247.943,233.348 247.996,221.900 247.998 L 209.600 248.000 209.600 260.480 C 209.600 267.344,209.746 272.789,209.925 272.580 C 210.103 272.371,211.318 270.776,212.625 269.035 C 217.733 262.230,228.296 252.187,234.500 248.239 C 235.765 247.434,236.800 246.691,236.800 246.588 C 236.800 246.335,236.774 246.347,235.400 247.227 M38.496 266.896 L 38.600 285.800 57.600 285.800 L 76.600 285.800 76.600 267.000 L 76.600 248.200 57.496 248.096 L 38.392 247.992 38.496 266.896 M95.600 267.000 L 95.600 286.000 114.600 286.000 L 133.600 286.000 133.600 267.000 L 133.600 248.000 114.600 248.000 L 95.600 248.000 95.600 267.000 M152.800 267.004 L 152.800 286.008 171.700 285.904 L 190.600 285.800 190.704 266.900 L 190.808 248.000 171.804 248.000 L 152.800 248.000 152.800 267.004 M292.250 273.388 C 291.397 273.692,290.099 274.522,289.365 275.234 C 286.729 277.789,286.800 277.155,286.800 298.123 L 286.800 317.126 284.268 319.663 C 271.554 332.402,280.411 351.965,297.964 349.915 C 306.140 348.960,312.800 341.270,312.800 332.782 C 312.800 327.482,311.296 324.460,306.118 319.355 L 304.036 317.303 303.918 297.952 C 303.786 276.339,303.904 277.242,300.912 274.906 C 298.216 272.800,295.321 272.293,292.250 273.388 M207.120 276.500 C 205.437 279.039,202.249 284.800,202.528 284.800 C 202.638 284.800,203.490 283.405,204.422 281.700 C 205.353 279.995,206.599 277.880,207.190 277.000 C 208.585 274.922,208.884 274.400,208.680 274.400 C 208.588 274.400,207.887 275.345,207.120 276.500 M199.675 290.219 C 198.470 292.700,198.605 293.047,199.846 290.661 C 200.401 289.594,200.787 288.653,200.703 288.570 C 200.619 288.486,200.157 289.228,199.675 290.219 M196.041 299.676 C 195.359 301.725,194.814 303.582,194.830 303.801 C 194.847 304.020,195.475 302.413,196.226 300.229 C 196.977 298.045,197.522 296.188,197.437 296.104 C 197.352 296.019,196.724 297.626,196.041 299.676 M38.667 305.067 C 38.015 305.718,38.373 342.704,39.033 342.957 C 40.328 343.454,75.812 343.228,76.320 342.720 C 76.828 342.212,77.054 306.728,76.557 305.433 C 76.304 304.773,39.318 304.415,38.667 305.067 M95.696 323.900 L 95.800 343.000 114.600 343.000 L 133.400 343.000 133.504 323.900 L 133.608 304.800 114.600 304.800 L 95.592 304.800 95.696 323.900 M152.896 323.896 L 153.000 343.000 172.000 343.088 L 191.000 343.176 191.493 347.088 C 192.051 351.521,192.788 355.345,193.037 355.096 C 193.129 355.005,193.033 354.030,192.825 352.931 C 192.616 351.831,192.169 348.820,191.830 346.240 C 191.492 343.659,191.081 341.335,190.918 341.074 C 190.086 339.744,191.141 323.594,192.644 314.654 C 192.972 312.703,193.162 311.029,193.066 310.932 C 192.844 310.711,191.719 316.909,191.310 320.600 C 191.064 322.821,190.959 321.498,190.800 314.200 L 190.600 305.000 171.696 304.896 L 152.792 304.792 152.896 323.896 M297.707 324.152 C 300.455 324.979,301.814 326.152,303.173 328.872 C 308.565 339.663,293.244 348.002,287.533 337.384 C 283.780 330.408,290.303 321.924,297.707 324.152 M320.704 325.900 C 321.573 328.539,321.585 336.770,320.722 339.100 L 320.094 340.800 343.547 340.791 C 369.979 340.781,368.766 340.915,371.677 337.686 C 374.798 334.225,374.063 329.217,369.948 325.906 C 367.681 324.082,366.781 324.020,342.739 324.010 L 320.078 324.000 320.704 325.900 M0.446 356.600 C 0.424 362.100,0.590 367.731,0.814 369.114 C 1.312 372.183,3.112 378.000,3.563 378.000 C 3.744 378.000,4.202 378.814,4.582 379.809 C 7.934 388.586,20.112 397.540,31.800 399.822 C 34.642 400.377,214.800 400.726,214.800 400.176 C 214.800 400.053,213.751 398.568,212.469 396.876 C 208.543 391.693,202.400 381.959,202.400 380.919 C 202.400 380.743,164.105 380.600,117.300 380.600 L 32.200 380.600 28.800 379.706 C 14.679 375.995,3.800 364.128,1.016 349.400 C 0.513 346.740,0.485 347.100,0.446 356.600 M194.436 361.016 C 194.382 361.639,196.827 369.306,197.018 369.115 C 197.109 369.024,196.573 367.071,195.828 364.775 C 195.082 362.479,194.456 360.787,194.436 361.016 M198.816 373.650 C 198.789 374.076,200.777 378.400,201.000 378.400 C 201.116 378.400,200.961 377.802,200.656 377.072 C 199.959 375.405,198.837 373.318,198.816 373.650 " stroke="none" fill="#bcc4c4" fill-rule="evenodd"></path></g></svg>