<svg id="svg" version="1.1" xmlns="http://www.w3.org/2000/svg" xmlns:xlink="http://www.w3.org/1999/xlink" width="400" height="400" viewBox="0, 0, 400,400"><g id="svgg"><path id="path0" d="M180.100 0.282 C 179.605 0.378,179.200 0.623,179.200 0.828 C 179.200 1.033,178.840 1.200,178.400 1.200 C 177.960 1.200,177.600 1.380,177.600 1.600 C 177.600 1.820,177.240 2.000,176.800 2.000 C 176.360 2.000,176.000 2.180,176.000 2.400 C 176.000 2.620,175.730 2.800,175.400 2.800 C 175.070 2.800,174.800 2.980,174.800 3.200 C 174.800 3.420,174.361 3.600,173.824 3.600 C 173.287 3.600,172.736 3.780,172.600 4.000 C 172.464 4.220,172.003 4.400,171.576 4.400 C 171.149 4.400,170.800 4.580,170.800 4.800 C 170.800 5.020,170.440 5.200,170.000 5.200 C 169.560 5.200,169.200 5.380,169.200 5.600 C 169.200 5.820,168.840 6.000,168.400 6.000 C 167.960 6.000,167.600 6.180,167.600 6.400 C 167.600 6.620,167.240 6.800,166.800 6.800 C 166.360 6.800,166.000 6.980,166.000 7.200 C 166.000 7.420,165.550 7.600,165.000 7.600 C 164.450 7.600,163.998 7.735,163.997 7.900 C 163.995 8.065,162.915 8.536,161.597 8.947 C 160.278 9.358,159.200 9.853,159.200 10.047 C 159.200 10.241,158.840 10.400,158.400 10.400 C 157.960 10.400,157.600 10.580,157.600 10.800 C 157.600 11.020,157.240 11.200,156.800 11.200 C 156.360 11.200,156.000 11.380,156.000 11.600 C 156.000 11.820,155.561 12.000,155.024 12.000 C 154.487 12.000,153.936 12.180,153.800 12.400 C 153.664 12.620,153.203 12.800,152.776 12.800 C 152.349 12.800,152.000 12.980,152.000 13.200 C 152.000 13.420,151.640 13.600,151.200 13.600 C 150.760 13.600,150.400 13.780,150.400 14.000 C 150.400 14.220,150.040 14.400,149.600 14.400 C 149.160 14.400,148.800 14.580,148.800 14.800 C 148.800 15.020,148.440 15.200,148.000 15.200 C 147.560 15.200,147.200 15.380,147.200 15.600 C 147.200 15.820,146.750 16.000,146.200 16.000 C 145.650 16.000,145.200 16.180,145.200 16.400 C 145.200 16.620,144.966 16.800,144.680 16.800 C 143.944 16.800,142.007 17.741,142.003 18.100 C 142.001 18.265,141.640 18.400,141.200 18.400 C 140.760 18.400,140.400 18.580,140.400 18.800 C 140.400 19.020,140.040 19.200,139.600 19.200 C 139.160 19.200,138.800 19.380,138.800 19.600 C 138.800 19.820,138.361 20.000,137.824 20.000 C 137.287 20.000,136.736 20.180,136.600 20.400 C 136.464 20.620,136.003 20.800,135.576 20.800 C 135.149 20.800,134.800 20.980,134.800 21.200 C 134.800 21.420,134.440 21.600,134.000 21.600 C 133.560 21.600,133.200 21.780,133.200 22.000 C 133.200 22.220,132.840 22.400,132.400 22.400 C 131.960 22.400,131.600 22.580,131.600 22.800 C 131.600 23.020,131.240 23.200,130.800 23.200 C 130.360 23.200,130.000 23.380,130.000 23.600 C 130.000 23.820,129.550 24.000,129.000 24.000 C 128.450 24.000,128.000 24.136,128.000 24.302 C 128.000 24.593,125.969 25.410,124.100 25.871 C 123.605 25.993,123.200 26.252,123.200 26.447 C 123.200 26.641,122.840 26.800,122.400 26.800 C 121.960 26.800,121.600 26.980,121.600 27.200 C 121.600 27.420,121.328 27.600,120.995 27.600 C 120.662 27.600,120.077 27.757,119.695 27.950 C 116.720 29.448,115.447 30.000,114.962 30.000 C 114.653 30.000,114.400 30.180,114.400 30.400 C 114.400 30.620,114.040 30.800,113.600 30.800 C 113.160 30.800,112.800 30.980,112.800 31.200 C 112.800 31.420,112.440 31.600,112.000 31.600 C 111.560 31.600,111.200 31.780,111.200 32.000 C 111.200 32.220,110.750 32.400,110.200 32.400 C 109.650 32.400,109.200 32.580,109.200 32.800 C 109.200 33.020,108.840 33.200,108.400 33.200 C 107.960 33.200,107.600 33.380,107.600 33.600 C 107.600 33.820,107.240 34.000,106.800 34.000 C 106.360 34.000,106.000 34.180,106.000 34.400 C 106.000 34.620,105.640 34.800,105.200 34.800 C 104.760 34.800,104.400 34.980,104.400 35.200 C 104.400 35.420,104.040 35.600,103.600 35.600 C 103.160 35.600,102.800 35.780,102.800 36.000 C 102.800 36.220,102.350 36.400,101.800 36.400 C 101.250 36.400,100.800 36.580,100.800 36.800 C 100.800 37.020,100.350 37.200,99.800 37.200 C 99.250 37.200,98.800 37.380,98.800 37.600 C 98.800 37.820,98.440 38.000,98.000 38.000 C 97.560 38.000,97.200 38.180,97.200 38.400 C 97.200 38.620,96.840 38.800,96.400 38.800 C 95.960 38.800,95.600 38.980,95.600 39.200 C 95.600 39.420,95.240 39.600,94.800 39.600 C 94.360 39.600,94.000 39.780,94.000 40.000 C 94.000 40.220,93.640 40.400,93.200 40.400 C 92.760 40.400,92.400 40.580,92.400 40.800 C 92.400 41.020,91.950 41.200,91.400 41.200 C 90.850 41.200,90.400 41.380,90.400 41.600 C 90.400 41.820,90.085 42.001,89.700 42.002 C 89.315 42.004,88.484 42.274,87.854 42.602 C 87.224 42.931,86.459 43.200,86.154 43.200 C 85.849 43.200,85.600 43.380,85.600 43.600 C 85.600 43.820,85.240 44.000,84.800 44.000 C 84.360 44.000,84.000 44.180,84.000 44.400 C 84.000 44.620,83.708 44.800,83.351 44.800 C 82.585 44.800,74.261 48.818,74.067 49.282 C 73.993 49.457,73.674 49.600,73.358 49.600 C 72.590 49.600,68.400 53.818,68.400 54.591 C 68.400 54.926,68.220 55.200,68.000 55.200 C 67.780 55.200,67.600 55.560,67.600 56.000 C 67.600 56.440,67.420 56.800,67.200 56.800 C 66.980 56.800,66.800 57.239,66.800 57.776 C 66.800 58.313,66.620 58.864,66.400 59.000 C 66.180 59.136,66.000 59.687,66.000 60.224 C 66.000 60.761,65.820 61.200,65.600 61.200 C 65.380 61.200,65.200 61.729,65.200 62.376 C 65.200 63.023,65.020 63.664,64.800 63.800 C 64.580 63.936,64.400 64.667,64.400 65.424 C 64.400 66.181,64.220 66.800,64.000 66.800 C 63.780 66.800,63.600 67.340,63.600 68.000 C 63.600 68.660,63.420 69.200,63.200 69.200 C 62.980 69.200,62.800 69.729,62.800 70.376 C 62.800 71.023,62.620 71.664,62.400 71.800 C 62.180 71.936,62.000 72.667,62.000 73.424 C 62.000 74.181,61.820 74.800,61.600 74.800 C 61.380 74.800,61.200 75.329,61.200 75.976 C 61.200 76.623,61.020 77.264,60.800 77.400 C 60.580 77.536,60.400 78.089,60.400 78.629 C 60.400 79.169,60.228 79.923,60.018 80.305 C 59.535 81.186,58.400 85.968,58.400 87.126 C 58.400 87.607,58.220 88.000,58.000 88.000 C 57.780 88.000,57.600 88.720,57.600 89.600 C 57.600 90.480,57.420 91.200,57.200 91.200 C 56.980 91.200,56.800 91.740,56.800 92.400 C 56.800 93.060,56.620 93.600,56.400 93.600 C 56.180 93.600,56.000 94.230,56.000 95.000 C 56.000 95.770,55.820 96.400,55.600 96.400 C 55.380 96.400,55.200 96.929,55.200 97.576 C 55.200 98.223,55.020 98.864,54.800 99.000 C 54.580 99.136,54.400 99.867,54.400 100.624 C 54.400 101.381,54.220 102.000,54.000 102.000 C 53.780 102.000,53.600 102.720,53.600 103.600 C 53.600 104.480,53.420 105.200,53.200 105.200 C 52.980 105.200,52.800 105.740,52.800 106.400 C 52.800 107.060,52.620 107.600,52.400 107.600 C 52.180 107.600,52.000 108.230,52.000 109.000 C 52.000 109.770,51.820 110.400,51.600 110.400 C 51.380 110.400,51.200 111.030,51.200 111.800 C 51.200 112.570,51.020 113.200,50.800 113.200 C 50.580 113.200,50.400 113.830,50.400 114.600 C 50.400 115.370,50.220 116.000,50.000 116.000 C 49.780 116.000,49.600 116.619,49.600 117.376 C 49.600 118.133,49.420 118.864,49.200 119.000 C 48.980 119.136,48.800 119.777,48.800 120.424 C 48.800 121.071,48.620 121.600,48.400 121.600 C 48.180 121.600,48.000 122.320,48.000 123.200 C 48.000 124.080,47.820 124.800,47.600 124.800 C 47.380 124.800,47.200 125.329,47.200 125.976 C 47.200 126.623,47.020 127.264,46.800 127.400 C 46.580 127.536,46.400 128.166,46.400 128.800 C 46.400 129.434,46.220 130.064,46.000 130.200 C 45.780 130.336,45.600 131.067,45.600 131.824 C 45.600 132.581,45.440 133.200,45.244 133.200 C 45.048 133.200,44.773 133.875,44.632 134.700 C 44.014 138.327,43.892 138.820,43.556 139.027 C 43.360 139.148,43.200 139.867,43.200 140.624 C 43.200 141.381,43.054 142.000,42.876 142.000 C 42.574 142.000,41.852 145.054,41.339 148.503 C 41.216 149.329,40.955 150.105,40.758 150.226 C 40.561 150.348,40.400 150.977,40.400 151.624 C 40.400 152.271,40.220 152.800,40.000 152.800 C 39.780 152.800,39.600 153.520,39.600 154.400 C 39.600 155.280,39.420 156.000,39.200 156.000 C 38.980 156.000,38.800 156.392,38.800 156.872 C 38.800 157.792,38.140 160.128,37.551 161.295 C 37.358 161.677,37.200 162.532,37.200 163.195 C 37.200 163.858,37.020 164.400,36.800 164.400 C 36.580 164.400,36.400 165.120,36.400 166.000 C 36.400 166.880,36.220 167.600,36.000 167.600 C 35.780 167.600,35.600 168.140,35.600 168.800 C 35.600 169.460,35.420 170.000,35.200 170.000 C 34.980 170.000,34.800 170.720,34.800 171.600 C 34.800 172.480,34.620 173.200,34.400 173.200 C 34.180 173.200,34.000 173.819,34.000 174.576 C 34.000 175.333,33.820 176.064,33.600 176.200 C 33.380 176.336,33.200 176.966,33.200 177.600 C 33.200 178.234,33.020 178.864,32.800 179.000 C 32.580 179.136,32.400 179.766,32.400 180.400 C 32.400 181.034,32.220 181.664,32.000 181.800 C 31.780 181.936,31.600 182.667,31.600 183.424 C 31.600 184.181,31.420 184.800,31.200 184.800 C 30.980 184.800,30.800 185.520,30.800 186.400 C 30.800 187.280,30.620 188.000,30.400 188.000 C 30.180 188.000,30.000 188.529,30.000 189.176 C 30.000 189.823,29.820 190.464,29.600 190.600 C 29.380 190.736,29.200 191.467,29.200 192.224 C 29.200 192.981,29.020 193.600,28.800 193.600 C 28.580 193.600,28.400 194.219,28.400 194.976 C 28.400 195.733,28.220 196.464,28.000 196.600 C 27.780 196.736,27.600 197.467,27.600 198.224 C 27.600 198.981,27.440 199.600,27.244 199.600 C 27.048 199.600,26.791 200.185,26.673 200.900 C 26.554 201.615,26.258 203.010,26.015 204.000 C 25.771 204.990,25.358 207.015,25.097 208.500 C 24.836 209.985,24.483 211.200,24.311 211.200 C 24.140 211.200,24.000 211.920,24.000 212.800 C 24.000 213.680,23.820 214.400,23.600 214.400 C 23.380 214.400,23.200 214.929,23.200 215.576 C 23.200 216.223,23.020 216.864,22.800 217.000 C 22.580 217.136,22.400 217.867,22.400 218.624 C 22.400 219.381,22.220 220.000,22.000 220.000 C 21.780 220.000,21.600 220.720,21.600 221.600 C 21.600 222.480,21.420 223.200,21.200 223.200 C 20.980 223.200,20.800 223.819,20.800 224.576 C 20.800 225.333,20.620 226.064,20.400 226.200 C 20.180 226.336,20.000 227.067,20.000 227.824 C 20.000 228.581,19.820 229.200,19.600 229.200 C 19.380 229.200,19.200 229.920,19.200 230.800 C 19.200 231.680,19.020 232.400,18.800 232.400 C 18.580 232.400,18.400 233.120,18.400 234.000 C 18.400 234.880,18.220 235.600,18.000 235.600 C 17.780 235.600,17.600 236.320,17.600 237.200 C 17.600 238.080,17.420 238.800,17.200 238.800 C 16.980 238.800,16.800 239.419,16.800 240.176 C 16.800 240.933,16.620 241.664,16.400 241.800 C 16.180 241.936,16.000 242.667,16.000 243.424 C 16.000 244.181,15.820 244.800,15.600 244.800 C 15.380 244.800,15.200 245.419,15.200 246.176 C 15.200 246.933,15.020 247.664,14.800 247.800 C 14.580 247.936,14.400 248.566,14.400 249.200 C 14.400 249.834,14.239 250.452,14.042 250.574 C 13.845 250.695,13.571 251.561,13.433 252.497 C 12.818 256.655,12.695 257.218,12.358 257.426 C 12.161 257.548,12.000 258.256,12.000 259.000 C 12.000 259.744,11.820 260.464,11.600 260.600 C 11.380 260.736,11.200 261.456,11.200 262.200 C 11.200 262.944,11.039 263.652,10.842 263.774 C 10.507 263.981,10.373 264.614,9.755 268.900 C 9.620 269.835,9.361 270.785,9.180 271.011 C 8.998 271.237,8.724 272.812,8.570 274.511 C 8.416 276.210,8.134 277.600,7.945 277.600 C 7.755 277.600,7.600 278.590,7.600 279.800 C 7.600 281.010,7.420 282.000,7.200 282.000 C 6.653 282.000,6.653 304.662,7.200 305.000 C 7.420 305.136,7.600 305.766,7.600 306.400 C 7.600 307.034,7.780 307.664,8.000 307.800 C 8.220 307.936,8.400 308.384,8.400 308.795 C 8.400 309.206,8.670 309.813,9.000 310.143 C 9.330 310.473,9.600 310.922,9.600 311.140 C 9.600 311.754,13.192 315.200,13.832 315.200 C 14.144 315.200,14.400 315.380,14.400 315.600 C 14.400 315.820,14.760 316.000,15.200 316.000 C 15.640 316.000,16.000 316.180,16.000 316.400 C 16.000 316.620,16.360 316.800,16.800 316.800 C 17.240 316.800,17.600 316.980,17.600 317.200 C 17.600 317.420,17.949 317.600,18.376 317.600 C 18.803 317.600,19.264 317.780,19.400 318.000 C 19.536 318.220,20.087 318.400,20.624 318.400 C 21.161 318.400,21.600 318.580,21.600 318.800 C 21.600 319.020,22.140 319.200,22.800 319.200 C 23.460 319.200,24.000 319.380,24.000 319.600 C 24.000 319.820,24.360 320.000,24.800 320.000 C 25.240 320.000,25.600 320.180,25.600 320.400 C 25.600 320.620,25.920 320.800,26.310 320.800 C 26.701 320.800,28.096 321.334,29.410 321.987 C 30.725 322.641,32.115 323.181,32.500 323.187 C 32.885 323.194,33.200 323.380,33.200 323.600 C 33.200 323.820,33.560 324.000,34.000 324.000 C 34.440 324.000,34.800 324.177,34.800 324.392 C 34.800 324.608,35.295 324.908,35.900 325.060 C 36.505 325.211,37.477 325.844,38.060 326.467 C 38.644 327.090,39.337 327.600,39.600 327.600 C 39.863 327.600,40.583 328.140,41.200 328.800 C 41.817 329.460,42.479 330.000,42.672 330.000 C 42.865 330.000,43.283 330.360,43.600 330.800 C 43.917 331.240,44.407 331.600,44.688 331.600 C 44.970 331.600,45.200 331.780,45.200 332.000 C 45.200 332.220,45.430 332.400,45.712 332.400 C 45.993 332.400,46.483 332.760,46.800 333.200 C 47.117 333.640,47.580 334.000,47.829 334.000 C 48.078 334.000,48.846 334.540,49.537 335.200 C 50.228 335.860,50.948 336.400,51.137 336.400 C 51.326 336.400,52.046 336.940,52.737 337.600 C 53.428 338.260,54.140 338.800,54.321 338.800 C 54.501 338.800,55.015 339.141,55.462 339.557 C 55.909 339.974,56.798 340.589,57.438 340.924 C 58.077 341.258,58.997 341.907,59.483 342.366 C 59.969 342.825,60.514 343.200,60.695 343.200 C 60.876 343.200,61.283 343.560,61.600 344.000 C 61.917 344.440,62.409 344.800,62.692 344.800 C 62.975 344.800,63.772 345.340,64.463 346.000 C 65.154 346.660,65.922 347.200,66.171 347.200 C 66.420 347.200,66.883 347.560,67.200 348.000 C 67.517 348.440,68.031 348.800,68.341 348.800 C 68.652 348.800,69.197 349.116,69.553 349.503 C 69.909 349.889,70.695 350.460,71.300 350.770 C 71.905 351.081,72.400 351.485,72.400 351.668 C 72.400 351.850,72.636 352.000,72.925 352.000 C 73.213 352.000,73.798 352.324,74.225 352.719 C 74.651 353.115,76.084 354.150,77.409 355.019 C 80.923 357.324,81.270 357.538,82.700 358.277 C 83.415 358.646,84.000 359.095,84.000 359.274 C 84.000 359.453,84.360 359.600,84.800 359.600 C 85.240 359.600,85.600 359.780,85.600 360.000 C 85.600 360.220,85.836 360.400,86.125 360.400 C 86.413 360.400,87.036 360.760,87.508 361.200 C 87.980 361.640,88.562 362.000,88.800 362.000 C 89.038 362.000,89.620 362.360,90.092 362.800 C 90.564 363.240,91.187 363.600,91.475 363.600 C 91.764 363.600,92.000 363.780,92.000 364.000 C 92.000 364.220,92.270 364.400,92.600 364.400 C 92.930 364.400,93.200 364.580,93.200 364.800 C 93.200 365.020,93.478 365.200,93.817 365.200 C 94.156 365.200,94.820 365.560,95.292 366.000 C 95.764 366.440,96.387 366.800,96.675 366.800 C 96.964 366.800,97.200 366.980,97.200 367.200 C 97.200 367.420,97.560 367.600,98.000 367.600 C 98.440 367.600,98.800 367.780,98.800 368.000 C 98.800 368.220,99.160 368.400,99.600 368.400 C 100.040 368.400,100.400 368.580,100.400 368.800 C 100.400 369.020,100.745 369.200,101.167 369.200 C 101.588 369.200,101.993 369.357,102.067 369.549 C 102.256 370.045,112.877 375.200,113.710 375.200 C 114.089 375.200,114.400 375.380,114.400 375.600 C 114.400 375.820,114.760 376.000,115.200 376.000 C 115.640 376.000,116.000 376.180,116.000 376.400 C 116.000 376.620,116.439 376.800,116.976 376.800 C 117.513 376.800,118.064 376.980,118.200 377.200 C 118.336 377.420,118.797 377.600,119.224 377.600 C 119.651 377.600,120.000 377.780,120.000 378.000 C 120.000 378.220,120.360 378.400,120.800 378.400 C 121.240 378.400,121.600 378.580,121.600 378.800 C 121.600 379.020,122.140 379.200,122.800 379.200 C 123.460 379.200,124.000 379.380,124.000 379.600 C 124.000 379.820,124.450 380.000,125.000 380.000 C 125.550 380.000,126.000 380.180,126.000 380.400 C 126.000 380.620,126.349 380.800,126.776 380.800 C 127.203 380.800,127.664 380.980,127.800 381.200 C 127.936 381.420,128.487 381.600,129.024 381.600 C 129.561 381.600,130.000 381.780,130.000 382.000 C 130.000 382.220,130.540 382.400,131.200 382.400 C 131.860 382.400,132.400 382.580,132.400 382.800 C 132.400 383.020,132.929 383.200,133.576 383.200 C 134.223 383.200,134.864 383.380,135.000 383.600 C 135.136 383.820,135.867 384.000,136.624 384.000 C 137.381 384.000,138.000 384.180,138.000 384.400 C 138.000 384.620,138.529 384.800,139.176 384.800 C 139.823 384.800,140.464 384.980,140.600 385.200 C 140.736 385.420,141.456 385.600,142.200 385.600 C 142.944 385.600,143.664 385.780,143.800 386.000 C 143.936 386.220,144.746 386.400,145.600 386.400 C 146.454 386.400,147.264 386.580,147.400 386.800 C 147.536 387.020,148.436 387.200,149.400 387.200 C 150.364 387.200,151.264 387.380,151.400 387.600 C 151.536 387.820,152.616 388.000,153.800 388.000 C 154.984 388.000,156.064 388.180,156.200 388.400 C 156.336 388.620,157.571 388.800,158.944 388.800 C 160.317 388.800,161.611 388.967,161.820 389.171 C 162.029 389.375,163.730 389.646,165.600 389.773 C 167.470 389.900,171.520 390.200,174.600 390.440 C 185.929 391.324,210.014 390.914,223.800 389.603 C 226.220 389.372,229.640 389.085,231.400 388.963 C 233.160 388.841,234.771 388.575,234.980 388.371 C 235.189 388.167,236.584 388.000,238.080 388.000 C 239.627 388.000,240.800 387.827,240.800 387.600 C 240.800 387.375,241.925 387.200,243.376 387.200 C 244.793 387.200,246.064 387.020,246.200 386.800 C 246.336 386.580,247.517 386.400,248.824 386.400 C 250.141 386.400,251.200 386.222,251.200 386.000 C 251.200 385.780,252.179 385.600,253.376 385.600 C 254.573 385.600,255.664 385.420,255.800 385.200 C 255.936 384.980,257.027 384.800,258.224 384.800 C 259.421 384.800,260.400 384.620,260.400 384.400 C 260.400 384.180,261.300 384.000,262.400 384.000 C 263.500 384.000,264.400 383.820,264.400 383.600 C 264.400 383.380,265.300 383.200,266.400 383.200 C 267.500 383.200,268.400 383.020,268.400 382.800 C 268.400 382.580,269.109 382.400,269.976 382.400 C 270.843 382.400,271.664 382.220,271.800 382.000 C 271.936 381.780,272.757 381.600,273.624 381.600 C 274.491 381.600,275.200 381.420,275.200 381.200 C 275.200 380.980,275.905 380.800,276.767 380.800 C 277.629 380.800,278.438 380.575,278.567 380.300 C 278.753 379.900,278.847 379.900,279.033 380.300 C 279.162 380.575,279.612 380.800,280.033 380.800 C 280.455 380.800,280.800 380.980,280.800 381.200 C 280.800 381.420,281.160 381.600,281.600 381.600 C 282.040 381.600,282.400 381.780,282.400 382.000 C 282.400 382.220,282.760 382.400,283.200 382.400 C 283.640 382.400,284.000 382.580,284.000 382.800 C 284.000 383.020,284.360 383.200,284.800 383.200 C 285.240 383.200,285.600 383.380,285.600 383.600 C 285.600 383.820,286.140 384.000,286.800 384.000 C 287.460 384.000,288.000 384.180,288.000 384.400 C 288.000 384.620,288.360 384.800,288.800 384.800 C 289.240 384.800,289.600 384.980,289.600 385.200 C 289.600 385.420,289.960 385.600,290.400 385.600 C 290.840 385.600,291.200 385.780,291.200 386.000 C 291.200 386.220,291.562 386.400,292.005 386.400 C 292.448 386.400,293.123 386.559,293.505 386.753 C 293.887 386.948,294.740 387.329,295.400 387.600 C 296.060 387.871,296.913 388.252,297.295 388.447 C 297.677 388.641,298.341 388.800,298.771 388.800 C 299.201 388.800,299.664 388.980,299.800 389.200 C 299.936 389.420,300.487 389.600,301.024 389.600 C 301.561 389.600,302.000 389.780,302.000 390.000 C 302.000 390.220,302.529 390.400,303.176 390.400 C 303.823 390.400,304.456 390.567,304.583 390.772 C 304.709 390.977,305.800 391.267,307.006 391.418 C 308.213 391.569,309.200 391.851,309.200 392.046 C 309.200 392.241,309.830 392.400,310.600 392.400 C 311.370 392.400,312.000 392.580,312.000 392.800 C 312.000 393.020,312.540 393.200,313.200 393.200 C 313.860 393.200,314.400 393.380,314.400 393.600 C 314.400 393.820,315.120 394.000,316.000 394.000 C 316.880 394.000,317.600 394.180,317.600 394.400 C 317.600 394.620,318.320 394.800,319.200 394.800 C 320.080 394.800,320.800 394.980,320.800 395.200 C 320.800 395.420,321.700 395.600,322.800 395.600 C 323.900 395.600,324.800 395.780,324.800 396.000 C 324.800 396.220,325.520 396.400,326.400 396.400 C 327.280 396.400,328.000 396.580,328.000 396.800 C 328.000 397.020,328.990 397.200,330.200 397.200 C 331.410 397.200,332.400 397.380,332.400 397.600 C 332.400 397.822,333.467 398.000,334.800 398.000 C 336.133 398.000,337.200 398.178,337.200 398.400 C 337.200 398.628,338.389 398.800,339.967 398.800 C 341.824 398.800,342.788 398.964,342.900 399.300 C 343.144 400.032,389.256 400.032,389.500 399.300 C 389.592 399.025,389.878 398.800,390.136 398.800 C 390.963 398.800,393.200 396.015,393.200 394.987 C 393.200 394.444,393.380 394.000,393.600 394.000 C 393.820 394.000,394.000 393.190,394.000 392.200 C 394.000 391.210,393.820 390.400,393.600 390.400 C 393.380 390.400,393.200 389.944,393.200 389.387 C 393.200 388.273,390.826 385.600,389.837 385.600 C 389.513 385.600,389.136 385.420,389.000 385.200 C 388.641 384.618,387.372 384.710,386.836 385.357 C 385.916 386.465,363.713 387.216,355.000 386.434 C 344.494 385.492,341.902 385.137,331.400 383.205 C 317.022 380.560,299.861 374.820,285.803 367.953 C 281.097 365.654,280.329 365.591,274.415 367.016 C 269.361 368.234,267.698 368.615,264.800 369.219 C 263.590 369.472,261.880 369.828,261.000 370.012 C 260.120 370.196,258.230 370.547,256.800 370.792 C 255.370 371.036,253.300 371.403,252.200 371.606 C 250.154 371.984,247.234 372.443,242.102 373.194 C 240.508 373.427,238.078 373.785,236.702 373.990 C 232.412 374.626,223.236 375.567,212.800 376.440 C 205.664 377.038,180.657 377.042,174.800 376.447 C 164.641 375.415,159.269 374.729,155.400 373.969 C 154.300 373.753,152.410 373.384,151.200 373.149 C 142.143 371.392,130.879 367.690,121.200 363.289 C 101.296 354.240,85.258 344.122,54.483 321.200 C 42.168 312.027,41.126 311.419,30.400 307.158 C 25.885 305.364,21.872 303.527,21.470 303.069 C 20.317 301.756,20.660 283.839,21.942 278.400 C 22.435 276.310,23.291 272.620,23.845 270.200 C 24.399 267.780,25.313 264.000,25.878 261.800 C 26.442 259.600,27.058 257.080,27.246 256.200 C 27.568 254.697,27.913 253.345,28.828 250.000 C 29.039 249.230,29.398 247.790,29.625 246.800 C 29.853 245.810,30.210 244.325,30.420 243.500 C 30.931 241.484,31.521 239.120,31.968 237.300 C 32.171 236.475,32.697 234.450,33.136 232.800 C 33.576 231.150,34.663 227.010,35.551 223.600 C 39.104 209.966,42.527 196.975,43.457 193.600 C 43.790 192.390,44.409 190.095,44.831 188.500 C 46.223 183.247,47.250 179.418,47.593 178.200 C 48.617 174.562,50.760 166.713,52.398 160.600 C 52.869 158.840,54.410 153.170,55.822 148.000 C 57.233 142.830,58.949 136.530,59.635 134.000 C 60.321 131.470,61.022 128.950,61.194 128.400 C 61.366 127.850,61.706 126.680,61.948 125.800 C 62.191 124.920,62.934 122.220,63.600 119.800 C 64.266 117.380,65.009 114.680,65.252 113.800 C 65.494 112.920,65.831 111.750,66.000 111.200 C 66.169 110.650,66.529 109.390,66.800 108.400 C 67.071 107.410,67.431 106.150,67.600 105.600 C 67.769 105.050,68.110 103.880,68.357 103.000 C 68.605 102.120,70.619 95.010,72.834 87.200 C 75.049 79.390,77.012 72.460,77.197 71.800 C 77.382 71.140,77.928 69.340,78.410 67.800 C 78.892 66.260,79.378 64.504,79.489 63.898 C 79.824 62.072,80.999 61.345,91.000 56.766 C 96.280 54.349,101.410 51.996,102.400 51.536 C 104.620 50.505,107.562 49.172,110.200 48.003 C 111.300 47.516,113.280 46.614,114.600 46.000 C 115.920 45.386,117.900 44.480,119.000 43.986 C 120.100 43.493,125.410 41.069,130.800 38.600 C 136.190 36.131,141.500 33.707,142.600 33.214 C 143.700 32.720,145.680 31.815,147.000 31.201 C 148.320 30.587,150.390 29.637,151.600 29.089 C 158.023 26.180,159.622 25.452,162.000 24.355 C 176.327 17.747,182.664 14.948,183.000 15.077 C 183.220 15.162,184.851 17.160,186.624 19.516 C 188.398 21.872,193.245 28.210,197.396 33.600 C 201.546 38.990,206.034 44.840,207.369 46.600 C 208.703 48.360,209.889 49.890,210.003 50.000 C 210.118 50.110,211.595 52.043,213.287 54.295 C 218.243 60.896,218.120 61.859,211.359 69.400 C 202.442 79.344,191.744 91.338,184.841 99.130 C 179.584 105.066,178.106 104.810,168.974 96.386 C 158.381 86.612,156.789 86.149,151.800 91.393 C 148.419 94.947,142.848 96.380,131.200 96.692 C 122.483 96.926,121.441 97.393,120.030 101.700 C 119.302 103.919,119.974 105.473,123.984 110.853 L 127.452 115.506 128.143 127.053 C 128.523 133.404,129.092 143.190,129.406 148.800 C 129.721 154.410,130.169 162.060,130.401 165.800 C 130.633 169.540,130.995 175.660,131.205 179.400 C 131.602 186.488,132.132 195.317,132.812 206.200 C 133.032 209.720,133.325 215.759,133.463 219.621 L 133.715 226.641 132.009 232.021 C 129.189 240.913,126.990 245.030,123.954 247.103 C 117.232 251.694,122.242 261.483,129.874 258.670 C 136.196 256.339,140.919 248.089,146.210 230.137 C 146.586 228.863,161.755 219.889,166.600 218.074 C 167.260 217.827,168.790 217.250,170.000 216.790 C 174.488 215.088,178.276 214.051,184.800 212.739 C 188.349 212.025,204.487 212.017,208.000 212.728 C 213.710 213.882,217.505 214.761,218.600 215.182 C 219.040 215.351,220.120 215.707,221.000 215.974 C 235.442 220.352,249.144 229.398,256.800 239.609 C 257.350 240.342,258.190 241.413,258.666 241.989 C 261.960 245.968,266.120 254.740,266.909 259.373 C 268.584 269.205,280.880 267.249,279.748 257.331 C 278.828 249.275,270.026 233.112,263.250 227.038 C 262.068 225.978,262.152 225.646,264.235 223.176 C 274.329 211.207,287.873 200.905,299.500 196.352 C 299.995 196.159,300.805 195.832,301.300 195.626 C 303.111 194.874,307.056 193.661,309.200 193.198 C 310.410 192.936,312.120 192.560,313.000 192.362 C 320.345 190.711,332.428 190.844,341.200 192.673 C 342.850 193.017,344.650 193.381,345.200 193.481 C 347.524 193.905,355.157 196.363,356.895 197.247 C 357.277 197.441,357.783 197.600,358.020 197.600 C 358.723 197.600,366.981 201.557,371.600 204.108 C 372.370 204.533,375.546 206.573,378.657 208.641 C 381.997 210.860,384.721 212.400,385.308 212.400 C 385.855 212.400,386.526 212.670,386.800 213.000 C 387.359 213.673,388.800 213.817,388.800 213.200 C 388.800 212.980,389.168 212.800,389.618 212.800 C 390.870 212.800,393.200 210.071,393.200 208.605 C 393.200 208.272,393.380 208.000,393.600 208.000 C 393.820 208.000,394.000 207.190,394.000 206.200 C 394.000 205.210,393.820 204.400,393.600 204.400 C 393.380 204.400,393.200 203.955,393.200 203.411 C 393.200 202.469,390.273 198.800,389.521 198.800 C 389.340 198.800,388.628 198.260,387.937 197.600 C 387.246 196.940,386.438 196.400,386.141 196.400 C 385.843 196.400,385.600 196.220,385.600 196.000 C 385.600 195.780,385.364 195.600,385.075 195.600 C 384.787 195.600,384.164 195.240,383.692 194.800 C 383.220 194.360,382.556 194.000,382.217 194.000 C 381.878 194.000,381.600 193.857,381.600 193.682 C 381.600 193.508,380.160 192.683,378.400 191.849 C 376.640 191.015,375.200 190.168,375.200 189.967 C 375.200 189.765,374.840 189.600,374.400 189.600 C 373.960 189.600,373.599 189.465,373.597 189.300 C 373.593 188.941,371.656 188.000,370.920 188.000 C 370.634 188.000,370.400 187.820,370.400 187.600 C 370.400 187.380,369.950 187.200,369.400 187.200 C 368.850 187.200,368.400 187.020,368.400 186.800 C 368.400 186.580,368.040 186.400,367.600 186.400 C 367.160 186.400,366.800 186.220,366.800 186.000 C 366.800 185.780,366.440 185.600,366.000 185.600 C 365.560 185.600,365.200 185.420,365.200 185.200 C 365.200 184.980,364.660 184.800,364.000 184.800 C 363.340 184.800,362.800 184.620,362.800 184.400 C 362.800 184.180,362.451 184.000,362.024 184.000 C 361.597 184.000,361.136 183.820,361.000 183.600 C 360.864 183.380,360.313 183.200,359.776 183.200 C 359.239 183.200,358.800 183.020,358.800 182.800 C 358.800 182.580,358.260 182.400,357.600 182.400 C 356.940 182.400,356.400 182.220,356.400 182.000 C 356.400 181.780,355.871 181.600,355.224 181.600 C 354.577 181.600,353.936 181.420,353.800 181.200 C 353.664 180.980,353.023 180.800,352.376 180.800 C 351.729 180.800,351.200 180.620,351.200 180.400 C 351.200 180.180,350.480 180.000,349.600 180.000 C 348.720 180.000,348.000 179.820,348.000 179.600 C 348.000 179.380,347.100 179.200,346.000 179.200 C 344.900 179.200,344.000 179.037,344.000 178.837 C 344.000 178.637,342.965 178.364,341.700 178.229 C 340.435 178.094,337.690 177.793,335.600 177.560 C 329.218 176.847,314.910 177.120,313.000 177.990 C 312.560 178.191,311.390 178.461,310.400 178.590 C 309.410 178.719,307.835 178.928,306.900 179.053 C 305.965 179.178,305.200 179.442,305.200 179.640 C 305.200 179.838,304.581 180.000,303.824 180.000 C 303.067 180.000,302.336 180.180,302.200 180.400 C 302.064 180.620,301.423 180.800,300.776 180.800 C 300.129 180.800,299.600 180.980,299.600 181.200 C 299.600 181.420,299.060 181.600,298.400 181.600 C 297.740 181.600,297.200 181.780,297.200 182.000 C 297.200 182.220,296.750 182.400,296.200 182.400 C 295.650 182.400,295.200 182.580,295.200 182.800 C 295.200 183.020,294.928 183.200,294.595 183.200 C 294.262 183.200,293.632 183.380,293.195 183.600 C 292.758 183.820,292.042 184.180,291.605 184.400 C 291.168 184.620,290.538 184.800,290.205 184.800 C 289.872 184.800,289.600 184.980,289.600 185.200 C 289.600 185.420,289.240 185.600,288.800 185.600 C 288.360 185.600,288.000 185.780,288.000 186.000 C 288.000 186.220,287.640 186.400,287.200 186.400 C 286.760 186.400,286.400 186.580,286.400 186.800 C 286.400 187.020,286.164 187.200,285.875 187.200 C 285.587 187.200,284.964 187.560,284.492 188.000 C 284.020 188.440,283.356 188.800,283.017 188.800 C 282.678 188.800,282.400 188.980,282.400 189.200 C 282.400 189.420,282.080 189.600,281.688 189.600 C 281.297 189.600,280.717 189.960,280.400 190.400 C 280.083 190.840,279.503 191.200,279.112 191.200 C 278.720 191.200,278.400 191.380,278.400 191.600 C 278.400 191.820,278.130 192.000,277.800 192.000 C 277.470 192.000,277.200 192.180,277.200 192.400 C 277.200 192.620,277.065 192.756,276.900 192.701 C 276.604 192.604,274.140 194.333,272.625 195.700 C 272.198 196.085,271.689 196.400,271.493 196.400 C 271.297 196.400,270.446 197.120,269.600 198.000 C 268.754 198.880,267.873 199.600,267.640 199.600 C 266.995 199.600,254.400 212.369,254.400 213.023 C 254.400 213.140,253.958 213.678,253.418 214.218 C 252.424 215.212,251.200 215.533,251.200 214.800 C 251.200 214.580,250.964 214.400,250.675 214.400 C 250.387 214.400,249.764 214.040,249.292 213.600 C 248.820 213.160,248.156 212.800,247.817 212.800 C 247.478 212.800,247.199 212.665,247.197 212.500 C 247.195 212.335,246.790 212.002,246.297 211.761 C 245.804 211.519,244.182 210.664,242.694 209.861 C 241.206 209.057,239.721 208.400,239.394 208.400 C 239.067 208.400,238.800 208.220,238.800 208.000 C 238.800 207.780,238.440 207.600,238.000 207.600 C 237.560 207.600,237.200 207.420,237.200 207.200 C 237.200 206.980,236.851 206.800,236.424 206.800 C 235.997 206.800,235.536 206.620,235.400 206.400 C 235.264 206.180,234.713 206.000,234.176 206.000 C 233.639 206.000,233.200 205.820,233.200 205.600 C 233.200 205.380,232.840 205.200,232.400 205.200 C 231.960 205.200,231.600 205.020,231.600 204.800 C 231.600 204.580,231.060 204.400,230.400 204.400 C 229.740 204.400,229.200 204.220,229.200 204.000 C 229.200 203.780,228.761 203.600,228.224 203.600 C 227.687 203.600,227.136 203.420,227.000 203.200 C 226.864 202.980,226.324 202.800,225.800 202.800 C 225.276 202.800,224.736 202.620,224.600 202.400 C 224.464 202.180,223.913 202.000,223.376 202.000 C 222.839 202.000,222.400 201.820,222.400 201.600 C 222.400 201.380,221.680 201.200,220.800 201.200 C 219.920 201.200,219.200 201.020,219.200 200.800 C 219.200 200.580,218.480 200.400,217.600 200.400 C 216.720 200.400,216.000 200.237,216.000 200.037 C 216.000 199.671,213.810 199.355,208.500 198.955 C 206.905 198.835,205.600 198.571,205.600 198.368 C 205.600 197.853,187.319 197.884,187.000 198.400 C 186.864 198.620,185.514 198.800,184.000 198.800 C 182.486 198.800,181.136 198.980,181.000 199.200 C 180.864 199.420,179.964 199.600,179.000 199.600 C 178.036 199.600,177.136 199.780,177.000 200.000 C 176.864 200.220,176.133 200.400,175.376 200.400 C 174.619 200.400,174.000 200.580,174.000 200.800 C 174.000 201.020,173.280 201.200,172.400 201.200 C 171.520 201.200,170.800 201.380,170.800 201.600 C 170.800 201.820,170.260 202.000,169.600 202.000 C 168.940 202.000,168.400 202.180,168.400 202.400 C 168.400 202.620,167.860 202.800,167.200 202.800 C 166.540 202.800,166.000 202.980,166.000 203.200 C 166.000 203.420,165.561 203.600,165.024 203.600 C 164.487 203.600,163.936 203.780,163.800 204.000 C 163.664 204.220,163.203 204.400,162.776 204.400 C 162.349 204.400,162.000 204.580,162.000 204.800 C 162.000 205.020,161.550 205.200,161.000 205.200 C 160.450 205.200,160.000 205.380,160.000 205.600 C 160.000 205.820,159.640 206.000,159.200 206.000 C 158.760 206.000,158.400 206.180,158.400 206.400 C 158.400 206.620,158.040 206.800,157.600 206.800 C 157.160 206.800,156.800 206.980,156.800 207.200 C 156.800 207.420,156.440 207.600,156.000 207.600 C 155.560 207.600,155.200 207.780,155.200 208.000 C 155.200 208.220,154.911 208.400,154.558 208.400 C 153.829 208.400,148.270 211.218,148.067 211.691 C 147.677 212.595,147.200 211.775,147.200 210.200 C 147.200 209.210,147.020 208.400,146.800 208.400 C 146.550 208.400,146.400 205.941,146.400 201.824 C 146.400 197.871,146.240 195.149,146.000 195.000 C 145.760 194.851,145.600 192.129,145.600 188.176 C 145.600 184.059,145.450 181.600,145.200 181.600 C 144.949 181.600,144.800 179.133,144.800 175.000 C 144.800 170.867,144.651 168.400,144.400 168.400 C 144.149 168.400,144.000 165.933,144.000 161.800 C 144.000 157.667,143.851 155.200,143.600 155.200 C 143.349 155.200,143.200 152.733,143.200 148.600 C 143.200 144.467,143.051 142.000,142.800 142.000 C 142.549 142.000,142.400 139.467,142.400 135.200 C 142.400 130.933,142.251 128.400,142.000 128.400 C 141.752 128.400,141.588 126.079,141.568 122.300 C 141.551 118.945,141.413 114.715,141.262 112.900 L 140.987 109.600 143.294 109.600 C 144.562 109.600,145.600 109.445,145.600 109.255 C 145.600 109.066,146.786 108.789,148.236 108.640 C 150.715 108.386,152.442 107.800,156.169 105.947 L 157.738 105.166 159.740 107.083 C 160.840 108.137,162.597 109.855,163.644 110.900 C 164.691 111.945,165.790 112.800,166.086 112.800 C 166.381 112.800,166.883 113.160,167.200 113.600 C 167.517 114.040,168.097 114.400,168.488 114.400 C 168.880 114.400,169.200 114.580,169.200 114.800 C 169.200 115.020,169.560 115.200,170.000 115.200 C 170.440 115.200,170.800 115.380,170.800 115.600 C 170.800 115.820,171.340 116.000,172.000 116.000 C 172.660 116.000,173.200 116.180,173.200 116.400 C 173.200 116.647,175.267 116.800,178.600 116.800 C 181.933 116.800,184.000 116.647,184.000 116.400 C 184.000 116.180,184.540 116.000,185.200 116.000 C 185.860 116.000,186.400 115.820,186.400 115.600 C 186.400 115.380,186.760 115.200,187.200 115.200 C 187.640 115.200,188.000 115.020,188.000 114.800 C 188.000 114.580,188.360 114.400,188.800 114.400 C 189.240 114.400,189.600 114.220,189.600 114.000 C 189.600 113.780,189.783 113.600,190.007 113.600 C 190.427 113.600,195.600 108.594,195.600 108.188 C 195.600 108.063,196.819 106.755,198.309 105.281 C 199.798 103.806,201.461 101.970,202.004 101.200 C 202.547 100.430,203.893 98.884,204.995 97.764 C 207.773 94.943,208.800 93.680,208.800 93.085 C 208.800 92.806,209.187 92.312,209.660 91.988 C 210.957 91.101,213.751 88.277,215.048 86.543 C 215.682 85.696,217.194 84.012,218.410 82.801 C 219.625 81.591,221.062 79.970,221.603 79.200 C 222.144 78.430,223.130 77.243,223.793 76.561 C 225.576 74.732,226.800 73.235,226.800 72.885 C 226.800 72.716,227.160 72.317,227.600 72.000 C 228.040 71.683,228.400 71.103,228.400 70.712 C 228.400 70.320,228.580 70.000,228.800 70.000 C 229.020 70.000,229.200 69.561,229.200 69.024 C 229.200 68.487,229.380 67.936,229.600 67.800 C 229.820 67.664,230.000 67.034,230.000 66.400 C 230.000 65.766,230.180 65.136,230.400 65.000 C 230.621 64.864,230.800 63.070,230.800 61.000 C 230.800 58.930,230.621 57.136,230.400 57.000 C 230.180 56.864,230.000 56.144,230.000 55.400 C 230.000 54.656,229.820 53.936,229.600 53.800 C 229.380 53.664,229.200 53.203,229.200 52.776 C 229.200 52.349,229.020 52.000,228.800 52.000 C 228.580 52.000,228.400 51.680,228.400 51.288 C 228.400 50.897,228.040 50.317,227.600 50.000 C 227.160 49.683,226.800 49.187,226.800 48.897 C 226.800 48.608,226.437 47.973,225.992 47.486 C 225.548 46.999,224.333 45.430,223.292 44.000 C 222.252 42.571,220.905 40.879,220.300 40.241 C 219.695 39.603,219.200 38.910,219.200 38.701 C 219.200 38.492,218.660 37.817,218.000 37.200 C 217.340 36.583,216.800 35.863,216.800 35.600 C 216.800 35.337,216.260 34.617,215.600 34.000 C 214.940 33.383,214.400 32.719,214.400 32.524 C 214.400 32.328,213.680 31.372,212.800 30.400 C 211.920 29.428,211.200 28.472,211.200 28.276 C 211.200 28.081,210.660 27.417,210.000 26.800 C 209.340 26.183,208.800 25.500,208.800 25.282 C 208.800 25.063,208.260 24.307,207.600 23.600 C 206.940 22.893,206.400 22.173,206.400 22.000 C 206.400 21.827,205.860 21.107,205.200 20.400 C 204.540 19.693,204.000 18.960,204.000 18.771 C 204.000 18.582,203.370 17.797,202.600 17.027 C 201.830 16.257,201.200 15.467,201.200 15.273 C 201.200 15.078,200.660 14.354,200.000 13.663 C 199.340 12.972,198.800 12.252,198.800 12.063 C 198.800 11.874,198.260 11.154,197.600 10.463 C 196.940 9.772,196.400 9.102,196.400 8.972 C 196.400 8.843,195.680 8.046,194.800 7.200 C 193.920 6.354,193.200 5.462,193.200 5.217 C 193.200 4.779,192.655 4.093,190.140 1.366 L 188.880 0.000 184.940 0.054 C 182.773 0.084,180.595 0.187,180.100 0.282 M288.600 26.477 C 287.940 26.692,286.770 27.045,286.000 27.261 C 284.578 27.659,283.161 28.208,281.905 28.847 C 281.523 29.041,280.938 29.200,280.605 29.200 C 280.272 29.200,280.000 29.380,280.000 29.600 C 280.000 29.820,279.764 30.000,279.475 30.000 C 279.187 30.000,278.564 30.360,278.092 30.800 C 277.620 31.240,277.074 31.600,276.879 31.600 C 276.684 31.600,276.198 31.960,275.800 32.400 C 275.402 32.840,274.921 33.200,274.731 33.200 C 274.219 33.200,269.200 38.311,269.200 38.832 C 269.200 39.078,268.693 39.756,268.073 40.340 C 267.453 40.923,266.689 41.985,266.375 42.700 C 266.062 43.415,265.669 44.000,265.502 44.000 C 265.336 44.000,265.200 44.360,265.200 44.800 C 265.200 45.240,265.020 45.600,264.800 45.600 C 264.580 45.600,264.400 45.949,264.400 46.376 C 264.400 46.803,264.220 47.264,264.000 47.400 C 263.780 47.536,263.600 48.087,263.600 48.624 C 263.600 49.161,263.420 49.600,263.200 49.600 C 262.980 49.600,262.800 50.320,262.800 51.200 C 262.800 52.080,262.620 52.800,262.400 52.800 C 262.173 52.800,262.000 53.973,262.000 55.520 C 262.000 57.016,261.801 58.439,261.557 58.683 C 261.277 58.963,261.210 59.840,261.374 61.063 C 261.517 62.128,261.731 64.170,261.850 65.600 C 261.968 67.030,262.230 68.371,262.432 68.580 C 262.635 68.789,262.800 69.554,262.800 70.280 C 262.800 71.006,262.980 71.600,263.200 71.600 C 263.420 71.600,263.600 71.924,263.600 72.320 C 263.600 73.214,264.494 75.193,264.900 75.197 C 265.065 75.199,265.200 75.434,265.200 75.720 C 265.200 76.456,266.141 78.393,266.500 78.397 C 266.665 78.399,266.800 78.720,266.800 79.112 C 266.800 79.503,267.160 80.083,267.600 80.400 C 268.040 80.717,268.400 81.212,268.400 81.501 C 268.400 82.587,319.485 133.200,320.581 133.200 C 321.141 133.200,321.600 133.380,321.600 133.600 C 321.600 133.820,322.410 134.000,323.400 134.000 C 324.390 134.000,325.200 133.820,325.200 133.600 C 325.200 133.380,325.628 133.200,326.150 133.200 C 326.966 133.200,333.812 127.036,339.000 121.630 C 339.699 120.901,353.393 107.207,355.320 105.309 C 355.716 104.919,358.967 101.630,362.545 98.000 C 366.123 94.370,369.849 90.665,370.825 89.766 C 373.287 87.500,377.600 82.839,377.600 82.445 C 377.600 82.265,378.140 81.554,378.800 80.863 C 379.460 80.172,380.000 79.336,380.000 79.004 C 380.000 78.672,380.180 78.400,380.400 78.400 C 380.620 78.400,380.800 78.040,380.800 77.600 C 380.800 77.160,380.980 76.800,381.200 76.800 C 381.420 76.800,381.600 76.440,381.600 76.000 C 381.600 75.560,381.780 75.200,382.000 75.200 C 382.220 75.200,382.400 74.840,382.400 74.400 C 382.400 73.960,382.580 73.600,382.800 73.600 C 383.020 73.600,383.200 73.161,383.200 72.624 C 383.200 72.087,383.380 71.536,383.600 71.400 C 383.820 71.264,384.000 70.548,384.000 69.810 C 384.000 69.071,384.189 68.404,384.420 68.327 C 384.999 68.134,384.999 53.066,384.420 52.873 C 384.189 52.796,384.000 52.129,384.000 51.390 C 384.000 50.652,383.820 49.936,383.600 49.800 C 383.380 49.664,383.200 49.113,383.200 48.576 C 383.200 48.039,383.020 47.600,382.800 47.600 C 382.580 47.600,382.400 47.150,382.400 46.600 C 382.400 46.050,382.220 45.600,382.000 45.600 C 381.780 45.600,381.600 45.240,381.600 44.800 C 381.600 44.360,381.420 44.000,381.200 44.000 C 380.980 44.000,380.800 43.770,380.800 43.488 C 380.800 43.207,380.440 42.717,380.000 42.400 C 379.560 42.083,379.200 41.543,379.200 41.200 C 379.200 40.857,378.840 40.317,378.400 40.000 C 377.960 39.683,377.600 39.183,377.600 38.890 C 377.600 38.122,370.779 31.600,369.976 31.600 C 369.751 31.600,369.180 31.240,368.708 30.800 C 368.236 30.360,367.613 30.000,367.325 30.000 C 367.036 30.000,366.800 29.820,366.800 29.600 C 366.800 29.380,366.528 29.200,366.195 29.200 C 365.862 29.200,365.277 29.041,364.895 28.847 C 364.513 28.652,363.750 28.304,363.200 28.073 C 362.256 27.676,361.706 27.506,357.800 26.402 C 354.991 25.608,340.363 26.290,339.774 27.242 C 339.652 27.439,339.203 27.600,338.776 27.600 C 338.349 27.600,338.000 27.780,338.000 28.000 C 338.000 28.220,337.460 28.400,336.800 28.400 C 336.140 28.400,335.600 28.580,335.600 28.800 C 335.600 29.020,335.240 29.200,334.800 29.200 C 334.360 29.200,334.000 29.380,334.000 29.600 C 334.000 29.820,333.680 30.000,333.288 30.000 C 332.897 30.000,332.317 30.360,332.000 30.800 C 331.683 31.240,331.143 31.600,330.800 31.600 C 330.457 31.600,329.917 31.960,329.600 32.400 C 329.283 32.840,328.819 33.200,328.569 33.200 C 328.319 33.200,327.105 34.292,325.872 35.626 L 323.631 38.052 321.870 36.326 C 319.709 34.208,318.488 33.200,318.084 33.200 C 317.915 33.200,317.517 32.840,317.200 32.400 C 316.883 31.960,316.343 31.600,316.000 31.600 C 315.657 31.600,315.117 31.240,314.800 30.800 C 314.483 30.360,313.903 30.000,313.512 30.000 C 313.120 30.000,312.800 29.820,312.800 29.600 C 312.800 29.380,312.440 29.200,312.000 29.200 C 311.560 29.200,311.199 29.065,311.198 28.900 C 311.197 28.735,309.802 28.185,308.098 27.678 C 306.394 27.171,304.447 26.586,303.772 26.378 C 302.180 25.888,290.163 25.967,288.600 26.477 M302.027 40.638 C 303.222 40.989,305.229 41.821,306.486 42.486 C 308.576 43.593,309.979 44.816,317.703 52.266 C 322.809 57.191,324.588 56.804,332.555 49.037 C 340.048 41.732,343.474 40.000,350.430 40.000 C 367.236 40.000,376.823 58.235,367.464 72.400 C 366.282 74.189,324.085 116.800,323.496 116.800 C 323.005 116.800,281.427 75.105,279.825 73.006 C 268.020 57.540,283.372 35.159,302.027 40.638 M344.600 299.681 C 338.023 301.974,338.854 310.350,346.347 317.287 C 352.689 323.158,363.789 327.919,377.800 330.776 C 379.120 331.046,380.955 331.431,381.877 331.633 C 382.800 331.835,383.970 332.001,384.477 332.002 C 384.985 332.004,385.916 332.274,386.546 332.602 C 388.916 333.839,393.200 331.264,393.200 328.604 C 393.200 328.052,393.380 327.600,393.600 327.600 C 393.820 327.600,394.000 326.790,394.000 325.800 C 394.000 324.810,393.820 324.000,393.600 324.000 C 393.380 324.000,393.200 323.556,393.200 323.013 C 393.200 321.843,390.915 319.200,389.903 319.200 C 389.516 319.200,389.200 319.011,389.200 318.780 C 389.200 318.504,388.389 318.452,386.833 318.628 C 385.428 318.787,383.600 318.702,382.333 318.420 C 364.352 314.410,355.124 310.003,352.973 304.400 C 351.442 300.413,348.025 298.487,344.600 299.681 " stroke="none" fill="#545c6c" fill-rule="evenodd"></path><path id="path1" d="M180.800 16.407 C 180.024 16.873,171.558 20.800,171.330 20.800 C 171.051 20.800,161.903 24.944,160.705 25.612 C 160.323 25.826,159.738 26.000,159.405 26.000 C 159.072 26.000,158.800 26.180,158.800 26.400 C 158.800 26.620,158.440 26.800,158.000 26.800 C 157.560 26.800,157.200 26.980,157.200 27.200 C 157.200 27.420,156.947 27.600,156.638 27.600 C 156.329 27.600,155.384 27.942,154.538 28.361 C 152.644 29.298,147.558 31.672,145.400 32.626 C 144.520 33.015,141.944 34.203,139.676 35.267 C 137.408 36.330,135.486 37.200,135.405 37.200 C 135.207 37.200,126.199 41.278,124.705 42.044 C 124.323 42.240,123.738 42.400,123.405 42.400 C 123.072 42.400,122.800 42.580,122.800 42.800 C 122.800 43.020,122.440 43.200,122.000 43.200 C 121.560 43.200,121.200 43.380,121.200 43.600 C 121.200 43.820,120.840 44.000,120.400 44.000 C 119.960 44.000,119.600 44.180,119.600 44.400 C 119.600 44.620,119.347 44.800,119.038 44.800 C 118.729 44.800,117.784 45.143,116.938 45.561 C 115.472 46.287,113.712 47.099,108.800 49.315 C 107.590 49.861,105.340 50.889,103.800 51.599 C 102.260 52.309,100.100 53.294,99.000 53.788 C 97.900 54.281,96.100 55.093,95.000 55.591 C 93.900 56.090,91.830 57.025,90.400 57.670 C 88.970 58.314,87.108 59.192,86.262 59.621 C 85.416 60.049,84.471 60.400,84.162 60.400 C 83.853 60.400,83.600 60.580,83.600 60.800 C 83.600 61.020,83.285 61.206,82.900 61.213 C 81.455 61.239,80.524 62.592,79.607 66.000 C 79.340 66.990,78.960 68.113,78.761 68.495 C 78.562 68.877,78.400 69.541,78.400 69.971 C 78.400 70.401,78.220 70.864,78.000 71.000 C 77.780 71.136,77.600 71.766,77.600 72.400 C 77.600 73.034,77.420 73.664,77.200 73.800 C 76.980 73.936,76.800 74.566,76.800 75.200 C 76.800 75.834,76.620 76.464,76.400 76.600 C 76.180 76.736,76.000 77.366,76.000 78.000 C 76.000 78.634,75.820 79.264,75.600 79.400 C 75.380 79.536,75.200 80.166,75.200 80.800 C 75.200 81.434,75.020 82.064,74.800 82.200 C 74.580 82.336,74.400 82.966,74.400 83.600 C 74.400 84.234,74.241 84.851,74.046 84.971 C 73.851 85.092,73.599 85.687,73.484 86.295 C 73.370 86.903,72.884 88.840,72.405 90.600 C 71.926 92.360,71.303 94.700,71.021 95.800 C 70.739 96.900,70.012 99.510,69.406 101.600 C 68.137 105.976,66.927 110.296,66.325 112.600 C 66.095 113.480,65.769 114.650,65.600 115.200 C 65.431 115.750,65.068 117.010,64.792 118.000 C 63.833 121.452,63.487 122.605,63.175 123.400 C 62.835 124.265,62.469 125.837,62.127 127.904 C 62.009 128.621,61.751 129.306,61.556 129.427 C 61.360 129.548,61.200 130.166,61.200 130.800 C 61.200 131.434,61.020 132.064,60.800 132.200 C 60.580 132.336,60.400 132.966,60.400 133.600 C 60.400 134.234,60.220 134.864,60.000 135.000 C 59.780 135.136,59.600 135.766,59.600 136.400 C 59.600 137.034,59.440 137.652,59.244 137.773 C 59.049 137.894,58.779 138.624,58.644 139.396 C 58.510 140.168,58.290 141.432,58.156 142.204 C 58.021 142.976,57.751 143.706,57.556 143.827 C 57.360 143.948,57.200 144.489,57.200 145.029 C 57.200 145.569,57.041 146.323,56.848 146.705 C 56.654 147.087,56.180 148.660,55.794 150.200 C 55.079 153.053,53.363 159.552,52.229 163.700 C 51.883 164.965,51.330 166.990,51.000 168.200 C 50.017 171.804,49.156 174.911,48.728 176.400 C 48.507 177.170,48.232 178.387,48.119 179.104 C 48.005 179.821,47.751 180.506,47.556 180.627 C 47.360 180.748,47.200 181.366,47.200 182.000 C 47.200 182.634,47.040 183.252,46.844 183.373 C 46.508 183.581,46.385 184.076,45.767 187.704 C 45.627 188.531,45.351 189.306,45.156 189.427 C 44.960 189.548,44.800 190.166,44.800 190.800 C 44.800 191.434,44.620 192.064,44.400 192.200 C 44.180 192.336,44.000 193.056,44.000 193.800 C 44.000 194.544,43.820 195.264,43.600 195.400 C 43.380 195.536,43.200 196.166,43.200 196.800 C 43.200 197.434,43.020 198.064,42.800 198.200 C 42.580 198.336,42.400 199.056,42.400 199.800 C 42.400 200.544,42.240 201.252,42.044 201.373 C 41.849 201.494,41.579 202.224,41.444 202.996 C 41.310 203.768,41.090 205.032,40.956 205.804 C 40.821 206.576,40.551 207.306,40.356 207.427 C 40.160 207.548,40.000 208.022,40.000 208.480 C 40.000 208.939,39.636 210.593,39.192 212.157 C 37.839 216.916,37.652 217.623,36.372 222.800 C 35.692 225.550,34.776 229.150,34.336 230.800 C 33.897 232.450,33.371 234.475,33.168 235.300 C 32.966 236.125,32.607 237.565,32.371 238.500 C 32.135 239.435,31.845 240.787,31.727 241.504 C 31.608 242.221,31.351 242.906,31.156 243.027 C 30.960 243.148,30.800 243.856,30.800 244.600 C 30.800 245.344,30.620 246.064,30.400 246.200 C 30.180 246.336,30.000 247.056,30.000 247.800 C 30.000 248.544,29.820 249.264,29.600 249.400 C 29.380 249.536,29.200 250.256,29.200 251.000 C 29.200 251.744,29.020 252.464,28.800 252.600 C 28.580 252.736,28.400 253.456,28.400 254.200 C 28.400 254.944,28.240 255.652,28.044 255.773 C 27.708 255.980,27.473 256.991,26.943 260.500 C 26.818 261.325,26.574 262.000,26.400 262.000 C 26.226 262.000,25.985 262.675,25.865 263.500 C 25.449 266.346,25.144 267.803,24.800 268.600 C 24.610 269.040,24.360 269.940,24.245 270.600 C 24.130 271.260,23.839 272.700,23.600 273.800 C 23.360 274.900,23.000 276.610,22.800 277.600 C 22.600 278.590,22.227 280.300,21.971 281.400 C 21.484 283.494,20.983 300.279,21.362 301.791 C 21.563 302.592,23.329 303.681,26.400 304.897 C 26.950 305.115,27.670 305.422,28.000 305.579 C 28.330 305.737,29.455 306.115,30.500 306.420 C 31.545 306.725,32.400 307.115,32.400 307.287 C 32.400 307.459,32.672 307.600,33.005 307.600 C 33.338 307.600,33.923 307.759,34.305 307.953 C 34.687 308.148,35.450 308.489,36.000 308.711 C 38.701 309.805,42.962 311.993,44.183 312.915 C 44.412 313.088,46.940 314.924,49.800 316.996 C 52.660 319.067,55.180 320.911,55.400 321.092 C 55.620 321.273,56.430 321.858,57.200 322.392 C 57.970 322.925,58.891 323.686,59.247 324.081 C 59.603 324.476,60.064 324.800,60.271 324.800 C 60.479 324.800,60.998 325.120,61.425 325.511 C 61.851 325.902,62.830 326.662,63.600 327.200 C 64.370 327.738,65.180 328.328,65.400 328.511 C 66.147 329.132,72.986 334.016,76.000 336.081 C 77.650 337.211,79.090 338.240,79.200 338.368 C 79.310 338.496,79.895 338.856,80.500 339.168 C 81.105 339.480,81.600 339.885,81.600 340.068 C 81.600 340.250,81.870 340.400,82.200 340.400 C 82.530 340.400,82.800 340.550,82.800 340.732 C 82.800 340.915,83.295 341.320,83.900 341.632 C 84.505 341.945,85.349 342.515,85.775 342.900 C 86.202 343.285,86.787 343.600,87.075 343.600 C 87.364 343.600,87.600 343.758,87.600 343.951 C 87.600 344.145,88.140 344.527,88.800 344.800 C 89.460 345.073,90.000 345.455,90.000 345.649 C 90.000 345.842,90.159 346.000,90.354 346.000 C 90.549 346.000,92.664 347.198,95.054 348.662 C 97.444 350.126,99.985 351.656,100.700 352.062 C 101.415 352.468,102.675 353.187,103.500 353.660 C 105.059 354.554,108.215 356.258,112.500 358.519 C 113.875 359.245,115.630 360.089,116.400 360.394 C 117.170 360.700,118.242 361.231,118.782 361.575 C 119.322 361.918,120.312 362.407,120.982 362.660 C 121.652 362.913,124.630 364.089,127.600 365.272 C 130.570 366.456,134.350 367.842,136.000 368.353 C 137.650 368.864,139.313 369.444,139.695 369.641 C 140.077 369.838,140.741 370.000,141.171 370.000 C 141.601 370.000,142.064 370.180,142.200 370.400 C 142.336 370.620,143.056 370.800,143.800 370.800 C 144.544 370.800,145.264 370.980,145.400 371.200 C 145.536 371.420,146.231 371.600,146.944 371.600 C 147.657 371.600,148.411 371.762,148.620 371.959 C 148.829 372.156,149.720 372.419,150.600 372.543 C 151.480 372.667,153.280 372.963,154.600 373.200 C 167.371 375.497,175.725 376.113,193.800 376.095 C 214.873 376.072,226.770 375.090,248.400 371.584 C 250.483 371.246,252.478 370.895,257.300 370.018 C 258.455 369.808,260.030 369.529,260.800 369.399 C 261.570 369.268,262.965 368.990,263.900 368.781 C 264.835 368.571,266.455 368.209,267.500 367.975 C 268.545 367.741,270.030 367.390,270.800 367.195 C 280.824 364.658,280.484 364.637,287.879 368.210 C 290.916 369.677,293.805 371.040,294.300 371.239 C 294.795 371.437,295.650 371.780,296.200 372.000 C 296.750 372.220,297.650 372.580,298.200 372.800 C 300.647 373.779,301.445 374.116,302.095 374.447 C 302.477 374.641,303.064 374.800,303.400 374.800 C 303.736 374.800,304.368 374.980,304.805 375.200 C 305.242 375.420,305.958 375.780,306.395 376.000 C 306.832 376.220,307.464 376.400,307.800 376.400 C 308.136 376.400,308.723 376.562,309.105 376.761 C 309.487 376.960,310.610 377.340,311.600 377.607 C 312.590 377.873,313.760 378.237,314.200 378.415 C 314.640 378.594,315.450 378.831,316.000 378.942 C 316.550 379.053,317.720 379.349,318.600 379.599 C 322.135 380.603,331.608 382.699,335.000 383.228 C 336.320 383.434,338.480 383.786,339.800 384.012 C 352.877 386.244,381.887 386.855,386.500 384.996 C 387.156 384.732,387.200 383.116,387.200 359.003 L 387.200 333.291 385.900 333.027 C 385.185 332.883,383.700 332.602,382.600 332.403 C 381.500 332.205,379.745 331.853,378.700 331.621 C 377.655 331.390,375.945 331.010,374.900 330.778 C 373.855 330.546,372.413 330.256,371.696 330.134 C 370.979 330.012,370.294 329.751,370.173 329.556 C 370.052 329.360,369.434 329.200,368.800 329.200 C 368.166 329.200,367.536 329.020,367.400 328.800 C 367.264 328.580,366.724 328.400,366.200 328.400 C 365.676 328.400,365.136 328.220,365.000 328.000 C 364.864 327.780,364.401 327.600,363.971 327.600 C 363.541 327.600,362.877 327.441,362.495 327.247 C 362.113 327.052,361.350 326.718,360.800 326.503 C 360.250 326.289,359.018 325.728,358.062 325.257 C 357.106 324.786,356.071 324.400,355.762 324.400 C 355.453 324.400,355.200 324.264,355.200 324.098 C 355.200 323.931,354.615 323.541,353.900 323.229 C 348.850 321.030,342.770 315.410,340.978 311.284 C 340.623 310.468,340.168 309.487,339.966 309.105 C 339.527 308.272,339.472 303.200,339.902 303.200 C 340.069 303.200,340.427 302.705,340.698 302.100 C 343.066 296.815,353.600 298.838,353.600 304.578 C 353.600 306.078,357.622 309.363,362.000 311.440 C 367.453 314.027,371.009 315.112,383.506 318.005 C 384.444 318.222,385.659 318.400,386.206 318.400 L 387.200 318.400 387.200 266.080 L 387.200 213.761 385.872 213.280 C 385.141 213.016,384.275 212.800,383.947 212.800 C 383.619 212.800,383.002 212.480,382.575 212.089 C 382.149 211.698,381.170 210.942,380.400 210.408 C 379.630 209.875,378.910 209.340,378.800 209.219 C 378.690 209.099,378.150 208.742,377.600 208.427 C 377.050 208.112,375.191 206.987,373.469 205.927 C 371.747 204.866,368.237 202.997,365.669 201.773 C 363.101 200.549,360.308 199.200,359.462 198.774 C 358.616 198.348,357.669 198.000,357.357 198.000 C 357.045 198.000,356.432 197.820,355.995 197.600 C 355.558 197.380,354.842 197.020,354.405 196.800 C 353.968 196.580,353.259 196.400,352.829 196.400 C 352.399 196.400,351.936 196.220,351.800 196.000 C 351.664 195.780,351.124 195.600,350.600 195.600 C 350.076 195.600,349.536 195.420,349.400 195.200 C 349.264 194.980,348.544 194.800,347.800 194.800 C 347.056 194.800,346.348 194.640,346.227 194.444 C 346.011 194.095,344.580 193.774,341.400 193.362 C 340.520 193.248,339.440 192.992,339.000 192.793 C 336.366 191.602,316.513 191.606,313.800 192.799 C 313.360 192.992,312.370 193.246,311.600 193.364 C 308.108 193.895,307.178 194.112,306.973 194.444 C 306.852 194.640,306.324 194.800,305.800 194.800 C 305.276 194.800,304.736 194.980,304.600 195.200 C 304.464 195.420,304.001 195.600,303.571 195.600 C 303.141 195.600,302.477 195.759,302.095 195.953 C 301.411 196.301,300.073 196.863,298.300 197.547 C 293.176 199.525,281.665 206.653,278.800 209.622 C 278.470 209.965,277.808 210.512,277.329 210.840 C 275.416 212.146,271.002 216.577,264.743 223.475 L 262.886 225.522 264.130 227.061 C 264.815 227.907,265.660 228.870,266.007 229.200 C 267.891 230.987,274.400 240.599,274.400 241.593 C 274.400 241.817,274.580 242.000,274.800 242.000 C 275.020 242.000,275.200 242.360,275.200 242.800 C 275.200 243.240,275.335 243.601,275.500 243.603 C 275.859 243.607,276.800 245.544,276.800 246.280 C 276.800 246.566,276.980 246.800,277.200 246.800 C 277.420 246.800,277.600 247.072,277.600 247.405 C 277.600 247.738,277.780 248.368,278.000 248.805 C 278.220 249.242,278.580 249.958,278.800 250.395 C 279.020 250.832,279.200 251.631,279.200 252.171 C 279.200 252.711,279.361 253.252,279.558 253.374 C 279.895 253.582,280.113 254.646,280.656 258.737 C 280.795 259.782,280.710 260.650,280.443 260.917 C 280.199 261.161,280.000 261.665,280.000 262.038 C 280.000 262.650,278.567 264.347,277.149 265.412 C 273.195 268.384,267.375 265.332,266.369 259.759 C 265.812 256.675,264.281 252.426,262.721 249.635 C 262.034 248.406,261.276 246.996,261.036 246.503 C 260.796 246.010,260.465 245.605,260.300 245.603 C 260.135 245.601,260.000 245.364,260.000 245.075 C 260.000 244.787,259.680 244.202,259.289 243.775 C 258.898 243.349,258.136 242.370,257.596 241.600 C 256.556 240.117,255.798 239.206,252.625 235.628 C 247.731 230.109,241.660 225.696,233.425 221.671 C 230.033 220.013,222.047 216.800,221.319 216.800 C 221.028 216.800,220.477 216.642,220.095 216.449 C 218.967 215.880,216.604 215.200,215.752 215.200 C 215.316 215.200,214.789 215.038,214.580 214.841 C 214.371 214.644,213.480 214.380,212.600 214.256 C 211.720 214.132,209.740 213.811,208.200 213.543 C 204.718 212.937,187.938 212.922,184.600 213.521 C 181.411 214.094,178.948 214.639,177.000 215.203 C 176.120 215.457,174.903 215.762,174.295 215.879 C 173.687 215.996,173.092 216.251,172.971 216.446 C 172.851 216.641,172.349 216.800,171.856 216.800 C 171.363 216.800,170.789 216.943,170.580 217.118 C 170.371 217.293,169.480 217.678,168.600 217.973 C 167.720 218.268,164.660 219.679,161.800 221.109 C 158.940 222.538,156.196 223.909,155.703 224.154 C 155.210 224.399,154.805 224.735,154.803 224.900 C 154.801 225.065,154.607 225.200,154.372 225.200 C 153.865 225.200,150.259 227.609,150.067 228.077 C 149.993 228.255,149.764 228.400,149.556 228.400 C 148.749 228.400,146.400 230.961,146.400 231.841 C 146.400 232.342,146.220 232.864,146.000 233.000 C 145.780 233.136,145.600 233.766,145.600 234.400 C 145.600 235.034,145.420 235.664,145.200 235.800 C 144.980 235.936,144.800 236.476,144.800 237.000 C 144.800 237.524,144.620 238.064,144.400 238.200 C 144.180 238.336,144.000 238.876,144.000 239.400 C 144.000 239.924,143.820 240.464,143.600 240.600 C 143.380 240.736,143.200 241.197,143.200 241.624 C 143.200 242.051,143.020 242.400,142.800 242.400 C 142.580 242.400,142.400 242.755,142.400 243.188 C 142.400 243.621,142.040 244.617,141.600 245.400 C 141.160 246.183,140.800 247.089,140.800 247.412 C 140.800 247.735,140.620 248.000,140.400 248.000 C 140.180 248.000,140.000 248.255,140.000 248.566 C 140.000 250.594,134.479 256.955,131.201 258.705 C 122.953 263.108,115.685 252.148,123.311 246.806 C 125.834 245.038,126.220 244.573,127.745 241.459 C 129.655 237.560,130.622 234.830,132.657 227.600 C 133.302 225.309,133.228 222.733,131.976 203.800 C 131.758 200.500,131.392 194.110,131.163 189.600 C 130.714 180.777,130.267 172.982,129.593 162.200 C 129.359 158.460,128.987 152.070,128.767 148.000 C 128.548 143.930,128.193 137.720,127.980 134.200 C 127.766 130.680,127.488 125.072,127.361 121.738 C 127.174 116.828,127.001 115.535,126.454 114.938 C 126.082 114.532,125.342 113.570,124.808 112.800 C 124.275 112.030,123.735 111.310,123.609 111.200 C 120.297 108.315,118.297 102.750,119.700 100.325 C 121.892 96.535,123.174 96.087,131.880 96.067 C 136.219 96.057,139.480 95.878,139.953 95.625 C 140.390 95.391,141.241 95.200,141.845 95.200 C 142.959 95.200,145.229 94.590,146.495 93.951 C 146.877 93.758,147.552 93.600,147.995 93.600 C 148.438 93.600,148.800 93.420,148.800 93.200 C 148.800 92.980,149.000 92.800,149.244 92.800 C 149.488 92.800,150.703 91.747,151.944 90.460 C 155.208 87.074,159.272 86.700,162.314 89.506 C 162.967 90.108,165.071 92.040,166.991 93.800 C 168.910 95.560,171.498 97.959,172.740 99.131 C 176.556 102.729,179.766 103.314,182.281 100.869 C 183.550 99.634,188.824 93.809,190.853 91.400 C 191.594 90.520,192.650 89.349,193.200 88.798 C 194.175 87.822,195.984 85.793,202.829 78.000 C 204.664 75.910,206.624 73.747,207.183 73.194 C 207.742 72.641,209.185 71.021,210.390 69.594 C 211.594 68.167,212.678 66.910,212.798 66.800 C 217.003 62.962,217.114 60.437,213.300 55.315 C 209.528 50.249,208.348 48.718,203.800 43.001 C 203.140 42.171,202.435 41.201,202.234 40.846 C 202.033 40.491,201.754 40.110,201.613 40.000 C 201.473 39.890,199.584 37.460,197.416 34.600 C 195.248 31.740,193.359 29.310,193.218 29.200 C 193.077 29.090,192.529 28.370,192.000 27.600 C 191.471 26.830,190.931 26.110,190.800 26.000 C 190.669 25.890,190.126 25.170,189.594 24.400 C 189.062 23.630,188.397 22.764,188.117 22.475 C 187.837 22.187,186.600 20.612,185.368 18.975 C 183.112 15.977,182.288 15.514,180.800 16.407 M97.443 293.839 C 98.324 294.411,99.554 295.682,100.176 296.665 C 102.199 299.864,106.479 304.905,111.187 309.637 C 115.148 313.619,117.416 315.662,122.408 319.748 C 131.132 326.889,146.080 334.257,161.000 338.770 C 164.059 339.695,172.393 341.315,178.000 342.075 C 183.081 342.763,203.702 342.765,208.800 342.077 C 214.932 341.250,220.002 340.436,223.000 339.797 C 230.057 338.293,234.778 341.765,233.223 347.317 C 232.080 351.401,229.286 352.545,216.000 354.371 C 214.350 354.598,211.380 355.010,209.400 355.287 C 204.522 355.968,182.229 355.964,177.400 355.280 C 167.933 353.940,162.462 352.824,155.300 350.772 C 154.585 350.568,153.415 350.238,152.700 350.040 C 142.635 347.255,124.027 337.786,116.065 331.399 C 115.699 331.105,113.854 329.636,111.964 328.133 C 103.068 321.057,93.639 310.967,88.815 303.359 C 84.815 297.052,91.323 289.871,97.443 293.839 " stroke="none" fill="#fbd37b" fill-rule="evenodd"></path><path id="path2" d="M293.200 40.682 C 292.210 40.775,291.229 41.019,291.020 41.225 C 290.811 41.431,290.333 41.600,289.958 41.600 C 287.226 41.600,280.420 47.395,278.768 51.128 C 278.458 51.828,278.069 52.400,277.902 52.400 C 277.736 52.400,277.600 52.839,277.600 53.376 C 277.600 53.913,277.420 54.464,277.200 54.600 C 276.980 54.736,276.800 55.546,276.800 56.400 C 276.800 57.254,276.620 58.064,276.400 58.200 C 276.180 58.336,276.000 59.506,276.000 60.800 C 276.000 62.094,276.180 63.264,276.400 63.400 C 276.620 63.536,276.800 64.346,276.800 65.200 C 276.800 66.054,276.980 66.864,277.200 67.000 C 277.420 67.136,277.600 67.597,277.600 68.024 C 277.600 68.451,277.780 68.800,278.000 68.800 C 278.220 68.800,278.400 69.083,278.400 69.428 C 278.400 69.773,278.959 70.869,279.643 71.862 C 280.814 73.565,322.937 116.000,323.456 116.000 C 323.589 116.000,333.273 106.415,344.975 94.700 C 366.265 73.387,369.200 70.103,369.200 67.602 C 369.200 67.187,369.356 66.751,369.547 66.633 C 370.698 65.921,370.761 57.464,369.636 54.600 C 367.792 49.907,362.484 43.200,360.613 43.200 C 360.276 43.200,360.000 43.020,360.000 42.800 C 360.000 42.580,359.640 42.400,359.200 42.400 C 358.760 42.400,358.400 42.240,358.400 42.045 C 358.400 40.806,345.304 40.061,344.564 41.259 C 344.448 41.446,343.913 41.600,343.376 41.600 C 342.839 41.600,342.400 41.780,342.400 42.000 C 342.400 42.220,342.040 42.400,341.600 42.400 C 341.160 42.400,340.800 42.580,340.800 42.800 C 340.800 43.020,340.575 43.201,340.300 43.201 C 339.621 43.203,337.105 45.387,331.954 50.447 C 324.178 58.086,322.472 58.037,314.200 49.943 C 308.516 44.380,307.169 43.201,306.500 43.200 C 306.225 43.200,306.000 43.020,306.000 42.800 C 306.000 42.580,305.640 42.400,305.200 42.400 C 304.760 42.400,304.400 42.220,304.400 42.000 C 304.400 41.780,303.986 41.600,303.480 41.600 C 302.974 41.600,302.389 41.440,302.180 41.244 C 301.726 40.818,295.740 40.443,293.200 40.682 " stroke="none" fill="#fb947b" fill-rule="evenodd"></path><path id="path3" d="M181.000 15.783 C 179.881 16.311,178.034 17.162,171.000 20.395 C 169.460 21.103,167.770 21.848,167.245 22.052 C 166.719 22.256,166.382 22.515,166.495 22.628 C 166.608 22.742,167.702 22.377,168.925 21.817 C 170.148 21.258,171.229 20.800,171.326 20.800 C 171.530 20.800,179.850 16.960,180.895 16.383 C 182.383 15.562,183.122 15.991,185.368 18.975 C 186.600 20.612,187.837 22.187,188.117 22.475 C 188.397 22.764,189.062 23.630,189.594 24.400 C 190.126 25.170,190.669 25.890,190.800 26.000 C 190.931 26.110,191.471 26.830,192.000 27.600 C 192.529 28.370,193.077 29.090,193.218 29.200 C 193.359 29.310,195.248 31.740,197.416 34.600 C 199.584 37.460,201.473 39.890,201.613 40.000 C 201.754 40.110,202.033 40.491,202.234 40.846 C 202.435 41.201,203.140 42.171,203.800 43.001 C 218.013 60.871,218.342 61.741,212.798 66.800 C 212.678 66.910,211.594 68.167,210.390 69.594 C 209.185 71.021,207.742 72.641,207.183 73.194 C 206.624 73.747,204.664 75.910,202.829 78.000 C 195.984 85.793,194.175 87.822,193.200 88.798 C 192.650 89.349,191.594 90.520,190.853 91.400 C 188.824 93.809,183.550 99.634,182.281 100.869 C 179.766 103.314,176.556 102.729,172.740 99.131 C 171.498 97.959,168.910 95.560,166.991 93.800 C 165.071 92.040,162.967 90.108,162.314 89.506 C 159.272 86.700,155.208 87.074,151.944 90.460 C 150.703 91.747,149.488 92.800,149.244 92.800 C 149.000 92.800,148.800 92.980,148.800 93.200 C 148.800 94.218,149.768 93.486,152.970 90.049 C 154.858 88.022,158.033 87.568,160.663 88.947 C 161.137 89.196,164.538 92.174,168.221 95.565 C 179.677 106.111,178.111 106.455,192.601 90.200 C 198.092 84.040,203.151 78.370,203.843 77.600 C 220.107 59.501,219.830 62.902,206.450 45.600 C 204.663 43.290,201.687 39.420,199.836 37.000 C 197.985 34.580,193.838 29.180,190.620 25.000 C 187.403 20.820,184.391 16.905,183.926 16.300 C 182.964 15.049,182.670 14.997,181.000 15.783 M162.200 24.400 C 160.440 25.246,159.197 25.952,159.439 25.969 C 159.680 25.986,160.400 25.747,161.039 25.438 C 161.677 25.129,163.055 24.495,164.100 24.028 C 165.145 23.562,166.000 23.095,166.000 22.990 C 166.000 22.638,165.413 22.856,162.200 24.400 M154.386 27.931 C 152.253 28.961,151.203 29.444,144.200 32.620 C 139.416 34.789,138.123 35.380,134.400 37.097 C 132.530 37.959,129.693 39.263,128.095 39.994 C 126.497 40.725,125.281 41.414,125.392 41.526 C 125.504 41.637,126.361 41.347,127.298 40.882 C 129.402 39.835,135.205 37.200,135.405 37.200 C 135.486 37.200,137.408 36.330,139.676 35.267 C 141.944 34.203,144.520 33.015,145.400 32.626 C 147.558 31.672,152.644 29.298,154.538 28.361 C 155.384 27.942,156.329 27.600,156.638 27.600 C 156.947 27.600,157.200 27.420,157.200 27.200 C 157.200 26.639,156.896 26.718,154.386 27.931 M114.400 46.224 C 110.770 47.876,107.260 49.477,106.600 49.783 C 105.940 50.088,103.960 50.993,102.200 51.792 C 95.168 54.986,92.747 56.182,93.086 56.295 C 93.281 56.360,94.741 55.780,96.331 55.007 C 97.920 54.233,99.290 53.600,99.374 53.600 C 99.457 53.600,101.208 52.815,103.263 51.855 C 105.318 50.895,107.900 49.708,109.000 49.217 C 112.738 47.549,115.396 46.325,116.938 45.561 C 117.784 45.143,118.729 44.800,119.038 44.800 C 119.347 44.800,119.600 44.620,119.600 44.400 C 119.600 44.180,119.960 44.000,120.400 44.000 C 120.840 44.000,121.200 43.820,121.200 43.600 C 121.200 43.082,121.909 42.808,114.400 46.224 M87.800 58.391 C 85.600 59.458,84.008 60.346,84.262 60.365 C 84.516 60.384,85.416 60.045,86.262 59.611 C 87.108 59.177,88.835 58.361,90.100 57.799 C 91.365 57.237,92.400 56.692,92.400 56.588 C 92.400 56.221,91.754 56.474,87.800 58.391 M81.590 61.300 C 80.859 61.795,80.126 62.650,79.961 63.200 C 79.796 63.750,79.128 65.910,78.477 68.000 C 76.911 73.031,76.667 74.130,77.184 73.810 C 77.413 73.668,77.600 73.034,77.600 72.400 C 77.600 71.766,77.780 71.136,78.000 71.000 C 78.220 70.864,78.400 70.401,78.400 69.971 C 78.400 69.541,78.562 68.877,78.761 68.495 C 78.960 68.113,79.340 66.990,79.607 66.000 C 80.524 62.592,81.455 61.239,82.900 61.213 C 83.285 61.206,83.600 61.020,83.600 60.800 C 83.600 60.180,83.036 60.320,81.590 61.300 M76.262 75.347 C 76.097 75.978,76.056 76.589,76.171 76.704 C 76.493 77.027,76.887 75.738,76.715 74.923 C 76.603 74.390,76.484 74.501,76.262 75.347 M75.462 78.147 C 75.297 78.778,75.256 79.389,75.371 79.504 C 75.693 79.827,76.087 78.538,75.915 77.723 C 75.803 77.190,75.684 77.301,75.462 78.147 M74.662 80.947 C 74.497 81.578,74.456 82.189,74.571 82.304 C 74.893 82.627,75.287 81.338,75.115 80.523 C 75.003 79.990,74.884 80.101,74.662 80.947 M73.862 83.747 C 73.697 84.378,73.656 84.989,73.771 85.104 C 74.093 85.427,74.487 84.138,74.315 83.323 C 74.203 82.790,74.084 82.901,73.862 83.747 M73.029 86.629 C 72.881 87.215,72.851 87.784,72.961 87.894 C 73.071 88.004,73.281 87.615,73.429 87.029 C 73.576 86.442,73.606 85.873,73.496 85.763 C 73.386 85.653,73.176 86.042,73.029 86.629 M71.446 92.448 C 70.831 94.732,70.184 97.050,70.010 97.600 C 69.835 98.150,69.471 99.410,69.200 100.400 C 68.929 101.390,68.569 102.650,68.400 103.200 C 68.231 103.750,67.893 104.920,67.649 105.800 C 67.404 106.680,66.147 111.180,64.855 115.800 C 59.929 133.412,60.126 132.617,60.800 132.200 C 61.020 132.064,61.200 131.434,61.200 130.800 C 61.200 130.166,61.360 129.548,61.556 129.427 C 61.751 129.306,62.009 128.621,62.127 127.904 C 62.476 125.798,62.838 124.256,63.185 123.400 C 63.363 122.960,63.734 121.790,64.008 120.800 C 64.583 118.730,65.181 116.639,65.609 115.200 C 65.773 114.650,66.095 113.480,66.325 112.600 C 66.927 110.296,68.137 105.976,69.406 101.600 C 70.012 99.510,70.736 96.900,71.014 95.800 C 71.292 94.700,71.813 92.736,72.172 91.435 C 72.530 90.135,72.766 88.897,72.695 88.684 C 72.624 88.471,72.062 90.165,71.446 92.448 M146.600 94.000 C 146.285 94.509,147.212 94.509,148.000 94.000 C 148.488 93.685,148.436 93.611,147.724 93.606 C 147.242 93.603,146.736 93.780,146.600 94.000 M144.000 94.800 C 143.503 95.121,143.538 95.188,144.200 95.188 C 144.640 95.188,145.270 95.013,145.600 94.800 C 146.097 94.479,146.062 94.412,145.400 94.412 C 144.960 94.412,144.330 94.587,144.000 94.800 M140.000 95.600 C 139.246 96.087,140.878 96.087,142.400 95.600 C 143.316 95.307,143.283 95.277,142.000 95.246 C 141.230 95.227,140.330 95.387,140.000 95.600 M123.129 96.885 C 117.909 99.994,118.125 106.423,123.609 111.200 C 123.735 111.310,124.275 112.030,124.808 112.800 C 125.956 114.457,127.200 115.857,127.200 115.492 C 127.200 115.349,125.753 113.341,123.985 111.028 C 119.387 105.016,118.883 103.505,120.404 100.296 C 121.854 97.235,123.382 96.595,129.000 96.698 C 131.640 96.747,134.790 96.641,136.000 96.463 C 137.638 96.222,136.446 96.134,131.329 96.117 C 125.172 96.096,124.320 96.176,123.129 96.885 M127.309 122.200 C 127.301 124.620,127.432 127.140,127.600 127.800 C 128.017 129.437,128.029 125.833,127.622 121.200 L 127.324 117.800 127.309 122.200 M128.109 135.400 C 128.101 137.820,128.232 140.340,128.400 141.000 C 128.817 142.637,128.829 139.033,128.422 134.400 L 128.124 131.000 128.109 135.400 M59.862 133.747 C 59.697 134.378,59.656 134.989,59.771 135.104 C 60.093 135.427,60.487 134.138,60.315 133.323 C 60.203 132.790,60.084 132.901,59.862 133.747 M59.062 136.547 C 58.897 137.178,58.856 137.789,58.971 137.904 C 59.293 138.227,59.687 136.938,59.515 136.123 C 59.403 135.590,59.284 135.701,59.062 136.547 M58.449 138.800 C 58.416 139.130,58.289 139.850,58.167 140.400 C 57.975 141.264,58.007 141.303,58.399 140.688 C 58.648 140.297,58.775 139.577,58.681 139.088 C 58.586 138.600,58.482 138.470,58.449 138.800 M57.462 142.547 C 57.297 143.178,57.256 143.789,57.371 143.904 C 57.693 144.227,58.087 142.938,57.915 142.123 C 57.803 141.590,57.684 141.701,57.462 142.547 M56.662 145.347 C 56.497 145.978,56.456 146.589,56.571 146.704 C 56.893 147.027,57.287 145.738,57.115 144.923 C 57.003 144.390,56.884 144.501,56.662 145.347 M128.907 148.600 C 128.896 151.020,129.021 154.080,129.185 155.400 L 129.482 157.800 129.499 154.600 C 129.508 152.840,129.383 149.780,129.221 147.800 L 128.927 144.200 128.907 148.600 M55.778 148.653 C 55.635 149.284,55.165 151.027,54.734 152.526 C 54.303 154.025,54.014 155.443,54.093 155.678 C 54.171 155.912,54.745 154.274,55.370 152.038 C 55.994 149.801,56.400 147.867,56.272 147.739 C 56.144 147.611,55.922 148.022,55.778 148.653 M53.416 157.400 C 53.260 158.060,53.039 158.870,52.924 159.200 C 52.809 159.530,52.361 161.150,51.930 162.800 C 51.498 164.450,50.990 166.340,50.800 167.000 C 50.610 167.660,50.098 169.550,49.661 171.200 C 49.223 172.850,48.516 175.460,48.088 177.000 C 47.659 178.540,46.828 181.600,46.240 183.800 C 45.652 186.000,45.013 188.340,44.821 189.000 C 44.095 191.494,43.962 192.471,44.384 192.210 C 44.613 192.068,44.800 191.434,44.800 190.800 C 44.800 190.166,44.960 189.548,45.156 189.427 C 45.351 189.306,45.627 188.531,45.767 187.704 C 46.385 184.076,46.508 183.581,46.844 183.373 C 47.040 183.252,47.200 182.634,47.200 182.000 C 47.200 181.366,47.380 180.736,47.600 180.600 C 47.820 180.464,48.000 179.922,48.000 179.395 C 48.000 178.869,48.161 178.024,48.358 177.519 C 48.555 177.013,48.912 175.880,49.150 175.000 C 50.101 171.490,51.237 167.326,51.605 166.000 C 51.819 165.230,52.459 162.932,53.028 160.892 C 53.596 158.853,53.980 156.963,53.880 156.692 C 53.780 156.422,53.571 156.740,53.416 157.400 M129.708 162.400 C 129.696 164.490,129.821 167.280,129.985 168.600 L 130.282 171.000 130.289 167.800 C 130.292 166.040,130.168 163.250,130.012 161.600 L 129.729 158.600 129.708 162.400 M130.502 176.000 C 130.490 178.090,130.616 180.790,130.783 182.000 C 131.209 185.083,131.235 179.110,130.813 175.000 L 130.526 172.200 130.502 176.000 M131.444 192.600 C 131.546 196.120,131.794 201.340,131.995 204.200 C 133.449 224.937,133.448 225.010,131.593 231.338 C 131.345 232.183,131.225 232.958,131.327 233.060 C 131.428 233.162,131.820 232.200,132.197 230.922 C 132.574 229.645,133.044 228.078,133.241 227.440 C 133.703 225.948,133.696 222.136,133.219 215.059 C 133.009 211.946,132.647 206.250,132.415 202.400 C 131.601 188.895,131.227 185.118,131.444 192.600 M324.900 191.487 C 325.505 191.578,326.495 191.578,327.100 191.487 C 327.705 191.395,327.210 191.320,326.000 191.320 C 324.790 191.320,324.295 191.395,324.900 191.487 M316.000 192.000 C 314.745 192.264,314.828 192.297,316.800 192.319 C 318.010 192.333,319.360 192.189,319.800 192.000 C 320.819 191.562,318.081 191.562,316.000 192.000 M332.800 192.000 C 333.130 192.213,334.480 192.368,335.800 192.344 L 338.200 192.300 336.400 191.980 C 333.743 191.507,332.052 191.516,332.800 192.000 M311.800 192.800 L 310.600 193.105 312.076 193.153 C 312.888 193.179,313.664 193.020,313.800 192.800 C 314.077 192.351,313.563 192.351,311.800 192.800 M339.000 192.800 C 339.136 193.020,340.002 193.179,340.924 193.153 C 342.507 193.108,342.533 193.088,341.400 192.800 C 339.625 192.348,338.721 192.348,339.000 192.800 M43.654 193.200 C 43.619 193.530,43.477 194.250,43.340 194.800 C 43.148 195.572,43.202 195.697,43.577 195.349 C 43.844 195.101,43.985 194.381,43.891 193.749 C 43.797 193.117,43.690 192.870,43.654 193.200 M304.800 194.602 C 302.490 195.358,300.240 196.139,299.800 196.338 C 285.638 202.725,275.358 210.512,264.495 223.084 L 262.391 225.519 263.984 227.460 C 267.480 231.716,271.766 237.513,272.899 239.518 C 273.558 240.683,274.178 241.556,274.276 241.457 C 274.692 241.042,267.939 231.033,266.007 229.200 C 265.660 228.870,264.815 227.907,264.130 227.061 L 262.886 225.522 264.743 223.475 C 271.002 216.577,275.416 212.146,277.329 210.840 C 277.808 210.512,278.470 209.965,278.800 209.622 C 281.646 206.673,293.500 199.327,298.200 197.601 C 299.402 197.159,301.312 196.351,302.095 195.953 C 302.477 195.759,303.141 195.600,303.571 195.600 C 304.001 195.600,304.464 195.420,304.600 195.200 C 304.736 194.980,305.276 194.800,305.800 194.800 C 306.324 194.800,306.864 194.620,307.000 194.400 C 307.136 194.180,307.732 193.997,308.324 193.994 C 308.916 193.991,309.670 193.813,310.000 193.600 C 311.247 192.794,308.997 193.228,304.800 194.602 M343.200 193.600 C 343.530 193.813,344.284 193.991,344.876 193.994 C 345.468 193.997,346.064 194.180,346.200 194.400 C 346.336 194.620,347.056 194.800,347.800 194.800 C 348.544 194.800,349.264 194.980,349.400 195.200 C 349.536 195.420,350.076 195.600,350.600 195.600 C 351.124 195.600,351.664 195.780,351.800 196.000 C 351.936 196.220,352.399 196.400,352.829 196.400 C 353.259 196.400,353.968 196.580,354.405 196.800 C 354.842 197.020,355.558 197.380,355.995 197.600 C 356.432 197.820,357.045 198.000,357.357 198.000 C 357.669 198.000,358.616 198.348,359.462 198.774 C 360.308 199.200,363.075 200.537,365.611 201.745 C 369.921 203.798,374.308 206.262,376.923 208.099 C 377.541 208.532,378.131 208.802,378.235 208.698 C 378.809 208.124,368.272 202.215,360.300 198.642 C 354.808 196.180,340.802 192.050,343.200 193.600 M42.662 196.947 C 42.497 197.578,42.456 198.189,42.571 198.304 C 42.893 198.627,43.287 197.338,43.115 196.523 C 43.003 195.990,42.884 196.101,42.662 196.947 M42.054 199.200 C 42.019 199.530,41.877 200.250,41.740 200.800 C 41.548 201.572,41.602 201.697,41.977 201.349 C 42.244 201.101,42.385 200.381,42.291 199.749 C 42.197 199.117,42.090 198.870,42.054 199.200 M41.022 203.129 C 40.858 203.859,40.822 204.556,40.942 204.676 C 41.243 204.977,41.720 202.956,41.499 202.317 C 41.401 202.033,41.186 202.398,41.022 203.129 M40.262 206.147 C 40.097 206.778,40.056 207.389,40.171 207.504 C 40.493 207.827,40.887 206.538,40.715 205.723 C 40.603 205.190,40.484 205.301,40.262 206.147 M38.831 211.440 C 37.698 215.787,37.403 217.392,37.956 216.200 C 38.612 214.787,40.096 208.889,39.925 208.376 C 39.834 208.103,39.342 209.482,38.831 211.440 M378.800 209.094 C 378.800 209.277,379.295 209.721,379.900 210.079 C 380.505 210.437,381.521 211.180,382.159 211.729 C 382.796 212.277,383.786 212.816,384.359 212.926 C 384.931 213.035,385.833 213.260,386.363 213.426 C 387.031 213.634,387.241 213.589,387.049 213.279 C 386.896 213.032,386.103 212.710,385.286 212.563 C 384.469 212.416,382.675 211.500,381.300 210.528 C 379.925 209.555,378.800 208.910,378.800 209.094 M190.000 212.408 C 183.322 212.903,177.275 214.246,170.200 216.806 C 164.170 218.988,153.651 224.400,155.440 224.400 C 155.660 224.400,156.011 224.230,156.220 224.022 C 156.782 223.462,166.743 218.595,168.600 217.973 C 169.480 217.678,170.371 217.293,170.580 217.118 C 170.789 216.943,171.363 216.800,171.856 216.800 C 172.349 216.800,172.851 216.641,172.971 216.446 C 173.092 216.251,173.687 215.996,174.295 215.879 C 174.903 215.762,176.120 215.457,177.000 215.203 C 178.948 214.639,181.411 214.094,184.600 213.521 C 187.938 212.922,204.718 212.937,208.200 213.543 C 209.740 213.811,211.720 214.132,212.600 214.256 C 213.480 214.380,214.371 214.644,214.580 214.841 C 214.789 215.038,215.316 215.200,215.752 215.200 C 216.604 215.200,218.967 215.880,220.095 216.449 C 220.477 216.642,221.028 216.800,221.319 216.800 C 222.059 216.800,230.509 220.203,233.348 221.645 C 234.640 222.300,235.792 222.742,235.908 222.625 C 236.167 222.366,228.892 218.941,224.800 217.394 C 213.880 213.269,201.784 211.536,190.000 212.408 M36.892 218.800 C 36.657 219.790,35.922 222.670,35.259 225.200 C 32.960 233.974,26.802 258.602,26.807 259.000 C 26.819 259.936,27.588 258.101,27.594 257.124 C 27.597 256.532,27.780 255.936,28.000 255.800 C 28.220 255.664,28.400 254.944,28.400 254.200 C 28.400 253.456,28.580 252.736,28.800 252.600 C 29.020 252.464,29.200 251.744,29.200 251.000 C 29.200 250.256,29.380 249.536,29.600 249.400 C 29.820 249.264,30.000 248.544,30.000 247.800 C 30.000 247.056,30.180 246.336,30.400 246.200 C 30.620 246.064,30.800 245.344,30.800 244.600 C 30.800 243.856,30.960 243.148,31.156 243.027 C 31.351 242.906,31.608 242.221,31.727 241.504 C 31.988 239.925,32.884 236.248,34.336 230.800 C 36.467 222.810,37.628 217.886,37.481 217.464 C 37.393 217.209,37.127 217.810,36.892 218.800 M236.400 222.983 C 236.400 223.084,237.255 223.659,238.300 224.261 C 244.378 227.762,248.668 231.166,252.625 235.628 C 255.798 239.206,256.556 240.117,257.596 241.600 C 258.136 242.370,258.898 243.349,259.289 243.775 C 259.680 244.202,260.000 244.787,260.000 245.075 C 260.000 245.364,260.135 245.601,260.300 245.603 C 260.465 245.605,260.796 246.010,261.036 246.503 C 261.276 246.996,262.034 248.406,262.721 249.635 C 264.281 252.426,265.812 256.675,266.369 259.759 C 267.375 265.332,273.195 268.384,277.149 265.412 C 278.567 264.347,280.000 262.650,280.000 262.038 C 280.000 261.665,280.199 261.161,280.443 260.917 C 280.867 260.493,280.827 259.684,280.170 255.297 C 280.030 254.361,279.726 253.478,279.495 253.335 C 279.220 253.165,279.166 253.410,279.338 254.037 C 280.074 256.712,280.102 260.665,279.396 262.151 C 276.478 268.302,267.987 266.610,266.819 259.644 C 265.246 250.262,255.030 235.163,245.818 228.601 C 241.412 225.463,236.400 222.473,236.400 222.983 M151.169 226.649 C 147.320 229.218,146.000 230.335,146.000 231.019 C 146.000 231.438,143.100 240.565,142.542 241.900 C 142.427 242.175,142.528 242.400,142.767 242.400 C 143.005 242.400,143.200 242.051,143.200 241.624 C 143.200 241.197,143.380 240.736,143.600 240.600 C 143.820 240.464,144.000 239.924,144.000 239.400 C 144.000 238.876,144.180 238.336,144.400 238.200 C 144.620 238.064,144.800 237.524,144.800 237.000 C 144.800 236.476,144.980 235.936,145.200 235.800 C 145.420 235.664,145.600 235.034,145.600 234.400 C 145.600 233.766,145.780 233.136,146.000 233.000 C 146.220 232.864,146.400 232.342,146.400 231.841 C 146.400 230.961,148.749 228.400,149.556 228.400 C 149.764 228.400,149.993 228.255,150.067 228.077 C 150.259 227.609,153.865 225.200,154.372 225.200 C 154.607 225.200,154.800 225.020,154.800 224.800 C 154.800 224.219,154.841 224.198,151.169 226.649 M130.258 235.304 C 129.896 236.252,129.600 237.173,129.600 237.352 C 129.600 238.000,126.351 244.310,125.684 244.958 C 125.308 245.324,124.240 246.155,123.311 246.806 C 115.646 252.175,122.902 263.029,131.262 258.700 C 134.342 257.105,140.802 249.469,139.865 248.532 C 139.730 248.396,139.494 248.626,139.341 249.043 C 135.606 259.208,123.321 262.572,120.789 254.122 C 120.025 251.570,122.274 246.800,124.243 246.800 C 125.485 246.800,128.579 241.594,130.383 236.470 C 131.384 233.626,131.278 232.634,130.258 235.304 M141.486 244.417 C 141.114 245.366,140.881 246.215,140.970 246.303 C 141.239 246.573,142.488 243.665,142.320 243.161 C 142.234 242.903,141.859 243.468,141.486 244.417 M275.878 244.995 C 276.244 245.762,276.621 246.313,276.715 246.218 C 276.960 245.974,275.866 243.600,275.509 243.600 C 275.346 243.600,275.512 244.228,275.878 244.995 M277.935 249.803 C 278.521 251.454,279.063 252.511,279.139 252.150 C 279.266 251.557,278.977 250.717,277.953 248.705 C 277.759 248.323,277.600 247.738,277.600 247.405 C 277.600 247.072,277.436 246.800,277.235 246.800 C 277.035 246.800,277.350 248.151,277.935 249.803 M26.276 260.547 C 26.103 261.178,26.060 261.793,26.181 261.914 C 26.598 262.331,26.860 261.669,26.725 260.537 L 26.590 259.400 26.276 260.547 M25.453 263.741 C 25.286 264.588,25.241 265.375,25.355 265.488 C 25.658 265.791,26.097 263.785,25.914 262.932 C 25.820 262.490,25.637 262.811,25.453 263.741 M24.854 266.400 C 24.819 266.730,24.677 267.450,24.540 268.000 C 24.348 268.772,24.402 268.897,24.777 268.549 C 25.044 268.301,25.185 267.581,25.091 266.949 C 24.997 266.317,24.890 266.070,24.854 266.400 M23.822 270.729 C 23.658 271.459,23.622 272.156,23.742 272.276 C 24.043 272.577,24.520 270.556,24.299 269.917 C 24.201 269.633,23.986 269.998,23.822 270.729 M23.053 274.141 C 22.886 274.988,22.841 275.775,22.955 275.888 C 23.258 276.191,23.697 274.185,23.514 273.332 C 23.420 272.890,23.237 273.211,23.053 274.141 M22.303 277.600 C 21.831 279.217,21.915 280.389,22.438 279.490 C 22.665 279.099,22.793 278.289,22.723 277.690 L 22.595 276.600 22.303 277.600 M21.382 282.182 C 21.229 283.202,21.202 284.135,21.322 284.255 C 21.442 284.375,21.665 283.639,21.818 282.618 C 21.971 281.598,21.998 280.665,21.878 280.545 C 21.758 280.425,21.535 281.161,21.382 282.182 M20.974 293.729 C 20.999 302.420,21.038 302.880,21.800 303.327 C 22.591 303.792,32.267 307.777,33.738 308.244 C 34.238 308.402,34.406 308.333,34.226 308.043 C 34.076 307.799,33.603 307.600,33.176 307.600 C 32.749 307.600,32.400 307.459,32.400 307.287 C 32.400 307.115,31.545 306.725,30.500 306.420 C 29.455 306.115,28.330 305.737,28.000 305.579 C 27.670 305.422,26.950 305.115,26.400 304.897 C 25.850 304.680,24.545 304.090,23.500 303.588 C 22.455 303.085,21.564 302.658,21.519 302.637 C 21.475 302.617,21.328 298.550,21.193 293.600 L 20.948 284.600 20.974 293.729 M90.903 293.500 C 87.423 295.397,86.507 299.720,88.815 303.359 C 93.639 310.967,103.068 321.057,111.964 328.133 C 113.854 329.636,115.699 331.105,116.065 331.399 C 124.027 337.786,142.635 347.255,152.700 350.040 C 153.415 350.238,154.585 350.568,155.300 350.772 C 162.462 352.824,167.933 353.940,177.400 355.280 C 182.229 355.964,204.522 355.968,209.400 355.287 C 211.380 355.010,214.350 354.598,216.000 354.371 C 229.286 352.545,232.080 351.401,233.223 347.317 C 234.778 341.765,230.057 338.293,223.000 339.797 C 220.002 340.436,214.932 341.250,208.800 342.077 C 203.702 342.765,183.081 342.763,178.000 342.075 C 172.393 341.315,164.059 339.695,161.000 338.770 C 146.080 334.257,131.132 326.889,122.408 319.748 C 117.416 315.662,115.148 313.619,111.187 309.637 C 106.479 304.905,102.199 299.864,100.176 296.665 C 97.958 293.160,94.004 291.810,90.903 293.500 M343.800 299.360 C 342.361 299.995,340.400 301.894,340.400 302.655 C 340.400 302.955,340.220 303.200,340.000 303.200 C 339.497 303.200,339.468 308.161,339.966 309.105 C 340.168 309.487,340.623 310.468,340.978 311.284 C 342.590 314.996,351.918 323.816,353.042 322.692 C 353.136 322.597,351.998 321.734,350.513 320.774 C 342.521 315.605,338.185 307.539,340.849 302.798 C 343.903 297.365,351.794 298.514,353.081 304.579 C 353.315 305.678,356.687 309.446,357.083 309.051 C 357.181 308.952,356.438 308.071,355.431 307.092 C 354.424 306.114,353.600 304.988,353.600 304.592 C 353.600 300.789,347.702 297.640,343.800 299.360 M39.000 310.601 C 41.420 311.798,45.020 313.984,47.000 315.460 C 48.980 316.936,52.580 319.623,55.000 321.430 C 57.420 323.237,59.466 324.653,59.548 324.577 C 59.752 324.384,58.855 323.552,57.200 322.398 C 56.430 321.861,55.620 321.273,55.400 321.092 C 55.180 320.911,52.660 319.067,49.800 316.996 C 46.940 314.924,44.412 313.088,44.183 312.915 C 43.337 312.276,41.341 311.176,39.200 310.167 C 37.990 309.597,36.687 308.966,36.305 308.765 C 35.923 308.564,35.383 308.406,35.105 308.413 C 34.827 308.420,36.580 309.404,39.000 310.601 M358.200 309.845 C 359.392 310.767,362.851 312.483,363.072 312.261 C 363.178 312.155,362.575 311.751,361.732 311.363 C 360.890 310.975,359.722 310.330,359.138 309.929 C 357.851 309.045,357.077 308.975,358.200 309.845 M364.447 313.001 C 366.427 314.077,374.692 316.618,379.400 317.598 C 380.720 317.873,382.430 318.254,383.200 318.446 C 383.970 318.638,385.140 318.782,385.800 318.766 C 387.208 318.732,386.999 318.652,383.800 318.004 C 376.092 316.441,365.998 313.612,365.020 312.739 C 364.811 312.553,364.361 312.407,364.020 312.416 C 363.646 312.426,363.816 312.658,364.447 313.001 M356.800 324.581 C 356.800 324.749,358.419 325.521,360.800 326.487 C 361.350 326.711,362.113 327.052,362.495 327.247 C 362.877 327.441,363.541 327.600,363.971 327.600 C 364.401 327.600,364.864 327.780,365.000 328.000 C 365.136 328.220,365.676 328.400,366.200 328.400 C 366.724 328.400,367.264 328.580,367.400 328.800 C 367.536 329.020,368.166 329.200,368.800 329.200 C 369.434 329.200,370.052 329.360,370.173 329.556 C 370.294 329.751,370.979 330.012,371.696 330.134 C 372.413 330.256,373.855 330.546,374.900 330.778 C 375.945 331.010,377.655 331.390,378.700 331.621 C 379.745 331.853,381.500 332.200,382.600 332.394 C 383.700 332.587,385.122 332.873,385.759 333.030 C 386.536 333.222,386.832 333.176,386.657 332.893 C 386.514 332.660,385.632 332.352,384.698 332.209 C 376.162 330.897,364.848 327.828,358.985 325.235 C 356.985 324.350,356.800 324.295,356.800 324.581 M60.000 324.954 C 60.000 325.332,76.437 337.120,83.600 341.878 C 90.122 346.211,90.000 346.139,90.000 345.672 C 90.000 345.466,89.460 345.073,88.800 344.800 C 88.140 344.527,87.600 344.145,87.600 343.951 C 87.600 343.758,87.364 343.600,87.075 343.600 C 86.787 343.600,86.202 343.285,85.775 342.900 C 85.349 342.515,84.505 341.945,83.900 341.632 C 83.295 341.320,82.800 340.915,82.800 340.732 C 82.800 340.550,82.530 340.400,82.200 340.400 C 81.870 340.400,81.600 340.250,81.600 340.068 C 81.600 339.885,81.105 339.480,80.500 339.168 C 79.895 338.856,79.310 338.496,79.200 338.368 C 79.090 338.240,77.650 337.211,76.000 336.081 C 72.986 334.016,66.147 329.132,65.400 328.511 C 65.180 328.328,64.370 327.738,63.600 327.200 C 62.830 326.662,61.851 325.902,61.425 325.511 C 60.713 324.858,60.000 324.580,60.000 324.954 M91.200 346.789 C 92.050 347.445,96.707 350.320,99.400 351.852 C 106.961 356.152,109.822 357.699,114.171 359.843 C 117.016 361.244,119.406 362.327,119.484 362.249 C 119.690 362.043,118.014 361.034,116.400 360.394 C 115.630 360.089,113.830 359.221,112.400 358.466 C 108.071 356.182,105.080 354.566,103.500 353.660 C 102.675 353.187,101.415 352.468,100.700 352.062 C 99.985 351.656,97.444 350.126,95.054 348.662 C 90.736 346.017,89.286 345.312,91.200 346.789 M121.220 363.104 C 125.696 365.464,138.482 369.995,145.600 371.743 C 153.633 373.716,162.973 375.292,162.274 374.557 C 162.094 374.368,160.834 374.083,159.474 373.923 C 158.113 373.763,155.920 373.438,154.600 373.200 C 153.280 372.963,151.480 372.667,150.600 372.543 C 149.720 372.419,148.829 372.156,148.620 371.959 C 148.411 371.762,147.657 371.600,146.944 371.600 C 146.231 371.600,145.536 371.420,145.400 371.200 C 145.264 370.980,144.544 370.800,143.800 370.800 C 143.056 370.800,142.336 370.620,142.200 370.400 C 142.064 370.180,141.601 370.000,141.171 370.000 C 140.741 370.000,140.077 369.838,139.695 369.641 C 139.313 369.444,137.650 368.866,136.000 368.357 C 134.350 367.848,130.390 366.381,127.200 365.096 C 120.935 362.572,118.973 361.919,121.220 363.104 M277.400 365.611 C 276.740 365.823,274.940 366.280,273.400 366.626 C 271.860 366.973,269.970 367.405,269.200 367.588 C 266.488 368.230,263.378 368.898,261.400 369.263 C 251.509 371.086,249.681 371.402,243.200 372.404 C 238.592 373.117,234.899 373.594,231.533 373.911 C 229.845 374.070,228.315 374.357,228.133 374.549 C 227.755 374.946,231.524 374.617,237.200 373.757 C 239.290 373.441,242.260 373.010,243.800 372.800 C 245.340 372.590,247.590 372.242,248.800 372.026 C 258.139 370.365,260.802 369.884,262.200 369.606 C 267.715 368.510,270.281 367.931,276.704 366.336 C 280.695 365.345,280.754 365.357,287.522 368.628 C 290.449 370.043,292.926 371.200,293.026 371.200 C 293.127 371.200,293.972 371.540,294.904 371.956 C 298.196 373.424,302.100 374.833,302.306 374.627 C 302.421 374.513,302.174 374.308,301.757 374.173 C 300.901 373.895,299.903 373.514,298.300 372.854 C 297.695 372.604,296.705 372.196,296.100 371.946 C 295.495 371.697,294.640 371.354,294.200 371.185 C 293.760 371.016,290.880 369.659,287.800 368.171 C 281.994 365.364,279.830 364.832,277.400 365.611 M164.800 375.220 C 167.457 375.693,169.148 375.684,168.400 375.200 C 168.070 374.987,166.720 374.832,165.400 374.856 L 163.000 374.900 164.800 375.220 M220.400 375.200 C 219.673 375.670,221.474 375.677,224.800 375.217 L 227.000 374.913 224.000 374.862 C 222.350 374.835,220.730 374.987,220.400 375.200 M303.800 375.383 C 305.895 376.287,306.926 376.528,306.626 376.043 C 306.476 375.799,306.014 375.600,305.600 375.600 C 305.186 375.600,304.736 375.420,304.600 375.200 C 304.464 374.980,303.958 374.815,303.476 374.833 C 302.722 374.861,302.767 374.937,303.800 375.383 M172.400 376.014 C 176.078 376.428,179.310 376.419,178.000 376.000 C 177.450 375.824,175.380 375.689,173.400 375.701 L 169.800 375.722 172.400 376.014 M209.400 376.024 C 208.893 376.257,210.360 376.303,213.400 376.149 C 216.040 376.015,218.275 375.837,218.367 375.753 C 218.729 375.420,210.148 375.680,209.400 376.024 M186.700 376.699 C 190.275 376.766,196.125 376.766,199.700 376.699 C 203.275 376.633,200.350 376.579,193.200 376.579 C 186.050 376.579,183.125 376.633,186.700 376.699 M307.800 376.800 C 308.901 377.273,309.292 377.273,309.000 376.800 C 308.864 376.580,308.358 376.413,307.876 376.428 C 307.031 376.455,307.029 376.469,307.800 376.800 M311.586 378.034 C 312.788 378.461,313.958 378.738,314.186 378.651 C 314.414 378.564,314.330 378.408,314.000 378.303 C 313.670 378.199,312.757 377.908,311.972 377.656 C 309.576 376.891,309.253 377.206,311.586 378.034 M317.000 379.631 C 319.383 380.384,321.402 380.668,319.800 380.025 C 318.058 379.326,316.105 378.802,315.372 378.836 C 314.947 378.857,315.680 379.214,317.000 379.631 M321.400 380.800 C 322.584 381.309,323.987 381.309,323.200 380.800 C 322.870 380.587,322.150 380.422,321.600 380.434 C 320.684 380.454,320.667 380.485,321.400 380.800 M324.066 381.400 C 324.176 381.509,325.061 381.758,326.033 381.952 C 327.005 382.146,329.150 382.575,330.800 382.904 C 332.450 383.233,335.060 383.717,336.600 383.980 C 338.140 384.242,340.300 384.614,341.400 384.806 C 354.183 387.034,384.992 387.291,386.934 385.187 C 387.302 384.789,387.231 384.745,386.600 384.980 C 381.583 386.850,352.960 386.258,339.800 384.012 C 338.480 383.786,336.320 383.438,335.000 383.238 C 333.680 383.038,330.937 382.498,328.904 382.037 C 325.277 381.215,323.670 381.004,324.066 381.400 " stroke="none" fill="#dbbb74" fill-rule="evenodd"></path><path id="path4" d="M289.890 40.973 C 276.378 45.742,271.315 61.857,279.825 73.006 C 281.427 75.105,323.005 116.800,323.496 116.800 C 324.085 116.800,366.282 74.189,367.464 72.400 C 376.823 58.235,367.236 40.000,350.430 40.000 C 343.474 40.000,340.048 41.732,332.555 49.037 C 324.588 56.804,322.809 57.191,317.703 52.266 C 309.979 44.816,308.576 43.593,306.486 42.486 C 301.310 39.746,294.997 39.171,289.890 40.973 M302.180 41.244 C 302.389 41.440,302.974 41.600,303.480 41.600 C 303.986 41.600,304.400 41.780,304.400 42.000 C 304.400 42.220,304.760 42.400,305.200 42.400 C 305.640 42.400,306.000 42.580,306.000 42.800 C 306.000 43.020,306.225 43.200,306.500 43.200 C 307.169 43.201,308.516 44.380,314.200 49.943 C 322.472 58.037,324.178 58.086,331.954 50.447 C 337.105 45.387,339.621 43.203,340.300 43.201 C 340.575 43.201,340.800 43.020,340.800 42.800 C 340.800 42.580,341.160 42.400,341.600 42.400 C 342.040 42.400,342.400 42.220,342.400 42.000 C 342.400 41.780,342.839 41.600,343.376 41.600 C 343.913 41.600,344.448 41.446,344.564 41.259 C 345.304 40.061,358.400 40.806,358.400 42.045 C 358.400 42.240,358.760 42.400,359.200 42.400 C 359.640 42.400,360.000 42.580,360.000 42.800 C 360.000 43.020,360.276 43.200,360.613 43.200 C 362.484 43.200,367.792 49.907,369.636 54.600 C 370.761 57.464,370.698 65.921,369.547 66.633 C 369.356 66.751,369.200 67.187,369.200 67.602 C 369.200 70.103,366.265 73.387,344.975 94.700 C 333.273 106.415,323.589 116.000,323.456 116.000 C 322.937 116.000,280.814 73.565,279.643 71.862 C 278.959 70.869,278.400 69.773,278.400 69.428 C 278.400 69.083,278.220 68.800,278.000 68.800 C 277.780 68.800,277.600 68.451,277.600 68.024 C 277.600 67.597,277.420 67.136,277.200 67.000 C 276.980 66.864,276.800 66.054,276.800 65.200 C 276.800 64.346,276.620 63.536,276.400 63.400 C 276.180 63.264,276.000 62.094,276.000 60.800 C 276.000 59.506,276.180 58.336,276.400 58.200 C 276.620 58.064,276.800 57.254,276.800 56.400 C 276.800 55.546,276.980 54.736,277.200 54.600 C 277.420 54.464,277.600 53.913,277.600 53.376 C 277.600 52.839,277.736 52.400,277.902 52.400 C 278.069 52.400,278.458 51.828,278.768 51.128 C 280.420 47.395,287.226 41.600,289.958 41.600 C 290.333 41.600,290.811 41.431,291.020 41.225 C 291.835 40.421,301.320 40.437,302.180 41.244 M165.200 92.925 C 165.200 92.994,165.785 93.579,166.500 94.225 L 167.800 95.400 166.625 94.100 C 165.530 92.888,165.200 92.616,165.200 92.925 M125.700 96.676 C 126.085 96.776,126.715 96.776,127.100 96.676 C 127.485 96.575,127.170 96.493,126.400 96.493 C 125.630 96.493,125.315 96.575,125.700 96.676 M169.600 96.925 C 169.600 96.994,170.185 97.579,170.900 98.225 L 172.200 99.400 171.025 98.100 C 169.930 96.888,169.600 96.616,169.600 96.925 M127.293 116.800 C 127.293 117.570,127.375 117.885,127.476 117.500 C 127.576 117.115,127.576 116.485,127.476 116.100 C 127.375 115.715,127.293 116.030,127.293 116.800 M128.109 129.600 C 128.109 130.590,128.187 130.995,128.282 130.500 C 128.378 130.005,128.378 129.195,128.282 128.700 C 128.187 128.205,128.109 128.610,128.109 129.600 M128.909 142.800 C 128.909 143.790,128.987 144.195,129.082 143.700 C 129.178 143.205,129.178 142.395,129.082 141.900 C 128.987 141.405,128.909 141.810,128.909 142.800 M129.693 157.600 C 129.693 158.370,129.775 158.685,129.876 158.300 C 129.976 157.915,129.976 157.285,129.876 156.900 C 129.775 156.515,129.693 156.830,129.693 157.600 M130.501 171.000 C 130.505 171.880,130.587 172.193,130.683 171.695 C 130.779 171.198,130.775 170.478,130.675 170.095 C 130.575 169.713,130.496 170.120,130.501 171.000 M131.293 185.200 C 131.293 185.970,131.375 186.285,131.476 185.900 C 131.576 185.515,131.576 184.885,131.476 184.500 C 131.375 184.115,131.293 184.430,131.293 185.200 M131.693 190.000 C 131.693 190.770,131.775 191.085,131.876 190.700 C 131.976 190.315,131.976 189.685,131.876 189.300 C 131.775 188.915,131.693 189.230,131.693 190.000 M320.900 191.487 C 321.505 191.578,322.495 191.578,323.100 191.487 C 323.705 191.395,323.210 191.320,322.000 191.320 C 320.790 191.320,320.295 191.395,320.900 191.487 M329.107 191.490 C 329.826 191.579,330.906 191.577,331.507 191.486 C 332.108 191.395,331.520 191.322,330.200 191.324 C 328.880 191.326,328.388 191.401,329.107 191.490 M132.101 198.600 C 132.105 199.480,132.187 199.793,132.283 199.295 C 132.379 198.798,132.375 198.078,132.275 197.695 C 132.175 197.313,132.096 197.720,132.101 198.600 M132.493 203.200 C 132.493 203.970,132.575 204.285,132.676 203.900 C 132.776 203.515,132.776 202.885,132.676 202.500 C 132.575 202.115,132.493 202.430,132.493 203.200 M132.893 211.600 C 132.893 212.370,132.975 212.685,133.076 212.300 C 133.176 211.915,133.176 211.285,133.076 210.900 C 132.975 210.515,132.893 210.830,132.893 211.600 M191.905 212.283 C 192.402 212.379,193.122 212.375,193.505 212.275 C 193.887 212.175,193.480 212.096,192.600 212.101 C 191.720 212.105,191.407 212.187,191.905 212.283 M199.500 212.282 C 199.995 212.378,200.805 212.378,201.300 212.282 C 201.795 212.187,201.390 212.109,200.400 212.109 C 199.410 212.109,199.005 212.187,199.500 212.282 M133.293 217.200 C 133.293 217.970,133.375 218.285,133.476 217.900 C 133.576 217.515,133.576 216.885,133.476 216.500 C 133.375 216.115,133.293 216.430,133.293 217.200 M250.600 232.800 C 251.459 233.680,252.252 234.400,252.362 234.400 C 252.472 234.400,251.859 233.680,251.000 232.800 C 250.141 231.920,249.348 231.200,249.238 231.200 C 249.128 231.200,249.741 231.920,250.600 232.800 M272.900 265.876 C 273.285 265.976,273.915 265.976,274.300 265.876 C 274.685 265.775,274.370 265.693,273.600 265.693 C 272.830 265.693,272.515 265.775,272.900 265.876 M345.200 316.600 C 345.946 317.370,346.647 318.000,346.757 318.000 C 346.867 318.000,346.346 317.370,345.600 316.600 C 344.854 315.830,344.153 315.200,344.043 315.200 C 343.933 315.200,344.454 315.830,345.200 316.600 M279.300 365.876 C 279.685 365.976,280.315 365.976,280.700 365.876 C 281.085 365.775,280.770 365.693,280.000 365.693 C 279.230 365.693,278.915 365.775,279.300 365.876 M218.900 375.876 C 219.285 375.976,219.915 375.976,220.300 375.876 C 220.685 375.775,220.370 375.693,219.600 375.693 C 218.830 375.693,218.515 375.775,218.900 375.876 M177.705 376.687 C 178.314 376.779,179.214 376.777,179.705 376.682 C 180.197 376.587,179.700 376.511,178.600 376.514 C 177.500 376.517,177.097 376.595,177.705 376.687 M207.107 376.690 C 207.826 376.779,208.906 376.777,209.507 376.686 C 210.108 376.595,209.520 376.522,208.200 376.524 C 206.880 376.526,206.388 376.601,207.107 376.690 M190.515 377.096 C 191.788 377.176,193.768 377.175,194.915 377.094 C 196.062 377.014,195.020 376.949,192.600 376.950 C 190.180 376.951,189.242 377.016,190.515 377.096 M357.705 386.687 C 358.314 386.779,359.214 386.777,359.705 386.682 C 360.197 386.587,359.700 386.511,358.600 386.514 C 357.500 386.517,357.097 386.595,357.705 386.687 M375.100 386.682 C 375.595 386.778,376.405 386.778,376.900 386.682 C 377.395 386.587,376.990 386.509,376.000 386.509 C 375.010 386.509,374.605 386.587,375.100 386.682 " stroke="none" fill="#e2877a" fill-rule="evenodd"></path></g></svg>