<svg id="svg" version="1.1" xmlns="http://www.w3.org/2000/svg" xmlns:xlink="http://www.w3.org/1999/xlink" width="400" height="400" viewBox="0, 0, 400,400"><g id="svgg"><path id="path0" d="M180.100 0.261 C 179.605 0.368,179.200 0.623,179.200 0.828 C 179.200 1.033,178.750 1.200,178.200 1.200 C 177.650 1.200,177.200 1.380,177.200 1.600 C 177.200 1.820,176.840 2.000,176.400 2.000 C 175.960 2.000,175.600 2.180,175.600 2.400 C 175.600 2.620,175.240 2.800,174.800 2.800 C 174.360 2.800,174.000 2.980,174.000 3.200 C 174.000 3.420,173.640 3.600,173.200 3.600 C 172.760 3.600,172.400 3.780,172.400 4.000 C 172.400 4.220,172.040 4.400,171.600 4.400 C 171.160 4.400,170.800 4.580,170.800 4.800 C 170.800 5.020,170.361 5.200,169.824 5.200 C 169.287 5.200,168.736 5.380,168.600 5.600 C 168.464 5.820,168.003 6.000,167.576 6.000 C 167.149 6.000,166.800 6.180,166.800 6.400 C 166.800 6.620,166.440 6.800,166.000 6.800 C 165.560 6.800,165.200 6.980,165.200 7.200 C 165.200 7.420,164.855 7.600,164.433 7.600 C 164.012 7.600,163.607 7.735,163.533 7.900 C 163.413 8.171,161.839 8.819,158.100 10.137 C 157.385 10.389,156.800 10.732,156.800 10.898 C 156.800 11.064,156.440 11.200,156.000 11.200 C 155.560 11.200,155.200 11.380,155.200 11.600 C 155.200 11.820,154.840 12.000,154.400 12.000 C 153.960 12.000,153.600 12.180,153.600 12.400 C 153.600 12.620,153.328 12.800,152.995 12.800 C 152.662 12.800,152.032 12.980,151.595 13.200 C 151.158 13.420,150.442 13.780,150.005 14.000 C 149.568 14.220,148.938 14.400,148.605 14.400 C 148.272 14.400,148.000 14.580,148.000 14.800 C 148.000 15.020,147.640 15.200,147.200 15.200 C 146.760 15.200,146.400 15.380,146.400 15.600 C 146.400 15.820,146.040 16.000,145.600 16.000 C 145.160 16.000,144.800 16.180,144.800 16.400 C 144.800 16.620,144.440 16.800,144.000 16.800 C 143.560 16.800,143.200 16.980,143.200 17.200 C 143.200 17.420,142.750 17.600,142.200 17.600 C 141.650 17.600,141.200 17.780,141.200 18.000 C 141.200 18.220,140.840 18.400,140.400 18.400 C 139.960 18.400,139.600 18.580,139.600 18.800 C 139.600 19.020,139.240 19.200,138.800 19.200 C 138.360 19.200,138.000 19.380,138.000 19.600 C 138.000 19.820,137.640 20.000,137.200 20.000 C 136.760 20.000,136.400 20.180,136.400 20.400 C 136.400 20.620,136.040 20.800,135.600 20.800 C 135.160 20.800,134.800 20.980,134.800 21.200 C 134.800 21.420,134.350 21.600,133.800 21.600 C 133.250 21.600,132.800 21.780,132.800 22.000 C 132.800 22.220,132.350 22.400,131.800 22.400 C 131.250 22.400,130.800 22.580,130.800 22.800 C 130.800 23.020,130.440 23.200,130.000 23.200 C 129.560 23.200,129.200 23.380,129.200 23.600 C 129.200 23.820,128.840 24.000,128.400 24.000 C 127.960 24.000,127.600 24.180,127.600 24.400 C 127.600 24.620,127.352 24.800,127.050 24.800 C 126.506 24.800,122.452 26.441,121.105 27.205 C 120.723 27.422,120.138 27.600,119.805 27.600 C 119.472 27.600,119.200 27.780,119.200 28.000 C 119.200 28.220,118.840 28.400,118.400 28.400 C 117.960 28.400,117.600 28.580,117.600 28.800 C 117.600 29.020,117.240 29.200,116.800 29.200 C 116.360 29.200,116.000 29.380,116.000 29.600 C 116.000 29.820,115.685 29.999,115.300 29.997 C 114.525 29.993,107.878 33.214,107.667 33.696 C 107.593 33.863,107.109 34.000,106.590 34.000 C 106.072 34.000,105.536 34.180,105.400 34.400 C 105.264 34.620,104.803 34.800,104.376 34.800 C 103.949 34.800,103.600 34.980,103.600 35.200 C 103.600 35.420,103.240 35.600,102.800 35.600 C 102.360 35.600,102.000 35.780,102.000 36.000 C 102.000 36.220,101.640 36.400,101.200 36.400 C 100.760 36.400,100.400 36.580,100.400 36.800 C 100.400 37.020,100.040 37.200,99.600 37.200 C 99.160 37.200,98.800 37.380,98.800 37.600 C 98.800 37.820,98.350 38.000,97.800 38.000 C 97.250 38.000,96.800 38.180,96.800 38.400 C 96.800 38.620,96.547 38.800,96.238 38.800 C 95.572 38.800,92.259 40.468,92.067 40.900 C 91.993 41.065,91.599 41.200,91.190 41.200 C 90.782 41.200,90.345 41.366,90.219 41.569 C 90.094 41.772,89.408 42.063,88.695 42.216 C 87.983 42.369,86.691 42.833,85.825 43.247 C 84.959 43.661,84.014 44.000,83.725 44.000 C 83.436 44.000,83.200 44.180,83.200 44.400 C 83.200 44.620,82.840 44.800,82.400 44.800 C 81.960 44.800,81.600 44.980,81.600 45.200 C 81.600 45.420,81.240 45.600,80.800 45.600 C 80.360 45.600,80.000 45.780,80.000 46.000 C 80.000 46.220,79.651 46.400,79.224 46.400 C 78.797 46.400,78.336 46.580,78.200 46.800 C 78.064 47.020,77.603 47.200,77.176 47.200 C 76.749 47.200,76.400 47.380,76.400 47.600 C 76.400 47.820,76.040 48.000,75.600 48.000 C 75.160 48.000,74.800 48.180,74.800 48.400 C 74.800 48.620,74.480 48.800,74.088 48.800 C 73.697 48.800,73.117 49.160,72.800 49.600 C 72.483 50.040,71.987 50.400,71.698 50.400 C 71.016 50.400,68.400 53.016,68.400 53.698 C 68.400 53.987,68.040 54.483,67.600 54.800 C 67.130 55.139,66.800 55.835,66.800 56.488 C 66.800 57.100,66.620 57.600,66.400 57.600 C 66.180 57.600,66.000 58.140,66.000 58.800 C 66.000 59.460,65.820 60.000,65.600 60.000 C 65.380 60.000,65.200 60.529,65.200 61.176 C 65.200 61.823,65.020 62.464,64.800 62.600 C 64.580 62.736,64.400 63.377,64.400 64.024 C 64.400 64.671,64.220 65.200,64.000 65.200 C 63.780 65.200,63.600 65.729,63.600 66.376 C 63.600 67.023,63.420 67.664,63.200 67.800 C 62.980 67.936,62.800 68.667,62.800 69.424 C 62.800 70.181,62.620 70.800,62.400 70.800 C 62.180 70.800,62.000 71.329,62.000 71.976 C 62.000 72.623,61.820 73.264,61.600 73.400 C 61.380 73.536,61.200 74.166,61.200 74.800 C 61.200 75.434,61.020 76.064,60.800 76.200 C 60.580 76.336,60.400 76.966,60.400 77.600 C 60.400 78.234,60.220 78.864,60.000 79.000 C 59.780 79.136,59.597 79.642,59.594 80.124 C 59.591 80.606,59.329 81.720,59.012 82.600 C 58.695 83.480,58.427 84.875,58.418 85.700 C 58.408 86.525,58.220 87.200,58.000 87.200 C 57.780 87.200,57.600 87.740,57.600 88.400 C 57.600 89.060,57.420 89.600,57.200 89.600 C 56.980 89.600,56.800 90.219,56.800 90.976 C 56.800 91.733,56.620 92.464,56.400 92.600 C 56.180 92.736,56.000 93.377,56.000 94.024 C 56.000 94.671,55.820 95.200,55.600 95.200 C 55.380 95.200,55.200 95.830,55.200 96.600 C 55.200 97.370,55.020 98.000,54.800 98.000 C 54.580 98.000,54.400 98.619,54.400 99.376 C 54.400 100.133,54.220 100.864,54.000 101.000 C 53.780 101.136,53.600 101.777,53.600 102.424 C 53.600 103.071,53.420 103.600,53.200 103.600 C 52.980 103.600,52.800 104.320,52.800 105.200 C 52.800 106.080,52.620 106.800,52.400 106.800 C 52.180 106.800,52.000 107.340,52.000 108.000 C 52.000 108.660,51.820 109.200,51.600 109.200 C 51.380 109.200,51.200 109.830,51.200 110.600 C 51.200 111.370,51.020 112.000,50.800 112.000 C 50.580 112.000,50.400 112.619,50.400 113.376 C 50.400 114.133,50.220 114.864,50.000 115.000 C 49.780 115.136,49.600 115.777,49.600 116.424 C 49.600 117.071,49.420 117.600,49.200 117.600 C 48.980 117.600,48.800 118.320,48.800 119.200 C 48.800 120.080,48.620 120.800,48.400 120.800 C 48.180 120.800,48.000 121.340,48.000 122.000 C 48.000 122.660,47.820 123.200,47.600 123.200 C 47.380 123.200,47.200 123.819,47.200 124.576 C 47.200 125.333,47.020 126.064,46.800 126.200 C 46.580 126.336,46.400 126.966,46.400 127.600 C 46.400 128.234,46.220 128.864,46.000 129.000 C 45.780 129.136,45.600 129.766,45.600 130.400 C 45.600 131.034,45.420 131.664,45.200 131.800 C 44.980 131.936,44.800 132.667,44.800 133.424 C 44.800 134.181,44.640 134.800,44.444 134.800 C 44.248 134.800,43.991 135.385,43.872 136.100 C 43.556 138.013,43.168 139.719,42.894 140.400 C 42.557 141.241,41.592 145.503,41.333 147.300 C 41.214 148.125,40.955 148.800,40.758 148.800 C 40.561 148.800,40.400 149.419,40.400 150.176 C 40.400 150.933,40.220 151.664,40.000 151.800 C 39.780 151.936,39.600 152.577,39.600 153.224 C 39.600 153.871,39.420 154.400,39.200 154.400 C 38.980 154.400,38.800 155.120,38.800 156.000 C 38.800 156.880,38.620 157.600,38.400 157.600 C 38.180 157.600,38.000 158.230,38.000 159.000 C 38.000 159.770,37.820 160.400,37.600 160.400 C 37.380 160.400,37.200 160.940,37.200 161.600 C 37.200 162.260,37.020 162.800,36.800 162.800 C 36.580 162.800,36.400 163.520,36.400 164.400 C 36.400 165.280,36.240 166.000,36.044 166.000 C 35.848 166.000,35.578 166.630,35.444 167.400 C 35.310 168.170,35.090 169.430,34.956 170.200 C 34.822 170.970,34.552 171.600,34.356 171.600 C 34.160 171.600,34.000 172.320,34.000 173.200 C 34.000 174.080,33.820 174.800,33.600 174.800 C 33.380 174.800,33.200 175.430,33.200 176.200 C 33.200 176.970,33.020 177.600,32.800 177.600 C 32.580 177.600,32.400 178.129,32.400 178.776 C 32.400 179.423,32.220 180.064,32.000 180.200 C 31.780 180.336,31.600 181.067,31.600 181.824 C 31.600 182.581,31.420 183.200,31.200 183.200 C 30.980 183.200,30.800 183.920,30.800 184.800 C 30.800 185.680,30.620 186.400,30.400 186.400 C 30.180 186.400,30.000 187.019,30.000 187.776 C 30.000 188.533,29.820 189.264,29.600 189.400 C 29.380 189.536,29.200 190.166,29.200 190.800 C 29.200 191.434,29.020 192.064,28.800 192.200 C 28.580 192.336,28.400 192.966,28.400 193.600 C 28.400 194.234,28.220 194.864,28.000 195.000 C 27.780 195.136,27.600 195.856,27.600 196.600 C 27.600 197.344,27.420 198.064,27.200 198.200 C 26.980 198.336,26.800 198.889,26.800 199.429 C 26.800 199.969,26.636 200.723,26.436 201.105 C 25.945 202.043,24.800 207.259,24.800 208.557 C 24.800 209.131,24.620 209.600,24.400 209.600 C 24.180 209.600,24.000 210.230,24.000 211.000 C 24.000 211.770,23.820 212.400,23.600 212.400 C 23.380 212.400,23.200 213.019,23.200 213.776 C 23.200 214.533,23.020 215.264,22.800 215.400 C 22.580 215.536,22.400 216.267,22.400 217.024 C 22.400 217.781,22.220 218.400,22.000 218.400 C 21.780 218.400,21.600 219.120,21.600 220.000 C 21.600 220.880,21.420 221.600,21.200 221.600 C 20.980 221.600,20.800 222.320,20.800 223.200 C 20.800 224.080,20.620 224.800,20.400 224.800 C 20.180 224.800,20.000 225.430,20.000 226.200 C 20.000 226.970,19.820 227.600,19.600 227.600 C 19.380 227.600,19.200 228.320,19.200 229.200 C 19.200 230.080,19.020 230.800,18.800 230.800 C 18.580 230.800,18.400 231.419,18.400 232.176 C 18.400 232.933,18.220 233.664,18.000 233.800 C 17.780 233.936,17.600 234.566,17.600 235.200 C 17.600 235.834,17.420 236.464,17.200 236.600 C 16.980 236.736,16.800 237.467,16.800 238.224 C 16.800 238.981,16.620 239.600,16.400 239.600 C 16.180 239.600,16.000 240.320,16.000 241.200 C 16.000 242.080,15.820 242.800,15.600 242.800 C 15.380 242.800,15.200 243.419,15.200 244.176 C 15.200 244.933,15.020 245.664,14.800 245.800 C 14.580 245.936,14.400 246.656,14.400 247.400 C 14.400 248.144,14.220 248.864,14.000 249.000 C 13.780 249.136,13.600 249.856,13.600 250.600 C 13.600 251.344,13.420 252.064,13.200 252.200 C 12.980 252.336,12.800 253.056,12.800 253.800 C 12.800 254.544,12.620 255.264,12.400 255.400 C 12.180 255.536,12.000 256.256,12.000 257.000 C 12.000 257.744,11.839 258.452,11.642 258.574 C 11.445 258.695,11.186 259.471,11.065 260.297 C 10.649 263.144,10.345 264.602,10.000 265.400 C 9.587 266.357,9.299 267.896,8.712 272.300 C 8.469 274.115,8.120 275.600,7.936 275.600 C 7.751 275.600,7.600 276.399,7.600 277.376 C 7.600 278.353,7.420 279.264,7.200 279.400 C 6.652 279.739,6.652 306.800,7.200 306.800 C 7.420 306.800,7.600 307.250,7.600 307.800 C 7.600 308.350,7.780 308.800,8.000 308.800 C 8.220 308.800,8.400 309.141,8.400 309.558 C 8.400 310.198,8.997 311.032,11.099 313.329 C 12.006 314.321,14.269 315.998,14.700 315.999 C 14.975 316.000,15.200 316.180,15.200 316.400 C 15.200 316.620,15.639 316.800,16.176 316.800 C 16.713 316.800,17.264 316.980,17.400 317.200 C 17.536 317.420,17.997 317.600,18.424 317.600 C 18.851 317.600,19.200 317.747,19.200 317.928 C 19.200 318.108,20.100 318.500,21.200 318.800 C 22.300 319.100,23.200 319.492,23.200 319.672 C 23.200 319.853,23.472 320.000,23.804 320.000 C 24.137 320.000,25.262 320.378,26.304 320.840 C 27.347 321.302,28.560 321.823,29.000 321.997 C 31.704 323.071,36.299 325.458,36.847 326.074 C 37.203 326.473,37.716 326.800,37.986 326.800 C 38.257 326.800,38.983 327.340,39.600 328.000 C 40.217 328.660,40.917 329.200,41.157 329.200 C 41.397 329.200,42.109 329.740,42.740 330.400 C 43.371 331.060,44.052 331.600,44.255 331.600 C 44.458 331.600,44.883 331.960,45.200 332.400 C 45.517 332.840,46.025 333.200,46.328 333.200 C 46.631 333.200,47.383 333.740,48.000 334.400 C 48.617 335.060,49.292 335.600,49.501 335.600 C 49.710 335.600,50.446 336.140,51.137 336.800 C 51.828 337.460,52.583 338.000,52.815 338.000 C 53.047 338.000,53.686 338.450,54.236 339.000 C 54.786 339.550,55.381 340.000,55.557 340.000 C 55.839 340.000,56.451 340.447,58.283 341.993 C 58.549 342.217,58.954 342.400,59.183 342.400 C 59.412 342.400,59.600 342.550,59.600 342.732 C 59.600 342.915,60.092 343.320,60.693 343.632 C 61.294 343.945,62.311 344.695,62.952 345.300 C 63.594 345.905,64.322 346.400,64.571 346.400 C 64.820 346.400,65.283 346.760,65.600 347.200 C 65.917 347.640,66.457 348.000,66.800 348.000 C 67.143 348.000,67.683 348.360,68.000 348.800 C 68.317 349.240,68.762 349.600,68.988 349.601 C 69.215 349.601,70.030 350.141,70.800 350.800 C 71.570 351.459,72.385 351.999,72.612 351.999 C 72.838 352.000,73.283 352.360,73.600 352.800 C 73.917 353.240,74.482 353.600,74.855 353.600 C 75.228 353.600,75.593 353.751,75.667 353.935 C 75.892 354.503,82.554 358.800,83.208 358.800 C 83.547 358.800,84.083 359.160,84.400 359.600 C 84.717 360.040,85.297 360.400,85.688 360.400 C 86.080 360.400,86.400 360.580,86.400 360.800 C 86.400 361.020,86.636 361.200,86.925 361.200 C 87.213 361.200,87.836 361.560,88.308 362.000 C 88.780 362.440,89.362 362.800,89.600 362.800 C 89.838 362.800,90.420 363.160,90.892 363.600 C 91.364 364.040,91.987 364.400,92.275 364.400 C 92.564 364.400,92.800 364.580,92.800 364.800 C 92.800 365.020,93.070 365.200,93.400 365.200 C 93.730 365.200,94.000 365.380,94.000 365.600 C 94.000 365.820,94.345 366.000,94.767 366.000 C 95.188 366.000,95.593 366.135,95.667 366.300 C 95.834 366.676,97.964 367.975,98.900 368.271 C 99.285 368.393,99.600 368.652,99.600 368.847 C 99.600 369.041,99.960 369.200,100.400 369.200 C 100.840 369.200,101.200 369.380,101.200 369.600 C 101.200 369.820,101.560 370.000,102.000 370.000 C 102.440 370.000,102.800 370.180,102.800 370.400 C 102.800 370.620,103.160 370.800,103.600 370.800 C 104.040 370.800,104.400 370.980,104.400 371.200 C 104.400 371.420,104.760 371.600,105.200 371.600 C 105.640 371.600,106.000 371.780,106.000 372.000 C 106.000 372.220,106.360 372.400,106.800 372.400 C 107.240 372.400,107.600 372.580,107.600 372.800 C 107.600 373.020,107.960 373.200,108.400 373.200 C 108.840 373.200,109.200 373.338,109.200 373.506 C 109.200 373.877,112.169 375.200,113.003 375.200 C 113.331 375.200,113.600 375.380,113.600 375.600 C 113.600 375.820,114.050 376.000,114.600 376.000 C 115.150 376.000,115.600 376.180,115.600 376.400 C 115.600 376.620,116.050 376.800,116.600 376.800 C 117.150 376.800,117.600 376.980,117.600 377.200 C 117.600 377.420,117.960 377.600,118.400 377.600 C 118.840 377.600,119.200 377.780,119.200 378.000 C 119.200 378.220,119.740 378.400,120.400 378.400 C 121.060 378.400,121.600 378.580,121.600 378.800 C 121.600 379.020,121.960 379.200,122.400 379.200 C 122.840 379.200,123.200 379.380,123.200 379.600 C 123.200 379.820,123.740 380.000,124.400 380.000 C 125.060 380.000,125.600 380.180,125.600 380.400 C 125.600 380.620,126.050 380.800,126.600 380.800 C 127.150 380.800,127.600 380.980,127.600 381.200 C 127.600 381.420,128.039 381.600,128.576 381.600 C 129.113 381.600,129.664 381.780,129.800 382.000 C 129.936 382.220,130.577 382.400,131.224 382.400 C 131.871 382.400,132.400 382.580,132.400 382.800 C 132.400 383.020,132.940 383.200,133.600 383.200 C 134.260 383.200,134.800 383.380,134.800 383.600 C 134.800 383.820,135.340 384.000,136.000 384.000 C 136.660 384.000,137.200 384.180,137.200 384.400 C 137.200 384.620,137.920 384.800,138.800 384.800 C 139.680 384.800,140.400 384.980,140.400 385.200 C 140.400 385.420,141.019 385.600,141.776 385.600 C 142.533 385.600,143.264 385.780,143.400 386.000 C 143.536 386.220,144.447 386.400,145.424 386.400 C 146.401 386.400,147.200 386.580,147.200 386.800 C 147.200 387.020,148.100 387.200,149.200 387.200 C 150.300 387.200,151.200 387.380,151.200 387.600 C 151.200 387.820,152.154 388.000,153.320 388.000 C 154.486 388.000,155.611 388.165,155.820 388.366 C 156.029 388.568,157.280 388.834,158.600 388.958 C 159.920 389.082,162.620 389.370,164.600 389.597 C 179.969 391.362,205.141 391.365,223.800 389.603 C 226.220 389.374,229.550 389.086,231.200 388.963 C 232.850 388.840,234.371 388.573,234.580 388.370 C 234.789 388.166,236.274 388.000,237.880 388.000 C 239.560 388.000,240.800 387.830,240.800 387.600 C 240.800 387.371,242.000 387.200,243.600 387.200 C 245.200 387.200,246.400 387.029,246.400 386.800 C 246.400 386.578,247.467 386.400,248.800 386.400 C 250.133 386.400,251.200 386.222,251.200 386.000 C 251.200 385.780,252.179 385.600,253.376 385.600 C 254.573 385.600,255.664 385.420,255.800 385.200 C 255.936 384.980,256.836 384.800,257.800 384.800 C 258.764 384.800,259.664 384.620,259.800 384.400 C 259.936 384.180,260.847 384.000,261.824 384.000 C 262.801 384.000,263.600 383.820,263.600 383.600 C 263.600 383.380,264.500 383.200,265.600 383.200 C 266.700 383.200,267.600 383.020,267.600 382.800 C 267.600 382.580,268.500 382.400,269.600 382.400 C 270.700 382.400,271.600 382.220,271.600 382.000 C 271.600 381.780,272.194 381.600,272.920 381.600 C 273.646 381.600,274.414 381.426,274.627 381.213 C 275.201 380.639,279.724 380.573,279.912 381.136 C 279.997 381.391,280.412 381.600,280.833 381.600 C 281.255 381.600,281.600 381.780,281.600 382.000 C 281.600 382.220,281.949 382.400,282.376 382.400 C 282.803 382.400,283.264 382.580,283.400 382.800 C 283.536 383.020,284.087 383.200,284.624 383.200 C 285.161 383.200,285.600 383.380,285.600 383.600 C 285.600 383.820,285.960 384.000,286.400 384.000 C 286.840 384.000,287.200 384.180,287.200 384.400 C 287.200 384.620,287.560 384.800,288.000 384.800 C 288.440 384.800,288.800 384.980,288.800 385.200 C 288.800 385.420,289.340 385.600,290.000 385.600 C 290.660 385.600,291.200 385.780,291.200 386.000 C 291.200 386.220,291.560 386.400,292.000 386.400 C 292.440 386.400,292.800 386.580,292.800 386.800 C 292.800 387.020,293.162 387.200,293.605 387.200 C 294.048 387.200,294.723 387.359,295.105 387.553 C 295.487 387.748,296.340 388.129,297.000 388.400 C 297.660 388.671,298.513 389.052,298.895 389.247 C 299.277 389.441,299.941 389.600,300.371 389.600 C 300.801 389.600,301.264 389.780,301.400 390.000 C 301.536 390.220,302.076 390.400,302.600 390.400 C 303.124 390.400,303.656 390.567,303.783 390.772 C 303.909 390.977,305.000 391.267,306.206 391.418 C 307.413 391.569,308.400 391.851,308.400 392.046 C 308.400 392.241,309.030 392.400,309.800 392.400 C 310.570 392.400,311.200 392.580,311.200 392.800 C 311.200 393.020,311.830 393.200,312.600 393.200 C 313.370 393.200,314.000 393.380,314.000 393.600 C 314.000 393.820,314.630 394.000,315.400 394.000 C 316.170 394.000,316.800 394.180,316.800 394.400 C 316.800 394.620,317.520 394.800,318.400 394.800 C 319.280 394.800,320.000 394.980,320.000 395.200 C 320.000 395.420,320.900 395.600,322.000 395.600 C 323.100 395.600,324.000 395.780,324.000 396.000 C 324.000 396.220,324.720 396.400,325.600 396.400 C 326.480 396.400,327.200 396.580,327.200 396.800 C 327.200 397.020,328.190 397.200,329.400 397.200 C 330.610 397.200,331.600 397.380,331.600 397.600 C 331.600 397.822,332.667 398.000,334.000 398.000 C 335.333 398.000,336.400 398.178,336.400 398.400 C 336.400 398.628,337.589 398.800,339.167 398.800 C 341.024 398.800,341.988 398.964,342.100 399.300 C 342.371 400.114,387.458 400.018,389.033 399.200 C 390.646 398.362,391.600 397.512,391.600 396.911 C 391.600 396.630,391.735 396.399,391.900 396.397 C 392.065 396.395,392.425 395.909,392.700 395.317 C 393.295 394.036,393.373 389.600,392.800 389.600 C 392.580 389.600,392.400 389.317,392.400 388.971 C 392.400 388.626,392.175 388.108,391.900 387.820 C 391.625 387.533,391.135 386.916,390.812 386.449 C 390.488 385.982,389.914 385.600,389.535 385.600 C 389.157 385.600,388.736 385.420,388.600 385.200 C 388.274 384.673,382.000 384.673,382.000 385.200 C 382.000 385.460,376.600 385.600,366.600 385.600 C 356.600 385.600,351.200 385.460,351.200 385.200 C 351.200 384.963,349.733 384.800,347.600 384.800 C 345.467 384.800,344.000 384.637,344.000 384.400 C 344.000 384.174,342.867 384.000,341.400 384.000 C 339.933 384.000,338.800 383.826,338.800 383.600 C 338.800 383.380,337.911 383.200,336.824 383.200 C 335.737 383.200,334.736 383.020,334.600 382.800 C 334.464 382.580,333.474 382.400,332.400 382.400 C 331.326 382.400,330.336 382.220,330.200 382.000 C 330.064 381.780,329.243 381.600,328.376 381.600 C 327.509 381.600,326.800 381.420,326.800 381.200 C 326.800 380.980,326.091 380.800,325.224 380.800 C 324.357 380.800,323.536 380.620,323.400 380.400 C 323.264 380.180,322.544 380.000,321.800 380.000 C 321.056 380.000,320.336 379.820,320.200 379.600 C 320.064 379.380,319.434 379.200,318.800 379.200 C 318.166 379.200,317.536 379.020,317.400 378.800 C 317.264 378.580,316.533 378.400,315.776 378.400 C 315.019 378.400,314.400 378.220,314.400 378.000 C 314.400 377.780,313.860 377.600,313.200 377.600 C 312.540 377.600,312.000 377.420,312.000 377.200 C 312.000 376.980,311.548 376.800,310.995 376.800 C 310.442 376.800,309.677 376.642,309.295 376.448 C 308.015 375.801,304.610 374.796,303.700 374.798 C 303.205 374.799,302.800 374.620,302.800 374.400 C 302.800 374.180,302.361 374.000,301.824 374.000 C 301.287 374.000,300.736 373.820,300.600 373.600 C 300.464 373.380,300.003 373.200,299.576 373.200 C 299.149 373.200,298.800 373.020,298.800 372.800 C 298.800 372.580,298.260 372.400,297.600 372.400 C 296.940 372.400,296.400 372.220,296.400 372.000 C 296.400 371.780,296.040 371.600,295.600 371.600 C 295.160 371.600,294.800 371.420,294.800 371.200 C 294.800 370.980,294.440 370.800,294.000 370.800 C 293.560 370.800,293.200 370.620,293.200 370.400 C 293.200 370.180,292.750 370.000,292.200 370.000 C 291.650 370.000,291.200 369.820,291.200 369.600 C 291.200 369.380,290.840 369.200,290.400 369.200 C 289.960 369.200,289.600 369.020,289.600 368.800 C 289.600 368.580,289.240 368.400,288.800 368.400 C 288.360 368.400,288.000 368.220,288.000 368.000 C 288.000 367.780,287.640 367.600,287.200 367.600 C 286.760 367.600,286.400 367.420,286.400 367.200 C 286.400 366.980,286.040 366.800,285.600 366.800 C 285.160 366.800,284.800 366.620,284.800 366.400 C 284.800 366.180,284.440 366.000,284.000 366.000 C 283.560 366.000,283.200 365.820,283.200 365.600 C 283.200 365.361,281.667 365.200,279.400 365.200 C 277.133 365.200,275.600 365.361,275.600 365.600 C 275.600 365.820,274.880 366.000,274.000 366.000 C 273.120 366.000,272.400 366.180,272.400 366.400 C 272.400 366.620,271.500 366.800,270.400 366.800 C 269.300 366.800,268.400 366.980,268.400 367.200 C 268.400 367.420,267.680 367.600,266.800 367.600 C 265.920 367.600,265.200 367.780,265.200 368.000 C 265.200 368.220,264.300 368.400,263.200 368.400 C 262.100 368.400,261.200 368.580,261.200 368.800 C 261.200 369.020,260.390 369.200,259.400 369.200 C 258.410 369.200,257.600 369.380,257.600 369.600 C 257.600 369.820,256.621 370.000,255.424 370.000 C 254.227 370.000,253.136 370.180,253.000 370.400 C 252.864 370.620,251.874 370.800,250.800 370.800 C 249.726 370.800,248.736 370.980,248.600 371.200 C 248.464 371.420,247.283 371.600,245.976 371.600 C 244.659 371.600,243.600 371.778,243.600 372.000 C 243.600 372.229,242.400 372.400,240.800 372.400 C 239.200 372.400,238.000 372.571,238.000 372.800 C 238.000 373.029,236.800 373.200,235.200 373.200 C 233.600 373.200,232.400 373.371,232.400 373.600 C 232.400 373.835,231.011 374.000,229.033 374.000 C 227.182 374.000,225.607 374.154,225.533 374.342 C 224.870 376.042,163.530 376.043,162.867 374.342 C 162.793 374.154,161.679 374.000,160.390 374.000 C 159.102 374.000,157.936 373.820,157.800 373.600 C 157.664 373.380,156.663 373.200,155.576 373.200 C 154.489 373.200,153.600 373.020,153.600 372.800 C 153.600 372.580,152.700 372.400,151.600 372.400 C 150.500 372.400,149.600 372.220,149.600 372.000 C 149.600 371.780,148.880 371.600,148.000 371.600 C 147.120 371.600,146.400 371.420,146.400 371.200 C 146.400 370.980,145.680 370.800,144.800 370.800 C 143.920 370.800,143.200 370.620,143.200 370.400 C 143.200 370.180,142.570 370.000,141.800 370.000 C 141.030 370.000,140.400 369.820,140.400 369.600 C 140.400 369.380,139.860 369.200,139.200 369.200 C 138.540 369.200,138.000 369.020,138.000 368.800 C 138.000 368.580,137.460 368.400,136.800 368.400 C 136.140 368.400,135.600 368.220,135.600 368.000 C 135.600 367.780,135.060 367.600,134.400 367.600 C 133.740 367.600,133.200 367.420,133.200 367.200 C 133.200 366.980,132.660 366.800,132.000 366.800 C 131.340 366.800,130.800 366.620,130.800 366.400 C 130.800 366.180,130.451 366.000,130.024 366.000 C 129.597 366.000,129.136 365.820,129.000 365.600 C 128.864 365.380,128.313 365.200,127.776 365.200 C 127.239 365.200,126.800 365.020,126.800 364.800 C 126.800 364.580,126.440 364.400,126.000 364.400 C 125.560 364.400,125.200 364.220,125.200 364.000 C 125.200 363.780,124.895 363.600,124.522 363.600 C 124.149 363.600,121.451 362.430,118.526 361.000 C 115.601 359.570,112.936 358.400,112.604 358.400 C 112.272 358.400,112.000 358.220,112.000 358.000 C 112.000 357.780,111.640 357.600,111.200 357.600 C 110.760 357.600,110.400 357.420,110.400 357.200 C 110.400 356.980,110.040 356.800,109.600 356.800 C 109.160 356.800,108.800 356.654,108.800 356.475 C 108.800 356.296,108.170 355.902,107.400 355.600 C 106.630 355.298,106.000 354.904,106.000 354.725 C 106.000 354.546,105.640 354.400,105.200 354.400 C 104.760 354.400,104.400 354.220,104.400 354.000 C 104.400 353.780,104.164 353.600,103.875 353.600 C 103.587 353.600,102.964 353.240,102.492 352.800 C 102.020 352.360,101.356 352.000,101.017 352.000 C 100.678 352.000,100.400 351.820,100.400 351.600 C 100.400 351.380,100.122 351.200,99.783 351.200 C 99.444 351.200,98.780 350.840,98.308 350.400 C 97.836 349.960,97.213 349.600,96.925 349.600 C 96.636 349.600,96.400 349.420,96.400 349.200 C 96.400 348.980,96.080 348.800,95.688 348.800 C 95.297 348.800,94.717 348.440,94.400 348.000 C 94.083 347.560,93.503 347.200,93.112 347.200 C 92.720 347.200,92.400 347.020,92.400 346.800 C 92.400 346.580,92.158 346.400,91.862 346.400 C 91.566 346.400,90.998 346.040,90.600 345.600 C 90.202 345.160,89.634 344.800,89.338 344.800 C 89.042 344.800,88.800 344.641,88.800 344.446 C 88.800 344.251,88.178 343.796,87.417 343.435 C 86.656 343.074,85.926 342.603,85.793 342.389 C 85.661 342.175,85.243 342.000,84.865 342.000 C 84.486 342.000,83.917 341.640,83.600 341.200 C 83.283 340.760,82.743 340.400,82.400 340.400 C 82.057 340.400,81.517 340.040,81.200 339.600 C 80.883 339.160,80.391 338.800,80.108 338.800 C 79.825 338.800,79.028 338.260,78.337 337.600 C 77.646 336.940,76.878 336.400,76.629 336.400 C 76.380 336.400,75.917 336.040,75.600 335.600 C 75.283 335.160,74.793 334.800,74.512 334.800 C 74.230 334.800,74.000 334.650,74.000 334.468 C 74.000 334.285,73.508 333.880,72.907 333.568 C 72.306 333.255,71.289 332.505,70.648 331.900 C 70.006 331.295,69.278 330.800,69.029 330.800 C 68.780 330.800,68.317 330.440,68.000 330.000 C 67.683 329.560,67.238 329.200,67.012 329.200 C 66.785 329.199,66.077 328.749,65.438 328.200 C 64.799 327.650,64.151 327.200,63.999 327.200 C 63.756 327.200,63.114 326.723,61.317 325.207 C 61.051 324.983,60.628 324.800,60.377 324.800 C 60.126 324.800,59.417 324.260,58.800 323.600 C 58.183 322.940,57.521 322.400,57.328 322.400 C 57.135 322.400,56.717 322.040,56.400 321.600 C 56.083 321.160,55.593 320.800,55.312 320.800 C 55.030 320.800,54.800 320.620,54.800 320.400 C 54.800 320.180,54.570 320.000,54.288 320.000 C 54.007 320.000,53.517 319.640,53.200 319.200 C 52.883 318.760,52.420 318.400,52.171 318.400 C 51.922 318.400,51.154 317.860,50.463 317.200 C 49.772 316.540,49.052 316.000,48.863 316.000 C 48.674 316.000,47.954 315.460,47.263 314.800 C 46.572 314.140,45.860 313.600,45.679 313.600 C 45.499 313.600,44.993 313.285,44.555 312.900 C 42.955 311.492,37.926 308.925,36.024 308.545 C 35.351 308.410,34.800 308.142,34.800 307.950 C 34.800 307.757,34.440 307.600,34.000 307.600 C 33.560 307.600,33.200 307.420,33.200 307.200 C 33.200 306.980,32.660 306.800,32.000 306.800 C 31.340 306.800,30.800 306.620,30.800 306.400 C 30.800 306.180,30.361 306.000,29.824 306.000 C 29.287 306.000,28.736 305.820,28.600 305.600 C 28.464 305.380,28.003 305.200,27.576 305.200 C 27.149 305.200,26.800 305.020,26.800 304.800 C 26.800 304.580,26.476 304.400,26.080 304.400 C 25.186 304.400,23.207 303.506,23.203 303.100 C 23.201 302.935,22.840 302.800,22.400 302.800 C 21.496 302.800,21.107 281.952,22.000 281.400 C 22.220 281.264,22.400 280.353,22.400 279.376 C 22.400 278.399,22.562 277.600,22.760 277.600 C 22.958 277.600,23.219 276.835,23.341 275.900 C 23.769 272.622,24.098 270.996,24.413 270.600 C 24.589 270.380,24.860 268.895,25.018 267.300 C 25.175 265.705,25.460 264.400,25.652 264.400 C 25.843 264.400,26.000 263.680,26.000 262.800 C 26.000 261.920,26.180 261.200,26.400 261.200 C 26.620 261.200,26.800 260.480,26.800 259.600 C 26.800 258.720,26.980 258.000,27.200 258.000 C 27.420 258.000,27.600 257.381,27.600 256.624 C 27.600 255.867,27.780 255.136,28.000 255.000 C 28.220 254.864,28.400 254.133,28.400 253.376 C 28.400 252.619,28.580 252.000,28.800 252.000 C 29.020 252.000,29.200 251.280,29.200 250.400 C 29.200 249.520,29.380 248.800,29.600 248.800 C 29.820 248.800,30.000 248.080,30.000 247.200 C 30.000 246.320,30.180 245.600,30.400 245.600 C 30.620 245.600,30.800 244.880,30.800 244.000 C 30.800 243.120,30.980 242.400,31.200 242.400 C 31.420 242.400,31.600 241.770,31.600 241.000 C 31.600 240.230,31.780 239.600,32.000 239.600 C 32.220 239.600,32.400 238.880,32.400 238.000 C 32.400 237.120,32.580 236.400,32.800 236.400 C 33.020 236.400,33.200 235.781,33.200 235.024 C 33.200 234.267,33.380 233.536,33.600 233.400 C 33.820 233.264,34.000 232.544,34.000 231.800 C 34.000 231.056,34.180 230.336,34.400 230.200 C 34.620 230.064,34.800 229.434,34.800 228.800 C 34.800 228.166,34.980 227.536,35.200 227.400 C 35.420 227.264,35.600 226.533,35.600 225.776 C 35.600 225.019,35.780 224.400,36.000 224.400 C 36.220 224.400,36.400 223.781,36.400 223.024 C 36.400 222.267,36.580 221.536,36.800 221.400 C 37.020 221.264,37.200 220.544,37.200 219.800 C 37.200 219.056,37.380 218.336,37.600 218.200 C 37.820 218.064,38.000 217.333,38.000 216.576 C 38.000 215.819,38.180 215.200,38.400 215.200 C 38.620 215.200,38.800 214.581,38.800 213.824 C 38.800 213.067,38.960 212.348,39.156 212.227 C 39.351 212.106,39.613 211.421,39.737 210.704 C 40.274 207.594,40.521 206.575,40.831 206.183 C 41.012 205.953,41.284 204.558,41.436 203.083 C 41.587 201.607,41.866 200.400,42.055 200.400 C 42.245 200.400,42.400 199.860,42.400 199.200 C 42.400 198.540,42.580 198.000,42.800 198.000 C 43.020 198.000,43.200 197.280,43.200 196.400 C 43.200 195.520,43.380 194.800,43.600 194.800 C 43.820 194.800,44.000 194.080,44.000 193.200 C 44.000 192.320,44.180 191.600,44.400 191.600 C 44.620 191.600,44.800 190.970,44.800 190.200 C 44.800 189.430,44.980 188.800,45.200 188.800 C 45.420 188.800,45.600 188.170,45.600 187.400 C 45.600 186.630,45.780 186.000,46.000 186.000 C 46.220 186.000,46.400 185.370,46.400 184.600 C 46.400 183.830,46.580 183.200,46.800 183.200 C 47.020 183.200,47.200 182.480,47.200 181.600 C 47.200 180.720,47.380 180.000,47.600 180.000 C 47.820 180.000,48.000 179.280,48.000 178.400 C 48.000 177.520,48.180 176.800,48.400 176.800 C 48.620 176.800,48.800 176.260,48.800 175.600 C 48.800 174.940,48.980 174.400,49.200 174.400 C 49.420 174.400,49.600 173.781,49.600 173.024 C 49.600 172.267,49.780 171.536,50.000 171.400 C 50.220 171.264,50.400 170.533,50.400 169.776 C 50.400 169.019,50.560 168.400,50.756 168.400 C 50.952 168.400,51.222 167.770,51.356 167.000 C 51.490 166.230,51.710 164.970,51.844 164.200 C 51.978 163.430,52.248 162.800,52.444 162.800 C 52.640 162.800,52.800 162.080,52.800 161.200 C 52.800 160.320,52.980 159.600,53.200 159.600 C 53.420 159.600,53.600 159.071,53.600 158.424 C 53.600 157.777,53.780 157.136,54.000 157.000 C 54.220 156.864,54.400 156.234,54.400 155.600 C 54.400 154.966,54.580 154.336,54.800 154.200 C 55.020 154.064,55.200 153.344,55.200 152.600 C 55.200 151.856,55.380 151.136,55.600 151.000 C 55.820 150.864,56.000 150.133,56.000 149.376 C 56.000 148.619,56.160 148.000,56.356 148.000 C 56.552 148.000,56.814 147.415,56.937 146.700 C 57.470 143.621,57.719 142.576,58.012 142.200 C 58.183 141.980,58.451 140.765,58.608 139.500 C 58.764 138.235,59.051 137.200,59.246 137.200 C 59.441 137.200,59.600 136.480,59.600 135.600 C 59.600 134.720,59.780 134.000,60.000 134.000 C 60.220 134.000,60.400 133.471,60.400 132.824 C 60.400 132.177,60.580 131.536,60.800 131.400 C 61.020 131.264,61.200 130.533,61.200 129.776 C 61.200 129.019,61.380 128.400,61.600 128.400 C 61.820 128.400,62.000 127.680,62.000 126.800 C 62.000 125.920,62.180 125.200,62.400 125.200 C 62.620 125.200,62.800 124.660,62.800 124.000 C 62.800 123.340,62.980 122.800,63.200 122.800 C 63.420 122.800,63.600 122.170,63.600 121.400 C 63.600 120.630,63.780 120.000,64.000 120.000 C 64.220 120.000,64.400 119.381,64.400 118.624 C 64.400 117.867,64.580 117.136,64.800 117.000 C 65.020 116.864,65.200 116.223,65.200 115.576 C 65.200 114.929,65.380 114.400,65.600 114.400 C 65.820 114.400,66.000 113.680,66.000 112.800 C 66.000 111.920,66.180 111.200,66.400 111.200 C 66.620 111.200,66.800 110.660,66.800 110.000 C 66.800 109.340,66.980 108.800,67.200 108.800 C 67.420 108.800,67.600 108.181,67.600 107.424 C 67.600 106.667,67.780 105.936,68.000 105.800 C 68.220 105.664,68.400 105.034,68.400 104.400 C 68.400 103.766,68.580 103.136,68.800 103.000 C 69.020 102.864,69.200 102.223,69.200 101.576 C 69.200 100.929,69.380 100.400,69.600 100.400 C 69.820 100.400,70.000 99.781,70.000 99.024 C 70.000 98.267,70.180 97.536,70.400 97.400 C 70.620 97.264,70.800 96.623,70.800 95.976 C 70.800 95.329,70.980 94.800,71.200 94.800 C 71.420 94.800,71.600 94.181,71.600 93.424 C 71.600 92.667,71.780 91.936,72.000 91.800 C 72.220 91.664,72.400 91.124,72.400 90.600 C 72.400 90.076,72.580 89.536,72.800 89.400 C 73.020 89.264,73.200 88.621,73.200 87.971 C 73.200 87.321,73.358 86.477,73.551 86.095 C 74.168 84.873,74.754 82.660,75.032 80.500 C 75.181 79.345,75.460 78.400,75.652 78.400 C 75.843 78.400,76.000 77.781,76.000 77.024 C 76.000 76.267,76.180 75.536,76.400 75.400 C 76.620 75.264,76.800 74.713,76.800 74.176 C 76.800 73.639,76.980 73.200,77.200 73.200 C 77.420 73.200,77.600 72.671,77.600 72.024 C 77.600 71.377,77.780 70.736,78.000 70.600 C 78.220 70.464,78.400 69.733,78.400 68.976 C 78.400 68.219,78.580 67.600,78.800 67.600 C 79.020 67.600,79.200 67.060,79.200 66.400 C 79.200 65.740,79.380 65.200,79.600 65.200 C 79.820 65.200,80.000 64.737,80.000 64.171 C 80.000 63.014,80.827 62.000,81.771 62.000 C 82.117 62.000,82.400 61.820,82.400 61.600 C 82.400 61.380,82.760 61.200,83.200 61.200 C 83.640 61.200,84.000 61.020,84.000 60.800 C 84.000 60.580,84.360 60.400,84.800 60.400 C 85.240 60.400,85.600 60.220,85.600 60.000 C 85.600 59.780,85.960 59.600,86.400 59.600 C 86.840 59.600,87.200 59.420,87.200 59.200 C 87.200 58.980,87.561 58.800,88.002 58.800 C 88.443 58.800,89.737 58.350,90.877 57.800 C 92.017 57.250,93.186 56.800,93.475 56.800 C 93.764 56.800,94.000 56.620,94.000 56.400 C 94.000 56.180,94.360 56.000,94.800 56.000 C 95.240 56.000,95.600 55.820,95.600 55.600 C 95.600 55.380,95.872 55.200,96.205 55.200 C 96.538 55.200,97.168 55.020,97.605 54.800 C 98.042 54.580,98.758 54.220,99.195 54.000 C 99.632 53.780,100.262 53.600,100.595 53.600 C 100.928 53.600,101.200 53.420,101.200 53.200 C 101.200 52.980,101.560 52.800,102.000 52.800 C 102.440 52.800,102.800 52.620,102.800 52.400 C 102.800 52.180,103.160 52.000,103.600 52.000 C 104.040 52.000,104.400 51.820,104.400 51.600 C 104.400 51.380,104.760 51.200,105.200 51.200 C 105.640 51.200,106.000 51.020,106.000 50.800 C 106.000 50.580,106.450 50.400,107.000 50.400 C 107.550 50.400,108.000 50.220,108.000 50.000 C 108.000 49.780,108.360 49.600,108.800 49.600 C 109.240 49.600,109.600 49.420,109.600 49.200 C 109.600 48.980,109.960 48.800,110.400 48.800 C 110.840 48.800,111.200 48.620,111.200 48.400 C 111.200 48.180,111.560 48.000,112.000 48.000 C 112.440 48.000,112.800 47.820,112.800 47.600 C 112.800 47.380,113.160 47.200,113.600 47.200 C 114.040 47.200,114.400 47.020,114.400 46.800 C 114.400 46.580,114.839 46.400,115.376 46.400 C 115.913 46.400,116.464 46.220,116.600 46.000 C 116.736 45.780,117.197 45.600,117.624 45.600 C 118.051 45.600,118.400 45.420,118.400 45.200 C 118.400 44.980,118.760 44.800,119.200 44.800 C 119.640 44.800,120.000 44.620,120.000 44.400 C 120.000 44.180,120.360 44.000,120.800 44.000 C 121.240 44.000,121.600 43.820,121.600 43.600 C 121.600 43.380,121.960 43.200,122.400 43.200 C 122.840 43.200,123.200 43.020,123.200 42.800 C 123.200 42.580,123.650 42.400,124.200 42.400 C 124.750 42.400,125.200 42.220,125.200 42.000 C 125.200 41.780,125.515 41.599,125.900 41.598 C 126.285 41.596,127.116 41.326,127.746 40.998 C 128.376 40.669,129.141 40.400,129.446 40.400 C 129.751 40.400,130.000 40.220,130.000 40.000 C 130.000 39.780,130.360 39.600,130.800 39.600 C 131.240 39.600,131.600 39.420,131.600 39.200 C 131.600 38.980,131.960 38.800,132.400 38.800 C 132.840 38.800,133.200 38.620,133.200 38.400 C 133.200 38.180,133.515 38.001,133.900 38.003 C 134.460 38.005,139.716 35.621,143.695 33.560 C 144.077 33.362,144.662 33.200,144.995 33.200 C 145.328 33.200,145.600 33.020,145.600 32.800 C 145.600 32.580,145.960 32.400,146.400 32.400 C 146.840 32.400,147.200 32.220,147.200 32.000 C 147.200 31.780,147.560 31.600,148.000 31.600 C 148.440 31.600,148.800 31.420,148.800 31.200 C 148.800 30.980,149.160 30.800,149.600 30.800 C 150.040 30.800,150.400 30.620,150.400 30.400 C 150.400 30.180,150.755 30.000,151.188 30.000 C 151.621 30.000,152.617 29.640,153.400 29.200 C 154.183 28.760,155.089 28.400,155.412 28.400 C 155.735 28.400,156.000 28.220,156.000 28.000 C 156.000 27.780,156.360 27.600,156.800 27.600 C 157.240 27.600,157.600 27.420,157.600 27.200 C 157.600 26.980,157.870 26.800,158.200 26.800 C 158.530 26.800,158.800 26.620,158.800 26.400 C 158.800 26.180,159.340 26.000,160.000 26.000 C 160.660 26.000,161.200 25.820,161.200 25.600 C 161.200 25.380,161.471 25.200,161.802 25.200 C 162.133 25.200,163.337 24.750,164.477 24.200 C 165.617 23.650,166.786 23.200,167.075 23.200 C 167.364 23.200,167.600 23.020,167.600 22.800 C 167.600 22.580,167.960 22.400,168.400 22.400 C 168.840 22.400,169.200 22.220,169.200 22.000 C 169.200 21.780,169.472 21.600,169.805 21.600 C 170.138 21.600,170.723 21.440,171.105 21.244 C 171.487 21.048,172.700 20.463,173.800 19.944 C 174.900 19.425,175.860 18.865,175.933 18.700 C 176.007 18.535,176.412 18.400,176.833 18.400 C 177.255 18.400,177.600 18.220,177.600 18.000 C 177.600 17.780,178.039 17.600,178.576 17.600 C 179.113 17.600,179.664 17.420,179.800 17.200 C 179.936 16.980,180.382 16.800,180.790 16.800 C 181.199 16.800,181.608 16.577,181.699 16.304 C 181.895 15.714,183.200 16.850,183.200 17.611 C 183.200 17.868,183.740 18.583,184.400 19.200 C 185.060 19.817,185.600 20.519,185.600 20.760 C 185.600 21.002,185.780 21.200,186.000 21.200 C 186.220 21.200,186.400 21.377,186.400 21.593 C 186.400 21.990,187.520 23.342,189.900 25.820 C 190.615 26.564,191.200 27.367,191.200 27.604 C 191.200 27.840,191.383 28.251,191.607 28.517 C 193.132 30.325,193.600 30.958,193.600 31.211 C 193.600 31.370,194.230 32.187,195.000 33.028 C 195.770 33.869,196.400 34.719,196.400 34.918 C 196.400 35.116,196.940 35.783,197.600 36.400 C 198.260 37.017,198.800 37.692,198.800 37.901 C 198.800 38.110,199.340 38.846,200.000 39.537 C 200.660 40.228,201.200 40.902,201.200 41.036 C 201.200 41.170,201.740 41.783,202.400 42.400 C 203.060 43.017,203.600 43.681,203.600 43.876 C 203.600 44.072,204.320 45.028,205.200 46.000 C 206.080 46.972,206.800 47.934,206.800 48.137 C 206.800 48.340,207.133 48.797,207.541 49.153 C 207.948 49.509,208.563 50.340,208.907 51.000 C 209.251 51.660,209.862 52.566,210.266 53.014 C 210.670 53.462,211.623 54.632,212.385 55.614 C 213.147 56.596,213.912 57.460,214.085 57.533 C 214.258 57.607,214.400 57.922,214.400 58.233 C 214.400 58.545,214.580 58.800,214.800 58.800 C 215.020 58.800,215.200 59.700,215.200 60.800 C 215.200 61.900,215.020 62.800,214.800 62.800 C 214.580 62.800,214.400 63.046,214.400 63.346 C 214.400 63.647,213.455 64.890,212.300 66.110 C 208.824 69.780,207.600 71.208,207.600 71.592 C 207.600 71.793,206.160 73.384,204.400 75.128 C 202.640 76.871,201.200 78.421,201.200 78.571 C 201.200 78.721,200.164 79.869,198.898 81.122 C 197.632 82.375,195.967 84.210,195.198 85.200 C 193.459 87.439,192.739 88.258,190.100 91.000 C 188.945 92.201,188.000 93.273,188.000 93.384 C 188.000 93.495,186.134 95.479,183.853 97.793 C 179.772 101.934,179.678 102.000,177.853 102.000 C 176.834 102.000,176.000 101.820,176.000 101.600 C 176.000 101.380,175.817 101.200,175.594 101.200 C 175.370 101.200,173.876 99.895,172.273 98.300 C 168.833 94.876,165.550 92.000,165.082 92.000 C 164.898 92.000,163.871 91.100,162.800 90.000 C 161.462 88.626,160.531 88.000,159.826 88.000 C 159.262 88.000,158.800 87.820,158.800 87.600 C 158.800 87.380,157.990 87.200,157.000 87.200 C 156.010 87.200,155.200 87.380,155.200 87.600 C 155.200 87.820,154.744 88.000,154.187 88.000 C 153.200 88.000,150.400 90.330,150.400 91.151 C 150.400 91.359,149.545 91.918,148.500 92.393 C 147.455 92.868,146.287 93.424,145.905 93.629 C 145.523 93.833,144.668 94.000,144.005 94.000 C 143.342 94.000,142.800 94.163,142.800 94.363 C 142.800 94.905,139.061 95.241,130.700 95.448 C 126.314 95.556,123.200 95.793,123.200 96.017 C 123.200 96.228,122.924 96.400,122.587 96.400 C 121.791 96.400,119.200 98.991,119.200 99.787 C 119.200 100.124,119.020 100.400,118.800 100.400 C 118.007 100.400,118.353 105.035,119.274 106.762 C 119.755 107.663,120.295 108.400,120.474 108.400 C 120.653 108.400,120.800 108.598,120.800 108.840 C 120.800 109.081,121.340 109.783,122.000 110.400 C 122.660 111.017,123.200 111.743,123.200 112.014 C 123.200 112.284,123.532 112.797,123.937 113.153 C 125.797 114.785,125.936 115.626,126.813 130.600 C 127.379 140.264,127.932 149.561,128.396 157.200 C 128.616 160.830,128.981 166.860,129.207 170.600 C 129.433 174.340,129.713 180.280,129.829 183.800 C 129.945 187.320,130.211 190.371,130.420 190.580 C 130.629 190.789,130.800 193.793,130.800 197.256 C 130.800 201.023,130.961 203.652,131.200 203.800 C 131.440 203.949,131.600 206.663,131.600 210.600 C 131.600 214.537,131.760 217.251,132.000 217.400 C 132.527 217.726,132.527 226.274,132.000 226.600 C 131.780 226.736,131.600 227.366,131.600 228.000 C 131.600 228.634,131.420 229.264,131.200 229.400 C 130.980 229.536,130.800 230.076,130.800 230.600 C 130.800 231.124,130.620 231.664,130.400 231.800 C 130.180 231.936,130.000 232.476,130.000 233.000 C 130.000 233.524,129.820 234.064,129.600 234.200 C 129.380 234.336,129.200 234.887,129.200 235.424 C 129.200 235.961,129.020 236.400,128.800 236.400 C 128.580 236.400,128.400 236.839,128.400 237.376 C 128.400 237.913,128.220 238.464,128.000 238.600 C 127.780 238.736,127.600 239.197,127.600 239.624 C 127.600 240.051,127.420 240.400,127.200 240.400 C 126.980 240.400,126.800 240.760,126.800 241.200 C 126.800 241.640,126.663 242.000,126.495 242.000 C 126.191 242.000,125.471 243.178,124.974 244.487 C 124.831 244.864,124.373 245.282,123.957 245.414 C 123.541 245.546,123.200 245.822,123.200 246.027 C 123.200 246.232,122.917 246.400,122.571 246.400 C 121.853 246.400,120.800 247.334,120.800 247.971 C 120.800 248.207,120.620 248.400,120.400 248.400 C 120.180 248.400,120.000 248.850,120.000 249.400 C 120.000 249.950,119.820 250.400,119.600 250.400 C 119.078 250.400,119.078 254.677,119.600 255.000 C 119.820 255.136,120.000 255.597,120.000 256.024 C 120.000 256.451,120.180 256.800,120.400 256.800 C 120.620 256.800,120.800 257.048,120.800 257.351 C 120.800 257.655,121.340 258.127,122.000 258.400 C 122.660 258.673,123.200 259.055,123.200 259.249 C 123.200 259.442,124.910 259.600,127.000 259.600 C 129.267 259.600,130.800 259.439,130.800 259.200 C 130.800 258.980,131.150 258.800,131.577 258.800 C 132.464 258.800,136.713 254.757,137.568 253.100 C 137.880 252.495,138.285 252.000,138.468 252.000 C 138.650 252.000,138.800 251.655,138.800 251.233 C 138.800 250.812,138.935 250.407,139.100 250.333 C 139.621 250.102,141.155 246.846,141.428 245.394 C 141.571 244.627,141.849 244.000,142.045 244.000 C 142.240 244.000,142.400 243.460,142.400 242.800 C 142.400 242.140,142.580 241.600,142.800 241.600 C 143.020 241.600,143.200 241.328,143.200 240.995 C 143.200 240.662,143.380 240.032,143.600 239.595 C 143.820 239.158,144.180 238.442,144.400 238.005 C 144.620 237.568,144.800 236.668,144.800 236.005 C 144.800 235.342,144.980 234.800,145.200 234.800 C 145.420 234.800,145.600 234.260,145.600 233.600 C 145.600 232.940,145.780 232.400,146.000 232.400 C 146.220 232.400,146.400 232.109,146.400 231.754 C 146.400 231.054,149.082 228.400,149.790 228.400 C 150.028 228.400,150.483 228.040,150.800 227.600 C 151.117 227.160,151.697 226.800,152.088 226.800 C 152.480 226.800,152.800 226.654,152.800 226.475 C 152.800 226.297,154.150 225.447,155.800 224.587 C 157.450 223.726,158.800 222.883,158.800 222.711 C 158.800 222.540,159.160 222.400,159.600 222.400 C 160.040 222.400,160.400 222.220,160.400 222.000 C 160.400 221.780,160.760 221.600,161.200 221.600 C 161.640 221.600,162.000 221.420,162.000 221.200 C 162.000 220.980,162.360 220.800,162.800 220.800 C 163.240 220.800,163.600 220.620,163.600 220.400 C 163.600 220.180,163.960 220.000,164.400 220.000 C 164.840 220.000,165.200 219.820,165.200 219.600 C 165.200 219.380,165.639 219.200,166.176 219.200 C 166.713 219.200,167.264 219.020,167.400 218.800 C 167.536 218.580,167.997 218.400,168.424 218.400 C 168.851 218.400,169.200 218.220,169.200 218.000 C 169.200 217.780,169.639 217.600,170.176 217.600 C 170.713 217.600,171.264 217.420,171.400 217.200 C 171.536 216.980,172.076 216.800,172.600 216.800 C 173.124 216.800,173.664 216.620,173.800 216.400 C 173.936 216.180,174.487 216.000,175.024 216.000 C 175.561 216.000,176.000 215.820,176.000 215.600 C 176.000 215.380,176.720 215.200,177.600 215.200 C 178.480 215.200,179.200 215.020,179.200 214.800 C 179.200 214.580,180.100 214.400,181.200 214.400 C 182.300 214.400,183.200 214.220,183.200 214.000 C 183.200 213.778,184.267 213.600,185.600 213.600 C 186.933 213.600,188.000 213.422,188.000 213.200 C 188.000 212.946,191.000 212.800,196.200 212.800 C 201.400 212.800,204.400 212.946,204.400 213.200 C 204.400 213.425,205.525 213.600,206.976 213.600 C 208.393 213.600,209.664 213.780,209.800 214.000 C 209.936 214.220,210.757 214.400,211.624 214.400 C 212.491 214.400,213.200 214.580,213.200 214.800 C 213.200 215.020,213.819 215.200,214.576 215.200 C 215.333 215.200,216.064 215.380,216.200 215.600 C 216.336 215.820,217.067 216.000,217.824 216.000 C 218.581 216.000,219.200 216.180,219.200 216.400 C 219.200 216.620,219.740 216.800,220.400 216.800 C 221.060 216.800,221.600 216.980,221.600 217.200 C 221.600 217.420,222.140 217.600,222.800 217.600 C 223.460 217.600,224.000 217.780,224.000 218.000 C 224.000 218.220,224.360 218.400,224.800 218.400 C 225.240 218.400,225.600 218.580,225.600 218.800 C 225.600 219.020,226.050 219.200,226.600 219.200 C 227.150 219.200,227.600 219.380,227.600 219.600 C 227.600 219.820,227.960 220.000,228.400 220.000 C 228.840 220.000,229.200 220.180,229.200 220.400 C 229.200 220.620,229.560 220.800,230.000 220.800 C 230.440 220.800,230.800 220.980,230.800 221.200 C 230.800 221.420,231.034 221.600,231.320 221.600 C 232.056 221.600,233.993 222.541,233.997 222.900 C 233.999 223.065,234.272 223.200,234.605 223.200 C 235.270 223.200,236.663 223.918,237.513 224.700 C 237.812 224.975,238.404 225.200,238.829 225.200 C 239.253 225.200,239.600 225.380,239.600 225.600 C 239.600 225.820,239.920 226.000,240.312 226.000 C 240.703 226.000,241.283 226.360,241.600 226.800 C 241.917 227.240,242.319 227.600,242.492 227.600 C 242.665 227.600,243.372 228.140,244.063 228.800 C 244.754 229.460,245.475 230.000,245.665 230.000 C 246.154 230.000,252.405 236.313,253.588 238.000 C 254.128 238.770,255.071 239.877,255.685 240.460 C 256.298 241.044,256.800 241.679,256.800 241.872 C 256.800 242.065,257.160 242.483,257.600 242.800 C 258.040 243.117,258.400 243.599,258.400 243.871 C 258.400 244.327,259.852 246.761,260.794 247.883 C 261.017 248.149,261.200 248.644,261.200 248.983 C 261.200 249.322,261.380 249.600,261.600 249.600 C 261.820 249.600,262.000 249.960,262.000 250.400 C 262.000 250.840,262.180 251.200,262.400 251.200 C 262.620 251.200,262.800 251.560,262.800 252.000 C 262.800 252.440,262.980 252.800,263.200 252.800 C 263.420 252.800,263.600 253.149,263.600 253.576 C 263.600 254.003,263.780 254.464,264.000 254.600 C 264.220 254.736,264.400 255.287,264.400 255.824 C 264.400 256.361,264.580 256.800,264.800 256.800 C 265.020 256.800,265.200 257.610,265.200 258.600 C 265.200 259.590,265.380 260.400,265.600 260.400 C 265.820 260.400,266.000 260.940,266.000 261.600 C 266.000 262.260,266.180 262.800,266.400 262.800 C 266.620 262.800,266.800 263.094,266.800 263.453 C 266.800 264.353,268.804 265.999,269.900 266.000 C 270.395 266.000,270.800 266.180,270.800 266.400 C 270.800 266.620,271.790 266.800,273.000 266.800 C 274.210 266.800,275.200 266.620,275.200 266.400 C 275.200 266.180,275.560 266.000,276.000 266.000 C 276.440 266.000,276.800 265.820,276.800 265.600 C 276.800 265.380,277.083 265.200,277.429 265.200 C 278.237 265.200,279.200 264.237,279.200 263.429 C 279.200 263.083,279.380 262.800,279.600 262.800 C 279.841 262.800,280.000 261.141,280.000 258.624 C 280.000 256.271,279.825 254.339,279.600 254.200 C 279.380 254.064,279.200 253.333,279.200 252.576 C 279.200 251.819,279.020 251.200,278.800 251.200 C 278.580 251.200,278.400 250.660,278.400 250.000 C 278.400 249.340,278.220 248.800,278.000 248.800 C 277.780 248.800,277.600 248.528,277.600 248.195 C 277.600 247.862,277.438 247.277,277.241 246.895 C 277.043 246.513,276.197 244.760,275.361 243.000 C 274.524 241.240,273.740 239.710,273.619 239.600 C 273.498 239.490,273.144 238.905,272.832 238.300 C 272.520 237.695,272.115 237.200,271.932 237.200 C 271.750 237.200,271.600 236.880,271.600 236.488 C 271.600 236.097,271.240 235.517,270.800 235.200 C 270.360 234.883,270.000 234.420,270.000 234.171 C 270.000 233.922,269.460 233.154,268.800 232.463 C 268.140 231.772,267.600 231.044,267.600 230.844 C 267.600 230.644,266.700 229.562,265.600 228.439 C 264.500 227.315,263.600 226.217,263.600 225.998 C 263.600 225.779,263.375 225.595,263.100 225.588 C 262.825 225.581,262.960 225.372,263.400 225.122 C 263.840 224.873,264.290 224.545,264.400 224.395 C 266.193 221.941,274.875 212.800,275.412 212.800 C 275.544 212.800,276.506 211.923,277.550 210.851 C 278.595 209.779,279.798 208.790,280.224 208.653 C 280.651 208.517,281.540 207.938,282.200 207.368 C 282.860 206.797,283.895 206.037,284.500 205.679 C 285.105 205.321,285.600 204.886,285.600 204.714 C 285.600 204.541,285.836 204.400,286.125 204.400 C 286.413 204.400,287.036 204.040,287.508 203.600 C 287.980 203.160,288.644 202.800,288.983 202.800 C 289.322 202.800,289.600 202.620,289.600 202.400 C 289.600 202.180,289.870 202.000,290.200 202.000 C 290.530 202.000,290.801 201.865,290.803 201.700 C 290.805 201.535,291.210 201.213,291.703 200.983 C 292.196 200.754,293.410 200.147,294.400 199.633 C 297.439 198.057,297.571 198.000,298.195 198.000 C 298.528 198.000,298.800 197.820,298.800 197.600 C 298.800 197.380,299.160 197.200,299.600 197.200 C 300.040 197.200,300.400 197.020,300.400 196.800 C 300.400 196.580,300.940 196.400,301.600 196.400 C 302.260 196.400,302.800 196.220,302.800 196.000 C 302.800 195.780,303.340 195.600,304.000 195.600 C 304.660 195.600,305.200 195.420,305.200 195.200 C 305.200 194.980,305.639 194.800,306.176 194.800 C 306.713 194.800,307.264 194.620,307.400 194.400 C 307.536 194.180,308.267 194.000,309.024 194.000 C 309.781 194.000,310.400 193.820,310.400 193.600 C 310.400 193.380,311.300 193.200,312.400 193.200 C 313.500 193.200,314.400 193.020,314.400 192.800 C 314.400 192.567,315.733 192.400,317.600 192.400 C 319.467 192.400,320.800 192.233,320.800 192.000 C 320.800 191.756,322.667 191.600,325.600 191.600 C 328.533 191.600,330.400 191.756,330.400 192.000 C 330.400 192.235,331.800 192.400,333.800 192.400 C 335.800 192.400,337.200 192.565,337.200 192.800 C 337.200 193.020,338.100 193.200,339.200 193.200 C 340.300 193.200,341.200 193.380,341.200 193.600 C 341.200 193.820,341.909 194.000,342.776 194.000 C 343.643 194.000,344.464 194.180,344.600 194.400 C 344.736 194.620,345.467 194.800,346.224 194.800 C 346.981 194.800,347.600 194.980,347.600 195.200 C 347.600 195.420,348.230 195.600,349.000 195.600 C 349.770 195.600,350.400 195.780,350.400 196.000 C 350.400 196.220,350.940 196.400,351.600 196.400 C 352.260 196.400,352.800 196.580,352.800 196.800 C 352.800 197.020,353.149 197.200,353.576 197.200 C 354.003 197.200,354.464 197.380,354.600 197.600 C 354.736 197.820,355.287 198.000,355.824 198.000 C 356.361 198.000,356.800 198.180,356.800 198.400 C 356.800 198.620,357.149 198.800,357.576 198.800 C 358.003 198.800,358.464 198.980,358.600 199.200 C 358.736 199.420,359.197 199.600,359.624 199.600 C 360.051 199.600,360.400 199.780,360.400 200.000 C 360.400 200.220,360.760 200.400,361.200 200.400 C 361.640 200.400,362.000 200.580,362.000 200.800 C 362.000 201.020,362.253 201.200,362.562 201.200 C 363.228 201.200,366.541 202.868,366.733 203.300 C 366.807 203.465,367.212 203.600,367.633 203.600 C 368.055 203.600,368.400 203.780,368.400 204.000 C 368.400 204.220,368.760 204.400,369.200 204.400 C 369.640 204.400,370.000 204.580,370.000 204.800 C 370.000 205.020,370.345 205.200,370.767 205.200 C 371.188 205.200,371.593 205.336,371.667 205.503 C 371.740 205.669,373.285 206.704,375.100 207.802 C 376.915 208.900,378.400 209.934,378.400 210.099 C 378.400 210.265,378.670 210.400,379.000 210.400 C 379.330 210.400,379.600 210.580,379.600 210.800 C 379.600 211.020,379.830 211.200,380.112 211.200 C 380.393 211.200,380.883 211.560,381.200 212.000 C 381.539 212.470,382.235 212.800,382.888 212.800 C 383.500 212.800,384.000 212.980,384.000 213.200 C 384.000 213.722,387.877 213.722,388.200 213.200 C 388.336 212.980,388.763 212.800,389.148 212.800 C 390.178 212.800,392.400 210.488,392.400 209.417 C 392.400 209.078,392.580 208.800,392.800 208.800 C 393.586 208.800,393.254 203.492,392.400 202.400 C 391.970 201.850,391.614 201.175,391.609 200.900 C 391.604 200.625,391.465 200.400,391.300 200.399 C 391.135 200.399,390.370 199.859,389.600 199.200 C 388.830 198.541,388.015 198.001,387.788 198.001 C 387.562 198.000,387.117 197.640,386.800 197.200 C 386.483 196.760,386.027 196.400,385.787 196.400 C 385.547 196.400,384.994 196.085,384.558 195.700 C 383.553 194.812,381.609 193.617,380.700 193.329 C 380.315 193.207,380.000 192.962,380.000 192.785 C 380.000 192.608,379.460 192.345,378.800 192.200 C 378.140 192.055,377.600 191.771,377.600 191.568 C 377.600 191.366,377.240 191.200,376.800 191.200 C 376.360 191.200,376.000 191.054,376.000 190.875 C 376.000 190.696,375.370 190.302,374.600 190.000 C 373.830 189.698,373.200 189.304,373.200 189.125 C 373.200 188.946,372.840 188.800,372.400 188.800 C 371.960 188.800,371.600 188.620,371.600 188.400 C 371.600 188.180,371.240 188.000,370.800 188.000 C 370.360 188.000,370.000 187.820,370.000 187.600 C 370.000 187.380,369.640 187.200,369.200 187.200 C 368.760 187.200,368.400 187.020,368.400 186.800 C 368.400 186.580,368.051 186.400,367.624 186.400 C 367.197 186.400,366.736 186.220,366.600 186.000 C 366.464 185.780,365.913 185.600,365.376 185.600 C 364.839 185.600,364.400 185.420,364.400 185.200 C 364.400 184.980,364.040 184.800,363.600 184.800 C 363.160 184.800,362.800 184.620,362.800 184.400 C 362.800 184.180,362.260 184.000,361.600 184.000 C 360.940 184.000,360.400 183.820,360.400 183.600 C 360.400 183.380,359.961 183.200,359.424 183.200 C 358.887 183.200,358.336 183.020,358.200 182.800 C 358.064 182.580,357.513 182.400,356.976 182.400 C 356.439 182.400,356.000 182.220,356.000 182.000 C 356.000 181.780,355.460 181.600,354.800 181.600 C 354.140 181.600,353.600 181.420,353.600 181.200 C 353.600 180.980,353.071 180.800,352.424 180.800 C 351.777 180.800,351.136 180.620,351.000 180.400 C 350.864 180.180,350.054 180.000,349.200 180.000 C 348.346 180.000,347.536 179.820,347.400 179.600 C 347.264 179.380,346.443 179.200,345.576 179.200 C 344.709 179.200,344.000 179.020,344.000 178.800 C 344.000 178.580,343.021 178.400,341.824 178.400 C 340.627 178.400,339.536 178.220,339.400 178.000 C 339.264 177.780,337.554 177.600,335.600 177.600 C 333.646 177.600,331.936 177.420,331.800 177.200 C 331.470 176.667,320.530 176.667,320.200 177.200 C 320.064 177.420,318.354 177.600,316.400 177.600 C 314.446 177.600,312.736 177.780,312.600 178.000 C 312.464 178.220,311.463 178.400,310.376 178.400 C 309.289 178.400,308.400 178.580,308.400 178.800 C 308.400 179.020,307.601 179.200,306.624 179.200 C 305.647 179.200,304.736 179.380,304.600 179.600 C 304.464 179.820,303.971 180.000,303.505 180.000 C 302.604 180.000,300.261 180.665,299.105 181.249 C 298.723 181.442,298.059 181.600,297.629 181.600 C 297.199 181.600,296.736 181.780,296.600 182.000 C 296.464 182.220,296.003 182.400,295.576 182.400 C 295.149 182.400,294.800 182.580,294.800 182.800 C 294.800 183.020,294.350 183.200,293.800 183.200 C 293.250 183.200,292.800 183.380,292.800 183.600 C 292.800 183.820,292.440 184.000,292.000 184.000 C 291.560 184.000,291.200 184.180,291.200 184.400 C 291.200 184.620,290.840 184.800,290.400 184.800 C 289.960 184.800,289.600 184.980,289.600 185.200 C 289.600 185.420,289.240 185.600,288.800 185.600 C 288.360 185.600,288.000 185.780,288.000 186.000 C 288.000 186.220,287.640 186.400,287.200 186.400 C 286.760 186.400,286.400 186.580,286.400 186.800 C 286.400 187.020,286.040 187.200,285.600 187.200 C 285.160 187.200,284.800 187.380,284.800 187.600 C 284.800 187.820,284.440 188.000,284.000 188.000 C 283.560 188.000,283.200 188.180,283.200 188.400 C 283.200 188.620,282.840 188.800,282.400 188.800 C 281.960 188.800,281.600 188.980,281.600 189.200 C 281.600 189.420,281.330 189.600,281.000 189.600 C 280.670 189.600,280.400 189.780,280.400 190.000 C 280.400 190.220,280.130 190.400,279.800 190.400 C 279.470 190.400,279.200 190.580,279.200 190.800 C 279.200 191.020,279.016 191.200,278.791 191.200 C 278.315 191.200,275.353 193.081,274.225 194.100 C 273.798 194.485,273.285 194.800,273.085 194.800 C 272.885 194.800,272.217 195.340,271.600 196.000 C 270.983 196.660,270.270 197.200,270.014 197.200 C 269.758 197.200,268.699 198.055,267.662 199.100 C 266.624 200.145,264.971 201.620,263.988 202.378 C 263.004 203.135,261.570 204.465,260.800 205.333 C 260.030 206.201,258.635 207.691,257.700 208.645 C 256.765 209.599,256.000 210.478,256.000 210.598 C 256.000 211.008,251.620 215.200,251.192 215.200 C 250.958 215.200,250.380 214.840,249.908 214.400 C 249.436 213.960,248.813 213.600,248.525 213.600 C 248.236 213.600,248.000 213.420,248.000 213.200 C 248.000 212.980,247.640 212.800,247.200 212.800 C 246.760 212.800,246.400 212.648,246.400 212.463 C 246.400 212.277,245.545 211.695,244.500 211.168 C 243.455 210.642,242.510 210.118,242.400 210.005 C 242.002 209.597,239.159 208.400,238.586 208.400 C 238.264 208.400,238.000 208.220,238.000 208.000 C 238.000 207.780,237.640 207.600,237.200 207.600 C 236.760 207.600,236.400 207.420,236.400 207.200 C 236.400 206.980,235.950 206.800,235.400 206.800 C 234.850 206.800,234.400 206.620,234.400 206.400 C 234.400 206.180,233.950 206.000,233.400 206.000 C 232.850 206.000,232.400 205.820,232.400 205.600 C 232.400 205.380,232.040 205.200,231.600 205.200 C 231.160 205.200,230.800 205.020,230.800 204.800 C 230.800 204.580,230.260 204.400,229.600 204.400 C 228.940 204.400,228.400 204.220,228.400 204.000 C 228.400 203.780,227.860 203.600,227.200 203.600 C 226.540 203.600,226.000 203.420,226.000 203.200 C 226.000 202.980,225.460 202.800,224.800 202.800 C 224.140 202.800,223.600 202.620,223.600 202.400 C 223.600 202.180,222.970 202.000,222.200 202.000 C 221.430 202.000,220.800 201.820,220.800 201.600 C 220.800 201.380,220.260 201.200,219.600 201.200 C 218.940 201.200,218.400 201.020,218.400 200.800 C 218.400 200.580,217.500 200.400,216.400 200.400 C 215.300 200.400,214.400 200.220,214.400 200.000 C 214.400 199.780,213.500 199.600,212.400 199.600 C 211.300 199.600,210.400 199.420,210.400 199.200 C 210.400 198.969,209.141 198.800,207.424 198.800 C 205.787 198.800,204.336 198.620,204.200 198.400 C 203.864 197.856,187.200 197.856,187.200 198.400 C 187.200 198.633,185.867 198.800,184.000 198.800 C 182.133 198.800,180.800 198.967,180.800 199.200 C 180.800 199.420,180.001 199.600,179.024 199.600 C 178.047 199.600,177.136 199.780,177.000 200.000 C 176.864 200.220,176.054 200.400,175.200 200.400 C 174.346 200.400,173.536 200.580,173.400 200.800 C 173.264 201.020,172.623 201.200,171.976 201.200 C 171.329 201.200,170.800 201.380,170.800 201.600 C 170.800 201.820,170.258 202.000,169.595 202.000 C 168.932 202.000,168.032 202.180,167.595 202.400 C 167.158 202.620,166.442 202.980,166.005 203.200 C 165.568 203.420,164.848 203.600,164.405 203.600 C 163.962 203.600,163.600 203.780,163.600 204.000 C 163.600 204.220,163.161 204.400,162.624 204.400 C 162.087 204.400,161.536 204.580,161.400 204.800 C 161.264 205.020,160.803 205.200,160.376 205.200 C 159.949 205.200,159.600 205.380,159.600 205.600 C 159.600 205.820,159.251 206.000,158.824 206.000 C 158.397 206.000,157.936 206.180,157.800 206.400 C 157.664 206.620,157.203 206.800,156.776 206.800 C 156.349 206.800,156.000 206.980,156.000 207.200 C 156.000 207.420,155.640 207.600,155.200 207.600 C 154.760 207.600,154.400 207.780,154.400 208.000 C 154.400 208.220,154.113 208.400,153.762 208.400 C 153.056 208.400,150.677 209.627,150.467 210.100 C 150.393 210.265,149.988 210.400,149.567 210.400 C 149.145 210.400,148.800 210.559,148.800 210.753 C 148.800 210.948,148.485 211.218,148.100 211.354 C 147.715 211.489,147.175 211.705,146.900 211.834 C 146.515 212.013,146.400 210.998,146.400 207.433 C 146.400 204.611,146.244 202.800,146.000 202.800 C 145.749 202.800,145.600 200.333,145.600 196.200 C 145.600 192.067,145.451 189.600,145.200 189.600 C 144.949 189.600,144.800 187.133,144.800 183.000 C 144.800 178.867,144.651 176.400,144.400 176.400 C 144.150 176.400,144.000 173.941,144.000 169.824 C 144.000 165.871,143.840 163.149,143.600 163.000 C 143.360 162.851,143.200 160.129,143.200 156.176 C 143.200 152.059,143.050 149.600,142.800 149.600 C 142.549 149.600,142.400 147.133,142.400 143.000 C 142.400 139.370,142.245 136.400,142.056 136.400 C 141.867 136.400,141.579 130.956,141.417 124.302 C 141.255 117.647,140.961 111.900,140.763 111.531 C 140.027 110.155,140.740 109.600,143.243 109.600 C 144.539 109.600,145.600 109.446,145.600 109.257 C 145.600 109.068,146.717 108.797,148.082 108.654 C 149.448 108.512,150.744 108.216,150.962 107.998 C 151.181 107.779,151.639 107.594,151.980 107.587 C 152.321 107.581,153.650 107.053,154.933 106.415 L 157.266 105.256 159.133 107.132 C 160.160 108.164,161.715 109.546,162.588 110.204 C 163.461 110.862,164.878 112.075,165.736 112.900 C 166.594 113.725,167.545 114.400,167.848 114.400 C 168.152 114.400,168.400 114.580,168.400 114.800 C 168.400 115.020,168.760 115.200,169.200 115.200 C 169.640 115.200,170.000 115.380,170.000 115.600 C 170.000 115.820,170.540 116.000,171.200 116.000 C 171.860 116.000,172.400 116.180,172.400 116.400 C 172.400 116.648,174.525 116.800,177.976 116.800 C 181.263 116.800,183.654 116.636,183.800 116.400 C 183.936 116.180,184.391 116.000,184.811 116.000 C 185.525 116.000,188.355 114.619,188.800 114.053 C 188.910 113.913,189.495 113.544,190.100 113.232 C 190.705 112.920,191.200 112.521,191.200 112.346 C 191.200 112.170,192.730 110.510,194.600 108.657 C 196.470 106.804,198.000 105.169,198.000 105.024 C 198.000 104.880,199.219 103.555,200.709 102.081 C 202.198 100.606,203.861 98.770,204.403 98.000 C 204.946 97.230,206.112 95.851,206.995 94.935 C 207.878 94.019,209.140 92.605,209.800 91.792 C 210.460 90.979,212.485 88.787,214.300 86.921 C 216.115 85.054,217.600 83.353,217.600 83.141 C 217.600 82.929,218.635 81.728,219.900 80.473 C 221.165 79.217,222.914 77.292,223.786 76.195 C 224.658 75.098,225.693 73.909,226.086 73.553 C 226.479 73.197,226.800 72.695,226.800 72.436 C 226.800 72.178,227.160 71.580,227.600 71.108 C 228.040 70.636,228.400 69.934,228.400 69.548 C 228.400 69.163,228.580 68.736,228.800 68.600 C 229.020 68.464,229.200 67.823,229.200 67.176 C 229.200 66.529,229.380 66.000,229.600 66.000 C 229.845 66.000,230.000 64.067,230.000 61.000 C 230.000 57.933,229.845 56.000,229.600 56.000 C 229.380 56.000,229.200 55.471,229.200 54.824 C 229.200 54.177,229.020 53.536,228.800 53.400 C 228.580 53.264,228.400 52.713,228.400 52.176 C 228.400 51.639,228.250 51.200,228.068 51.200 C 227.885 51.200,227.481 50.705,227.170 50.100 C 226.860 49.495,226.315 48.730,225.960 48.400 C 225.605 48.070,225.199 47.440,225.058 47.000 C 224.917 46.560,224.262 45.625,223.601 44.922 C 222.940 44.219,222.400 43.526,222.400 43.382 C 222.400 43.239,221.860 42.617,221.200 42.000 C 220.540 41.383,220.000 40.663,220.000 40.400 C 220.000 40.137,219.460 39.417,218.800 38.800 C 218.140 38.183,217.600 37.519,217.600 37.324 C 217.600 37.128,216.880 36.172,216.000 35.200 C 215.120 34.228,214.400 33.272,214.400 33.076 C 214.400 32.881,213.860 32.217,213.200 31.600 C 212.540 30.983,212.000 30.263,212.000 30.000 C 212.000 29.737,211.460 29.017,210.800 28.400 C 210.140 27.783,209.600 27.164,209.600 27.023 C 209.600 26.882,209.417 26.549,209.193 26.283 C 207.694 24.506,207.200 23.846,207.200 23.622 C 207.200 23.482,206.570 22.699,205.800 21.882 C 205.030 21.066,204.400 20.201,204.400 19.960 C 204.400 19.718,203.860 19.017,203.200 18.400 C 202.540 17.783,202.000 17.108,202.000 16.899 C 202.000 16.690,201.460 15.954,200.800 15.263 C 200.140 14.572,199.600 13.826,199.600 13.604 C 199.600 13.382,199.420 13.200,199.200 13.200 C 198.980 13.200,198.800 13.002,198.800 12.760 C 198.800 12.519,198.260 11.817,197.600 11.200 C 196.940 10.583,196.400 9.953,196.400 9.800 C 196.400 9.647,195.860 9.017,195.200 8.400 C 194.540 7.783,194.000 7.063,194.000 6.800 C 194.000 6.537,193.460 5.817,192.800 5.200 C 192.140 4.583,191.597 3.836,191.594 3.540 C 191.590 3.243,191.036 2.374,190.361 1.609 L 189.136 0.218 185.068 0.142 C 182.831 0.101,180.595 0.154,180.100 0.261 M288.800 26.383 C 288.800 26.612,288.080 26.800,287.200 26.800 C 286.320 26.800,285.600 26.980,285.600 27.200 C 285.600 27.420,285.060 27.600,284.400 27.600 C 283.740 27.600,283.200 27.780,283.200 28.000 C 283.200 28.220,282.851 28.400,282.424 28.400 C 281.997 28.400,281.536 28.580,281.400 28.800 C 281.264 29.020,280.837 29.200,280.452 29.200 C 280.066 29.200,279.402 29.515,278.975 29.900 C 278.549 30.285,277.677 30.870,277.039 31.200 C 276.400 31.530,275.036 32.624,274.007 33.631 C 272.979 34.638,271.836 35.577,271.469 35.718 C 271.101 35.859,270.800 36.160,270.800 36.385 C 270.800 36.611,269.900 37.715,268.800 38.839 C 267.700 39.962,266.800 41.133,266.800 41.441 C 266.800 41.748,266.620 42.000,266.400 42.000 C 266.180 42.000,266.000 42.270,266.000 42.600 C 266.000 42.930,265.820 43.200,265.600 43.200 C 265.380 43.200,265.200 43.560,265.200 44.000 C 265.200 44.440,265.020 44.800,264.800 44.800 C 264.580 44.800,264.400 45.160,264.400 45.600 C 264.400 46.040,264.220 46.400,264.000 46.400 C 263.780 46.400,263.600 46.749,263.600 47.176 C 263.600 47.603,263.420 48.064,263.200 48.200 C 262.980 48.336,262.800 48.876,262.800 49.400 C 262.800 49.924,262.620 50.464,262.400 50.600 C 262.180 50.736,262.000 51.546,262.000 52.400 C 262.000 53.254,261.820 54.064,261.600 54.200 C 261.361 54.347,261.200 56.930,261.200 60.600 C 261.200 64.270,261.361 66.853,261.600 67.000 C 261.820 67.136,262.000 67.946,262.000 68.800 C 262.000 69.654,262.180 70.464,262.400 70.600 C 262.620 70.736,262.800 71.163,262.800 71.548 C 262.800 71.934,263.160 72.995,263.600 73.906 C 264.040 74.816,264.400 75.840,264.400 76.181 C 264.400 76.521,264.558 76.800,264.751 76.800 C 264.945 76.800,265.327 77.340,265.600 78.000 C 265.873 78.660,266.255 79.200,266.449 79.200 C 266.642 79.200,266.800 79.488,266.800 79.840 C 266.800 80.191,267.340 80.983,268.000 81.600 C 268.660 82.217,269.200 82.910,269.200 83.141 C 269.200 83.803,317.944 132.400,318.607 132.400 C 318.933 132.400,319.200 132.580,319.200 132.800 C 319.200 133.020,319.560 133.200,320.000 133.200 C 320.440 133.200,320.800 133.380,320.800 133.600 C 320.800 133.820,321.599 134.000,322.576 134.000 C 323.553 134.000,324.464 133.820,324.600 133.600 C 324.736 133.380,325.211 133.200,325.657 133.200 C 326.630 133.200,328.708 131.191,354.940 104.881 C 378.707 81.045,378.400 81.361,378.400 80.698 C 378.400 80.411,378.760 79.917,379.200 79.600 C 379.640 79.283,380.000 78.703,380.000 78.312 C 380.000 77.920,380.180 77.600,380.400 77.600 C 380.620 77.600,380.800 77.240,380.800 76.800 C 380.800 76.360,380.980 76.000,381.200 76.000 C 381.420 76.000,381.600 75.640,381.600 75.200 C 381.600 74.760,381.780 74.400,382.000 74.400 C 382.220 74.400,382.400 73.950,382.400 73.400 C 382.400 72.850,382.580 72.400,382.800 72.400 C 383.020 72.400,383.200 71.770,383.200 71.000 C 383.200 70.230,383.380 69.600,383.600 69.600 C 383.820 69.600,384.000 68.610,384.000 67.400 C 384.000 66.190,384.180 65.200,384.400 65.200 C 384.643 65.200,384.800 63.400,384.800 60.600 C 384.800 57.800,384.643 56.000,384.400 56.000 C 384.180 56.000,384.000 55.111,384.000 54.024 C 384.000 52.937,383.820 51.936,383.600 51.800 C 383.380 51.664,383.200 50.933,383.200 50.176 C 383.200 49.419,383.020 48.800,382.800 48.800 C 382.580 48.800,382.400 48.350,382.400 47.800 C 382.400 47.250,382.220 46.800,382.000 46.800 C 381.780 46.800,381.600 46.566,381.600 46.280 C 381.600 45.544,380.659 43.607,380.300 43.603 C 380.135 43.601,380.000 43.330,380.000 43.000 C 380.000 42.670,379.820 42.400,379.600 42.400 C 379.380 42.400,379.200 42.170,379.200 41.888 C 379.200 41.607,378.840 41.117,378.400 40.800 C 377.960 40.483,377.600 39.987,377.600 39.698 C 377.600 39.410,377.015 38.557,376.300 37.803 C 375.585 37.050,374.370 35.714,373.600 34.835 C 372.830 33.956,371.975 33.229,371.700 33.218 C 371.425 33.208,371.200 33.020,371.200 32.800 C 371.200 32.580,371.012 32.400,370.783 32.400 C 370.554 32.400,369.980 32.040,369.508 31.600 C 369.036 31.160,368.413 30.800,368.125 30.800 C 367.836 30.800,367.600 30.620,367.600 30.400 C 367.600 30.180,367.240 30.000,366.800 30.000 C 366.360 30.000,366.000 29.820,366.000 29.600 C 366.000 29.380,365.640 29.200,365.200 29.200 C 364.760 29.200,364.400 29.020,364.400 28.800 C 364.400 28.580,364.051 28.400,363.624 28.400 C 363.197 28.400,362.736 28.220,362.600 28.000 C 362.464 27.780,361.913 27.600,361.376 27.600 C 360.839 27.600,360.400 27.420,360.400 27.200 C 360.400 26.980,359.691 26.800,358.824 26.800 C 357.957 26.800,357.136 26.620,357.000 26.400 C 356.665 25.858,342.800 25.858,342.800 26.400 C 342.800 26.620,342.080 26.800,341.200 26.800 C 340.320 26.800,339.600 26.980,339.600 27.200 C 339.600 27.420,339.060 27.600,338.400 27.600 C 337.740 27.600,337.200 27.780,337.200 28.000 C 337.200 28.220,336.851 28.400,336.424 28.400 C 335.997 28.400,335.536 28.580,335.400 28.800 C 335.264 29.020,334.837 29.200,334.452 29.200 C 334.066 29.200,333.364 29.560,332.892 30.000 C 332.420 30.440,331.756 30.800,331.417 30.800 C 331.078 30.800,330.800 30.980,330.800 31.200 C 330.800 31.420,330.530 31.600,330.200 31.600 C 329.870 31.600,329.600 31.780,329.600 32.000 C 329.600 32.220,329.415 32.400,329.189 32.400 C 328.964 32.400,328.003 33.165,327.055 34.100 C 326.107 35.035,324.763 36.295,324.068 36.900 L 322.806 38.001 319.973 35.200 C 318.414 33.660,316.922 32.400,316.658 32.400 C 316.393 32.400,315.917 32.040,315.600 31.600 C 315.283 31.160,314.703 30.800,314.312 30.800 C 313.920 30.800,313.600 30.620,313.600 30.400 C 313.600 30.180,313.240 30.000,312.800 30.000 C 312.360 30.000,312.000 29.820,312.000 29.600 C 312.000 29.380,311.640 29.200,311.200 29.200 C 310.760 29.200,310.400 29.020,310.400 28.800 C 310.400 28.580,310.040 28.400,309.600 28.400 C 309.160 28.400,308.800 28.220,308.800 28.000 C 308.800 27.780,308.361 27.600,307.824 27.600 C 307.287 27.600,306.748 27.439,306.626 27.242 C 306.072 26.345,288.800 25.512,288.800 26.383 M302.868 41.908 C 303.139 42.179,303.734 42.400,304.192 42.400 C 304.649 42.400,305.283 42.760,305.600 43.200 C 305.917 43.640,306.419 44.000,306.716 44.000 C 307.012 44.000,309.521 46.340,312.291 49.200 C 315.061 52.060,317.502 54.400,317.717 54.400 C 317.931 54.400,318.424 54.766,318.812 55.214 C 319.632 56.159,324.856 56.426,326.396 55.602 C 326.866 55.351,329.587 52.817,332.443 49.973 C 335.299 47.128,337.858 44.800,338.129 44.800 C 338.401 44.800,338.883 44.440,339.200 44.000 C 339.517 43.560,340.097 43.200,340.488 43.200 C 340.880 43.200,341.200 43.020,341.200 42.800 C 341.200 42.580,341.455 42.400,341.767 42.400 C 342.078 42.400,342.408 42.175,342.500 41.900 C 342.624 41.526,344.391 41.400,349.513 41.400 C 354.457 41.400,356.498 41.539,356.860 41.900 C 357.135 42.175,357.684 42.400,358.080 42.400 C 358.476 42.400,358.800 42.580,358.800 42.800 C 358.800 43.020,359.070 43.200,359.400 43.200 C 359.730 43.200,360.000 43.380,360.000 43.600 C 360.000 43.820,360.189 44.000,360.419 44.000 C 361.085 44.000,366.800 49.894,366.800 50.581 C 366.800 50.921,366.980 51.200,367.200 51.200 C 367.420 51.200,367.600 51.560,367.600 52.000 C 367.600 52.440,367.780 52.800,368.000 52.800 C 368.220 52.800,368.400 53.149,368.400 53.576 C 368.400 54.003,368.580 54.464,368.800 54.600 C 369.020 54.736,369.200 55.456,369.200 56.200 C 369.200 56.944,369.380 57.664,369.600 57.800 C 369.820 57.936,370.000 59.297,370.000 60.824 C 370.000 62.408,369.828 63.600,369.600 63.600 C 369.380 63.600,369.200 64.320,369.200 65.200 C 369.200 66.080,369.020 66.800,368.800 66.800 C 368.580 66.800,368.400 67.160,368.400 67.600 C 368.400 68.040,368.220 68.400,368.000 68.400 C 367.780 68.400,367.600 68.760,367.600 69.200 C 367.600 69.640,367.420 70.000,367.200 70.000 C 366.980 70.000,366.800 70.272,366.800 70.604 C 366.800 70.936,366.260 71.772,365.600 72.463 C 364.940 73.154,364.400 73.962,364.400 74.259 C 364.400 74.557,364.235 74.800,364.034 74.800 C 363.833 74.800,362.528 75.981,361.134 77.425 C 359.740 78.869,355.630 83.007,352.000 86.620 C 343.612 94.971,344.339 94.242,336.642 102.000 C 333.041 105.630,329.308 109.326,328.347 110.214 C 327.386 111.101,325.946 112.586,325.146 113.514 C 322.986 116.018,324.273 117.041,304.521 97.115 C 302.278 94.852,298.408 90.979,295.921 88.508 C 293.435 86.037,289.766 82.347,287.769 80.308 C 285.771 78.269,283.206 75.768,282.069 74.750 C 280.931 73.733,280.000 72.647,280.000 72.338 C 280.000 72.029,279.640 71.517,279.200 71.200 C 278.760 70.883,278.400 70.303,278.400 69.912 C 278.400 69.520,278.220 69.200,278.000 69.200 C 277.780 69.200,277.600 68.840,277.600 68.400 C 277.600 67.960,277.420 67.600,277.200 67.600 C 276.980 67.600,276.800 66.981,276.800 66.224 C 276.800 65.467,276.620 64.736,276.400 64.600 C 276.179 64.464,276.000 62.670,276.000 60.600 C 276.000 58.530,276.179 56.736,276.400 56.600 C 276.620 56.464,276.800 55.823,276.800 55.176 C 276.800 54.529,276.980 54.000,277.200 54.000 C 277.420 54.000,277.600 53.550,277.600 53.000 C 277.600 52.450,277.780 52.000,278.000 52.000 C 278.220 52.000,278.400 51.775,278.401 51.500 C 278.401 51.225,278.941 50.370,279.600 49.600 C 280.259 48.830,280.799 48.044,280.799 47.854 C 280.800 47.374,283.658 44.800,284.190 44.800 C 284.428 44.800,284.883 44.440,285.200 44.000 C 285.517 43.560,286.097 43.200,286.488 43.200 C 286.880 43.200,287.200 43.020,287.200 42.800 C 287.200 42.580,287.560 42.400,288.000 42.400 C 288.440 42.400,288.800 42.231,288.800 42.025 C 288.800 41.130,301.980 41.020,302.868 41.908 M91.692 292.018 C 89.789 292.283,88.004 293.413,87.405 294.731 C 87.188 295.209,86.873 295.600,86.705 295.600 C 86.537 295.600,86.400 297.220,86.400 299.200 C 86.400 301.333,86.563 302.800,86.800 302.800 C 87.020 302.800,87.200 303.036,87.200 303.325 C 87.200 303.613,87.560 304.236,88.000 304.708 C 88.440 305.180,88.800 305.754,88.800 305.983 C 88.800 306.212,88.980 306.400,89.200 306.400 C 89.420 306.400,89.600 306.630,89.600 306.912 C 89.600 307.193,89.960 307.683,90.400 308.000 C 90.840 308.317,91.200 308.724,91.200 308.905 C 91.200 309.265,91.416 309.550,93.199 311.542 C 93.859 312.281,94.400 313.044,94.400 313.239 C 94.400 313.881,106.799 326.000,107.456 326.000 C 107.594 326.000,108.593 326.900,109.676 328.000 C 110.758 329.100,111.832 330.000,112.062 330.000 C 112.291 330.000,112.983 330.540,113.600 331.200 C 114.217 331.860,114.920 332.400,115.164 332.400 C 115.408 332.400,116.172 332.940,116.863 333.600 C 117.554 334.260,118.279 334.800,118.476 334.800 C 118.673 334.800,119.220 335.160,119.692 335.600 C 120.164 336.040,120.787 336.400,121.075 336.400 C 121.364 336.400,121.600 336.580,121.600 336.800 C 121.600 337.020,121.920 337.200,122.312 337.200 C 122.703 337.200,123.283 337.560,123.600 338.000 C 123.917 338.440,124.497 338.800,124.888 338.800 C 125.280 338.800,125.600 338.935,125.600 339.100 C 125.601 339.524,129.386 341.600,130.159 341.600 C 130.512 341.600,130.800 341.780,130.800 342.000 C 130.800 342.220,131.160 342.400,131.600 342.400 C 132.040 342.400,132.400 342.580,132.400 342.800 C 132.400 343.020,132.760 343.200,133.200 343.200 C 133.640 343.200,134.000 343.380,134.000 343.600 C 134.000 343.820,134.360 344.000,134.800 344.000 C 135.240 344.000,135.600 344.180,135.600 344.400 C 135.600 344.620,135.960 344.800,136.400 344.800 C 136.840 344.800,137.200 344.980,137.200 345.200 C 137.200 345.420,137.549 345.600,137.976 345.600 C 138.403 345.600,138.864 345.780,139.000 346.000 C 139.136 346.220,139.687 346.400,140.224 346.400 C 140.761 346.400,141.200 346.580,141.200 346.800 C 141.200 347.020,141.560 347.200,142.000 347.200 C 142.440 347.200,142.800 347.380,142.800 347.600 C 142.800 347.820,143.250 348.000,143.800 348.000 C 144.350 348.000,144.800 348.180,144.800 348.400 C 144.800 348.620,145.340 348.800,146.000 348.800 C 146.660 348.800,147.200 348.980,147.200 349.200 C 147.200 349.420,147.650 349.600,148.200 349.600 C 148.750 349.600,149.200 349.780,149.200 350.000 C 149.200 350.220,149.729 350.400,150.376 350.400 C 151.023 350.400,151.664 350.580,151.800 350.800 C 151.936 351.020,152.577 351.200,153.224 351.200 C 153.871 351.200,154.400 351.380,154.400 351.600 C 154.400 351.820,155.019 352.000,155.776 352.000 C 156.533 352.000,157.264 352.180,157.400 352.400 C 157.536 352.620,158.166 352.800,158.800 352.800 C 159.434 352.800,160.064 352.980,160.200 353.200 C 160.336 353.420,161.146 353.600,162.000 353.600 C 162.854 353.600,163.664 353.780,163.800 354.000 C 163.936 354.220,164.811 354.400,165.744 354.400 C 166.677 354.400,167.611 354.564,167.820 354.765 C 168.029 354.965,169.280 355.238,170.600 355.370 C 171.920 355.502,174.530 355.807,176.400 356.048 C 182.848 356.878,212.838 356.497,213.780 355.573 C 213.989 355.368,215.294 355.200,216.680 355.200 C 218.093 355.200,219.200 355.024,219.200 354.800 C 219.200 354.580,220.190 354.400,221.400 354.400 C 222.610 354.400,223.600 354.220,223.600 354.000 C 223.600 353.780,224.500 353.600,225.600 353.600 C 226.700 353.600,227.600 353.420,227.600 353.200 C 227.600 352.980,228.140 352.800,228.800 352.800 C 229.460 352.800,230.000 352.620,230.000 352.400 C 230.000 352.180,230.283 352.000,230.629 352.000 C 231.605 352.000,233.200 349.894,233.200 348.605 C 233.200 348.272,233.380 348.000,233.600 348.000 C 234.170 348.000,234.096 344.366,233.500 343.083 C 233.225 342.491,232.865 342.005,232.700 342.003 C 232.535 342.001,232.400 341.717,232.400 341.371 C 232.400 340.563,231.437 339.600,230.629 339.600 C 230.283 339.600,230.000 339.420,230.000 339.200 C 230.000 338.959,228.333 338.800,225.800 338.800 C 223.267 338.800,221.600 338.959,221.600 339.200 C 221.600 339.420,220.621 339.600,219.424 339.600 C 218.227 339.600,217.136 339.780,217.000 340.000 C 216.864 340.220,215.683 340.400,214.376 340.400 C 213.069 340.400,212.000 340.555,212.000 340.743 C 212.000 341.108,207.152 341.457,196.405 341.867 C 189.498 342.130,175.135 341.431,173.905 340.772 C 173.523 340.567,172.308 340.400,171.205 340.400 C 170.102 340.400,169.200 340.220,169.200 340.000 C 169.200 339.780,168.491 339.600,167.624 339.600 C 166.757 339.600,165.936 339.420,165.800 339.200 C 165.664 338.980,164.854 338.800,164.000 338.800 C 163.146 338.800,162.336 338.620,162.200 338.400 C 162.064 338.180,161.423 338.000,160.776 338.000 C 160.129 338.000,159.600 337.820,159.600 337.600 C 159.600 337.380,158.970 337.200,158.200 337.200 C 157.430 337.200,156.800 337.020,156.800 336.800 C 156.800 336.580,156.260 336.400,155.600 336.400 C 154.940 336.400,154.400 336.220,154.400 336.000 C 154.400 335.780,153.860 335.600,153.200 335.600 C 152.540 335.600,152.000 335.420,152.000 335.200 C 152.000 334.980,151.640 334.800,151.200 334.800 C 150.760 334.800,150.400 334.620,150.400 334.400 C 150.400 334.180,149.860 334.000,149.200 334.000 C 148.540 334.000,148.000 333.820,148.000 333.600 C 148.000 333.380,147.640 333.200,147.200 333.200 C 146.760 333.200,146.400 333.020,146.400 332.800 C 146.400 332.580,145.860 332.400,145.200 332.400 C 144.540 332.400,144.000 332.220,144.000 332.000 C 144.000 331.780,143.640 331.600,143.200 331.600 C 142.760 331.600,142.399 331.465,142.399 331.300 C 142.398 331.135,141.408 330.550,140.200 330.000 C 138.992 329.450,138.002 328.865,138.001 328.700 C 138.001 328.535,137.640 328.400,137.200 328.400 C 136.760 328.400,136.399 328.265,136.397 328.100 C 136.395 327.935,135.990 327.612,135.497 327.382 C 134.136 326.748,130.227 324.627,130.000 324.399 C 129.890 324.289,129.305 323.944,128.700 323.632 C 128.095 323.320,127.600 322.915,127.600 322.732 C 127.600 322.550,127.357 322.400,127.059 322.400 C 126.762 322.400,125.954 321.860,125.263 321.200 C 124.572 320.540,123.914 320.000,123.800 320.000 C 123.686 320.000,123.028 319.460,122.337 318.800 C 121.646 318.140,120.916 317.600,120.715 317.600 C 120.513 317.600,119.505 316.743,118.474 315.697 C 117.443 314.650,115.790 313.167,114.800 312.402 C 112.827 310.877,111.052 309.095,108.600 306.179 C 107.720 305.133,106.415 303.680,105.700 302.952 C 104.985 302.223,104.400 301.467,104.400 301.273 C 104.400 301.078,103.905 300.394,103.300 299.752 C 102.695 299.111,101.945 298.094,101.632 297.493 C 101.320 296.892,100.915 296.400,100.732 296.400 C 100.550 296.400,100.400 296.175,100.400 295.900 C 100.397 293.557,95.693 291.460,91.692 292.018 M345.000 298.711 C 342.472 298.886,339.600 300.719,339.600 302.158 C 339.600 302.485,339.420 302.864,339.200 303.000 C 338.980 303.136,338.800 304.497,338.800 306.024 C 338.800 307.608,338.972 308.800,339.200 308.800 C 339.420 308.800,339.600 309.340,339.600 310.000 C 339.600 310.660,339.780 311.200,340.000 311.200 C 340.220 311.200,340.400 311.560,340.400 312.000 C 340.400 312.440,340.580 312.800,340.800 312.800 C 341.020 312.800,341.200 313.078,341.200 313.417 C 341.200 314.177,341.509 314.559,344.931 318.030 C 346.432 319.553,347.835 320.800,348.047 320.800 C 348.260 320.800,348.820 321.160,349.292 321.600 C 349.764 322.040,350.387 322.400,350.675 322.400 C 350.964 322.400,351.200 322.580,351.200 322.800 C 351.200 323.020,351.560 323.200,352.000 323.200 C 352.440 323.200,352.800 323.380,352.800 323.600 C 352.800 323.820,353.160 324.000,353.600 324.000 C 354.040 324.000,354.400 324.164,354.400 324.365 C 354.400 324.566,355.120 324.851,356.000 325.000 C 356.880 325.149,357.600 325.434,357.600 325.635 C 357.600 325.836,357.960 326.000,358.400 326.000 C 358.840 326.000,359.200 326.180,359.200 326.400 C 359.200 326.620,359.650 326.800,360.200 326.800 C 360.750 326.800,361.200 326.980,361.200 327.200 C 361.200 327.420,361.740 327.600,362.400 327.600 C 363.060 327.600,363.600 327.780,363.600 328.000 C 363.600 328.220,364.140 328.400,364.800 328.400 C 365.460 328.400,366.000 328.580,366.000 328.800 C 366.000 329.020,366.529 329.200,367.176 329.200 C 367.823 329.200,368.464 329.380,368.600 329.600 C 368.736 329.820,369.467 330.000,370.224 330.000 C 370.981 330.000,371.600 330.180,371.600 330.400 C 371.600 330.620,372.320 330.800,373.200 330.800 C 374.080 330.800,374.800 330.980,374.800 331.200 C 374.800 331.420,375.599 331.600,376.576 331.600 C 377.553 331.600,378.464 331.780,378.600 332.000 C 378.736 332.220,379.636 332.400,380.600 332.400 C 381.564 332.400,382.464 332.580,382.600 332.800 C 382.736 333.020,384.187 333.200,385.824 333.200 C 387.541 333.200,388.800 333.031,388.800 332.800 C 388.800 332.580,389.120 332.400,389.512 332.400 C 389.903 332.400,390.488 332.018,390.812 331.551 C 391.135 331.084,391.580 330.492,391.800 330.236 C 392.835 329.028,393.200 327.822,393.200 325.605 C 393.200 324.268,393.022 323.200,392.800 323.200 C 392.580 323.200,392.400 322.917,392.400 322.571 C 392.400 322.226,392.175 321.708,391.900 321.420 C 391.625 321.133,391.135 320.516,390.812 320.049 C 390.488 319.582,389.903 319.200,389.512 319.200 C 389.120 319.200,388.800 319.020,388.800 318.800 C 388.800 318.580,387.900 318.400,386.800 318.400 C 385.700 318.400,384.800 318.220,384.800 318.000 C 384.800 317.780,383.900 317.600,382.800 317.600 C 381.700 317.600,380.800 317.420,380.800 317.200 C 380.800 316.980,380.080 316.800,379.200 316.800 C 378.320 316.800,377.600 316.620,377.600 316.400 C 377.600 316.180,376.880 316.000,376.000 316.000 C 375.120 316.000,374.400 315.820,374.400 315.600 C 374.400 315.380,373.770 315.200,373.000 315.200 C 372.230 315.200,371.600 315.020,371.600 314.800 C 371.600 314.580,371.060 314.400,370.400 314.400 C 369.740 314.400,369.200 314.220,369.200 314.000 C 369.200 313.780,368.660 313.600,368.000 313.600 C 367.340 313.600,366.800 313.420,366.800 313.200 C 366.800 312.980,366.440 312.800,366.000 312.800 C 365.560 312.800,365.200 312.620,365.200 312.400 C 365.200 312.180,364.910 312.000,364.556 312.000 C 361.971 312.000,353.600 305.932,353.600 304.058 C 353.600 303.612,353.420 303.136,353.200 303.000 C 352.980 302.864,352.800 302.485,352.800 302.158 C 352.800 301.377,351.007 299.600,350.218 299.600 C 349.878 299.600,349.600 299.439,349.600 299.242 C 349.600 298.822,347.275 298.553,345.000 298.711 " stroke="none" fill="#040404" fill-rule="evenodd"></path><path id="path1" d="" stroke="none" fill="#080404" fill-rule="evenodd"></path><path id="path2" d="" stroke="none" fill="#080404" fill-rule="evenodd"></path><path id="path3" d="" stroke="none" fill="#080404" fill-rule="evenodd"></path><path id="path4" d="" stroke="none" fill="#080404" fill-rule="evenodd"></path></g></svg>