<svg id="svg" version="1.1" xmlns="http://www.w3.org/2000/svg" xmlns:xlink="http://www.w3.org/1999/xlink" width="400" height="400" viewBox="0, 0, 400,400"><g id="svgg"><path id="path0" d="M59.179 263.714 C 41.036 277.809,26.052 289.481,25.882 289.651 C 25.692 289.841,26.573 291.800,28.165 294.730 C 73.018 377.283,165.975 417.078,258.783 393.459 C 286.543 386.394,311.950 373.179,332.917 354.899 C 337.032 351.311,337.015 351.928,333.083 348.909 C 331.296 347.537,316.811 336.285,300.894 323.905 L 271.955 301.396 268.061 303.759 C 241.409 319.931,205.914 324.906,175.049 316.797 C 138.743 307.257,108.232 279.602,94.369 243.667 C 93.414 241.192,92.528 238.924,92.400 238.627 C 92.216 238.201,85.196 243.502,59.179 263.714 " stroke="none" fill="#34ab54" fill-rule="evenodd"></path><path id="path1" d="M204.000 204.333 L 204.000 242.000 257.833 242.000 C 310.817 242.000,311.667 242.010,311.667 242.644 C 311.667 244.685,308.429 255.113,306.072 260.667 C 300.147 274.623,289.047 288.690,276.661 297.940 C 274.372 299.649,272.500 301.176,272.500 301.332 C 272.500 301.629,335.792 350.941,336.543 351.229 C 338.457 351.964,359.089 327.489,365.258 317.167 C 365.806 316.250,367.261 313.850,368.493 311.833 C 391.189 274.671,400.720 220.740,393.411 170.833 L 392.825 166.833 298.413 166.749 L 204.000 166.666 204.000 204.333 " stroke="none" fill="#4484f4" fill-rule="evenodd"></path><path id="path2" d="M23.187 115.183 C -2.618 171.387,-2.368 230.394,23.914 286.426 C 24.755 288.219,25.568 289.644,25.721 289.593 C 25.874 289.542,30.837 285.740,36.750 281.145 C 42.662 276.550,57.583 264.961,69.907 255.392 C 92.265 238.033,92.314 237.992,91.955 237.080 C 84.310 217.659,84.196 185.547,91.694 163.753 C 92.203 162.273,92.253 161.813,91.922 161.623 C 91.690 161.489,76.725 149.898,58.667 135.866 C 40.608 121.833,25.739 110.348,25.624 110.343 C 25.508 110.337,24.412 112.516,23.187 115.183 " stroke="none" fill="#fbbb04" fill-rule="evenodd"></path><path id="path3" d="M191.667 0.217 C 191.025 0.278,188.550 0.490,186.167 0.688 C 123.673 5.868,65.556 42.417,32.754 97.167 C 30.619 100.729,25.667 109.740,25.667 110.061 C 25.667 110.365,91.638 161.500,92.031 161.500 C 92.225 161.500,92.915 160.075,93.565 158.333 C 122.238 81.533,217.249 53.988,276.306 105.355 C 277.662 106.535,279.288 107.935,279.918 108.467 L 281.064 109.435 309.538 80.967 C 325.198 65.310,337.971 52.340,337.922 52.144 C 337.794 51.628,332.806 47.142,328.167 43.367 C 296.296 17.439,260.525 3.362,218.833 0.341 C 214.624 0.036,194.539 -0.055,191.667 0.217 " stroke="none" fill="#ec4434" fill-rule="evenodd"></path><path id="path4" d="" stroke="none" fill="#3c89e3" fill-rule="evenodd"></path></g></svg>