<svg id="svg" version="1.1" xmlns="http://www.w3.org/2000/svg" xmlns:xlink="http://www.w3.org/1999/xlink" width="400" height="400" viewBox="0, 0, 400,400"><g id="svgg"><path id="path0" d="M320.400 136.622 C 317.221 137.251,316.095 137.544,314.800 138.082 C 312.850 138.891,309.778 140.487,308.200 141.512 C 307.320 142.083,290.166 158.941,270.081 178.975 C 249.995 199.009,233.478 215.477,233.376 215.572 C 233.274 215.666,229.907 212.502,225.895 208.541 C 221.883 204.580,217.790 200.791,216.800 200.122 C 206.324 193.045,192.339 193.068,182.800 200.179 C 182.030 200.753,170.555 212.059,157.300 225.303 L 133.200 249.385 133.200 272.492 C 133.200 287.631,133.338 295.600,133.600 295.600 C 133.820 295.600,134.000 296.061,134.000 296.624 C 134.000 297.204,133.827 297.540,133.600 297.400 C 133.380 297.264,133.200 297.343,133.200 297.576 C 133.200 297.809,133.380 298.000,133.600 298.000 C 133.820 298.000,134.000 298.270,134.000 298.600 C 134.000 298.930,134.180 299.200,134.400 299.200 C 134.620 299.200,134.800 299.571,134.800 300.024 C 134.800 300.477,134.620 300.736,134.400 300.600 C 133.644 300.133,134.000 301.024,134.800 301.600 C 135.694 302.244,135.867 303.186,135.100 303.227 C 134.825 303.242,135.005 303.449,135.500 303.688 C 135.995 303.927,136.400 304.375,136.400 304.685 C 136.400 304.994,136.220 305.136,136.000 305.000 C 135.780 304.864,135.600 304.931,135.600 305.149 C 135.600 305.368,135.976 305.666,136.437 305.812 C 137.025 305.998,137.212 306.310,137.068 306.863 C 136.946 307.328,137.094 307.738,137.431 307.867 C 137.744 307.987,138.000 308.426,138.000 308.843 C 138.000 309.259,138.180 309.600,138.400 309.600 C 138.620 309.600,138.800 309.960,138.800 310.400 C 138.800 310.840,138.980 311.200,139.200 311.200 C 139.420 311.200,139.600 311.560,139.600 312.000 C 139.600 312.440,139.780 312.800,140.000 312.800 C 140.220 312.800,140.400 313.080,140.400 313.422 C 140.400 313.764,140.939 314.619,141.598 315.322 C 142.257 316.025,142.797 316.826,142.798 317.103 C 142.800 317.695,149.069 324.000,149.656 324.000 C 149.877 324.000,150.308 324.225,150.615 324.500 C 152.002 325.744,152.406 326.000,152.983 326.000 C 153.322 326.000,153.600 326.180,153.600 326.400 C 153.600 326.620,153.920 326.800,154.312 326.800 C 154.703 326.800,155.283 327.160,155.600 327.600 C 155.917 328.040,156.497 328.400,156.888 328.400 C 157.280 328.400,157.600 328.580,157.600 328.800 C 157.600 329.020,157.971 329.200,158.424 329.200 C 158.877 329.200,159.136 329.380,159.000 329.600 C 158.864 329.820,159.123 330.000,159.576 330.000 C 160.029 330.000,160.400 330.180,160.400 330.400 C 160.400 330.620,160.940 330.800,161.600 330.800 C 162.260 330.800,162.800 330.980,162.800 331.200 C 162.800 331.420,163.340 331.600,164.000 331.600 C 164.660 331.600,165.200 331.780,165.200 332.000 C 165.200 332.220,165.740 332.400,166.400 332.400 C 167.060 332.400,167.600 332.580,167.600 332.800 C 167.600 333.020,168.500 333.200,169.600 333.200 C 170.700 333.200,171.600 333.380,171.600 333.600 C 171.600 333.866,202.808 334.000,264.424 334.000 C 326.204 334.000,357.165 333.866,357.000 333.600 C 356.843 333.346,357.929 333.200,359.976 333.200 C 361.859 333.200,363.200 333.034,363.200 332.800 C 363.200 332.580,363.920 332.400,364.800 332.400 C 365.680 332.400,366.400 332.220,366.400 332.000 C 366.400 331.780,366.940 331.600,367.600 331.600 C 368.260 331.600,368.800 331.399,368.800 331.153 C 368.800 330.889,369.221 330.787,369.832 330.904 C 370.487 331.029,370.940 330.900,371.074 330.551 C 371.191 330.248,371.626 330.000,372.043 330.000 C 372.459 330.000,372.800 329.820,372.800 329.600 C 372.800 329.380,373.160 329.200,373.600 329.200 C 374.040 329.200,374.400 329.020,374.400 328.800 C 374.400 328.580,374.760 328.400,375.200 328.400 C 375.640 328.400,376.000 328.220,376.000 328.000 C 376.000 327.780,376.281 327.600,376.624 327.600 C 376.993 327.600,377.131 327.788,376.962 328.062 C 376.785 328.348,376.852 328.415,377.138 328.238 C 377.392 328.081,377.600 327.693,377.600 327.376 C 377.600 327.059,377.920 326.800,378.312 326.800 C 378.703 326.800,379.283 326.440,379.600 326.000 C 379.917 325.560,380.431 325.200,380.741 325.200 C 381.052 325.200,381.633 324.823,382.032 324.363 C 382.431 323.903,382.945 323.642,383.174 323.784 C 383.417 323.934,383.499 323.803,383.372 323.472 C 383.252 323.159,383.444 322.792,383.798 322.656 C 384.172 322.513,384.339 322.575,384.197 322.805 C 383.751 323.526,384.494 323.214,385.223 322.374 C 385.617 321.919,386.088 321.514,386.270 321.474 C 386.451 321.433,386.555 321.265,386.500 321.100 C 386.445 320.935,386.625 320.845,386.900 320.900 C 387.175 320.955,387.351 320.762,387.290 320.470 C 387.230 320.179,387.351 320.046,387.560 320.175 C 387.768 320.304,388.313 319.885,388.769 319.243 C 389.712 317.919,389.832 317.413,389.100 317.853 C 388.777 318.047,388.800 317.907,389.165 317.458 C 389.613 316.906,389.804 316.869,390.091 317.281 C 390.324 317.616,390.356 317.460,390.180 316.839 C 389.962 316.072,390.034 315.927,390.533 316.119 C 390.967 316.286,391.091 316.181,390.937 315.780 C 390.786 315.386,390.986 315.200,391.557 315.200 C 392.469 315.200,392.712 314.571,391.904 314.301 C 391.294 314.098,392.183 313.113,393.389 312.656 C 394.057 312.403,394.088 312.295,393.589 311.948 C 393.143 311.639,393.122 311.490,393.500 311.336 C 393.775 311.225,394.000 310.878,394.000 310.567 C 394.000 310.255,394.180 310.000,394.400 310.000 C 394.620 310.000,394.800 309.640,394.800 309.200 C 394.800 308.646,395.077 308.390,395.700 308.368 C 396.195 308.351,396.375 308.246,396.100 308.135 C 395.256 307.794,395.546 306.802,396.500 306.768 C 396.995 306.751,397.175 306.646,396.900 306.535 C 396.106 306.215,396.319 305.280,397.253 304.983 C 397.920 304.771,397.986 304.638,397.553 304.368 C 397.103 304.088,397.093 303.874,397.500 303.218 C 397.775 302.774,398.000 301.948,398.000 301.382 C 398.000 300.798,398.173 300.460,398.400 300.600 C 398.641 300.749,398.800 300.215,398.800 299.257 C 398.800 298.340,399.012 297.596,399.300 297.500 C 399.696 297.368,399.824 287.092,399.916 248.320 L 400.033 199.306 371.916 171.209 C 341.760 141.074,341.488 140.832,334.600 137.990 C 333.361 137.479,324.084 135.919,323.200 136.073 C 323.090 136.092,321.830 136.339,320.400 136.622 " stroke="none" fill="#409442" fill-rule="evenodd"></path><path id="path1" d="M170.807 0.297 C 169.820 0.384,168.875 0.668,168.707 0.928 C 168.473 1.287,168.323 1.281,168.077 0.901 C 167.735 0.372,165.610 1.058,165.603 1.700 C 165.601 1.865,165.251 2.000,164.824 2.000 C 164.397 2.000,163.936 2.180,163.800 2.400 C 163.664 2.620,163.128 2.800,162.610 2.800 C 162.091 2.800,161.605 2.984,161.530 3.209 C 161.456 3.433,160.734 3.642,159.927 3.672 C 158.822 3.714,158.408 3.925,158.250 4.529 C 158.071 5.217,157.948 5.255,157.398 4.798 C 157.044 4.505,156.786 4.430,156.825 4.632 C 157.014 5.630,156.791 6.206,156.434 5.641 C 156.148 5.190,155.977 5.248,155.544 5.941 C 155.249 6.414,154.796 6.800,154.537 6.800 C 154.278 6.800,153.975 7.025,153.864 7.300 C 153.711 7.676,153.556 7.652,153.237 7.200 C 152.878 6.694,152.810 6.725,152.799 7.400 C 152.790 7.956,152.207 8.474,150.890 9.096 C 149.847 9.589,148.815 10.378,148.597 10.850 C 148.378 11.323,148.084 11.640,147.942 11.555 C 147.552 11.321,145.993 12.854,145.342 14.112 C 145.025 14.725,144.618 15.135,144.436 15.023 C 144.255 14.911,143.768 15.206,143.353 15.678 C 142.939 16.151,142.825 16.406,143.100 16.245 C 143.375 16.084,143.600 16.143,143.600 16.376 C 143.600 16.609,143.420 16.800,143.200 16.800 C 142.980 16.800,142.800 17.070,142.800 17.400 C 142.800 17.730,142.620 18.000,142.400 18.000 C 142.180 18.000,142.000 18.281,142.000 18.624 C 142.000 18.967,141.820 19.136,141.600 19.000 C 141.380 18.864,141.200 19.033,141.200 19.376 C 141.200 19.719,141.020 20.000,140.800 20.000 C 140.580 20.000,140.400 20.227,140.400 20.504 C 140.400 20.781,140.040 21.232,139.600 21.507 C 139.148 21.790,138.800 22.440,138.800 23.003 C 138.800 23.552,138.620 24.000,138.400 24.000 C 138.180 24.000,137.997 24.405,137.994 24.900 C 137.989 25.628,137.914 25.685,137.600 25.200 C 137.307 24.746,137.211 24.922,137.206 25.924 C 137.203 26.703,137.036 27.146,136.800 27.000 C 136.580 26.864,136.400 27.018,136.400 27.343 C 136.400 27.668,136.209 27.997,135.976 28.075 C 135.743 28.152,135.542 28.975,135.529 29.902 C 135.516 30.830,135.347 31.491,135.153 31.371 C 134.959 31.251,134.800 31.523,134.800 31.976 C 134.800 32.429,134.584 32.800,134.320 32.800 C 133.947 32.800,133.947 32.907,134.320 33.280 C 134.900 33.860,134.960 34.546,134.400 34.200 C 134.180 34.064,134.000 34.323,134.000 34.776 C 134.000 36.033,133.967 36.157,133.466 36.777 C 133.105 37.224,133.112 37.286,133.500 37.053 C 134.116 36.683,134.161 37.279,133.562 37.878 C 133.309 38.131,133.137 39.728,133.154 41.658 C 133.175 43.945,133.063 44.811,132.799 44.400 C 132.586 44.070,132.409 43.989,132.406 44.220 C 132.403 44.451,132.535 44.811,132.700 45.020 C 132.865 45.229,132.910 91.120,132.800 147.000 C 132.690 202.880,132.651 248.681,132.714 248.781 C 132.777 248.881,143.667 238.150,156.914 224.935 C 170.161 211.720,181.861 200.331,182.913 199.626 C 185.653 197.789,189.159 196.000,190.017 196.000 C 190.422 196.000,190.864 195.820,191.000 195.600 C 191.136 195.380,191.766 195.200,192.400 195.200 C 193.034 195.200,193.664 195.020,193.800 194.800 C 194.135 194.259,203.664 194.284,205.754 194.832 C 214.325 197.079,216.204 198.294,225.781 207.786 C 229.672 211.644,233.037 214.800,233.258 214.800 C 233.478 214.800,243.141 205.305,254.729 193.700 L 275.800 172.600 275.699 86.300 L 275.598 0.000 224.099 0.070 C 195.775 0.108,171.793 0.211,170.807 0.297 M106.800 50.000 C 106.470 50.213,105.536 50.391,104.724 50.394 C 103.912 50.397,103.136 50.580,103.000 50.800 C 102.864 51.020,102.212 51.200,101.550 51.200 C 100.889 51.200,100.009 51.381,99.595 51.603 C 99.181 51.824,98.383 52.043,97.821 52.090 C 97.260 52.136,96.800 52.315,96.800 52.487 C 96.800 52.659,95.915 52.800,94.833 52.800 C 93.752 52.800,92.807 52.972,92.733 53.182 C 92.660 53.393,91.925 53.610,91.100 53.664 C 90.275 53.719,89.600 53.907,89.600 54.082 C 89.600 54.257,88.790 54.400,87.800 54.400 C 86.810 54.400,86.000 54.580,86.000 54.800 C 86.000 55.020,85.280 55.200,84.400 55.200 C 83.520 55.200,82.800 55.380,82.800 55.600 C 82.800 55.820,82.248 56.000,81.574 56.000 C 80.899 56.000,80.028 56.171,79.637 56.380 C 79.247 56.589,78.179 56.804,77.264 56.858 C 76.349 56.912,75.600 57.101,75.600 57.278 C 75.600 57.455,74.779 57.600,73.776 57.600 C 72.663 57.600,72.049 57.756,72.200 58.000 C 72.349 58.241,71.812 58.400,70.847 58.400 C 69.967 58.400,69.159 58.542,69.052 58.716 C 68.944 58.890,68.177 59.078,67.347 59.134 C 66.518 59.190,65.644 59.398,65.406 59.595 C 65.168 59.793,64.619 59.898,64.186 59.829 C 63.754 59.760,63.092 59.863,62.715 60.058 C 61.839 60.511,54.541 62.076,53.121 62.115 C 52.528 62.132,52.134 62.293,52.245 62.473 C 52.416 62.749,50.702 62.973,48.904 62.908 C 48.632 62.898,48.507 63.050,48.628 63.245 C 48.833 63.577,48.285 63.683,46.100 63.734 C 45.605 63.746,45.200 63.862,45.200 63.993 C 45.200 64.123,44.885 64.256,44.500 64.289 C 44.115 64.322,42.686 64.612,41.325 64.933 C 39.964 65.254,38.720 65.401,38.561 65.259 C 38.402 65.116,38.390 65.208,38.536 65.461 C 38.714 65.772,38.180 65.988,36.900 66.123 C 35.855 66.233,34.190 66.533,33.200 66.790 C 32.210 67.047,30.770 67.356,30.000 67.476 C 29.230 67.596,28.402 67.853,28.160 68.047 C 27.917 68.241,27.242 68.439,26.660 68.487 C 26.077 68.535,25.600 68.715,25.600 68.887 C 25.600 69.059,25.060 69.200,24.400 69.200 C 23.740 69.200,23.200 69.380,23.200 69.600 C 23.200 69.820,22.840 70.000,22.400 70.000 C 21.960 70.000,21.600 70.180,21.600 70.400 C 21.600 70.620,21.240 70.800,20.800 70.800 C 20.360 70.800,20.000 70.980,20.000 71.200 C 20.000 71.420,19.728 71.600,19.395 71.600 C 18.716 71.600,14.736 74.226,13.057 75.782 C 12.453 76.342,11.797 76.800,11.599 76.800 C 11.402 76.800,11.096 77.054,10.920 77.365 C 10.744 77.676,9.925 78.658,9.100 79.547 C 8.275 80.437,7.600 81.261,7.600 81.378 C 7.600 81.581,7.339 81.916,5.300 84.334 C 4.806 84.920,4.401 85.715,4.400 86.100 C 4.400 86.485,4.220 86.800,4.000 86.800 C 3.780 86.800,3.600 87.055,3.600 87.367 C 3.600 87.678,3.422 87.993,3.203 88.067 C 2.985 88.140,2.766 88.695,2.716 89.300 C 2.666 89.905,2.524 90.400,2.400 90.400 C 2.276 90.400,1.926 91.255,1.622 92.300 C 1.318 93.345,0.874 94.328,0.635 94.485 C -0.032 94.923,0.044 113.832,0.720 115.430 C 1.005 116.107,1.267 117.097,1.300 117.630 C 1.334 118.164,1.517 118.708,1.706 118.839 C 1.895 118.971,2.066 119.652,2.086 120.353 C 2.106 121.055,2.275 121.723,2.461 121.838 C 2.648 121.953,2.800 122.577,2.800 123.224 C 2.800 123.871,2.980 124.400,3.200 124.400 C 3.420 124.400,3.600 125.120,3.600 126.000 C 3.600 126.880,3.780 127.600,4.000 127.600 C 4.220 127.600,4.400 128.129,4.400 128.776 C 4.400 129.423,4.580 130.064,4.800 130.200 C 5.020 130.336,5.200 130.966,5.200 131.600 C 5.200 132.234,5.380 132.864,5.600 133.000 C 5.820 133.136,6.000 133.856,6.000 134.600 C 6.000 135.344,6.160 136.052,6.356 136.173 C 6.551 136.294,6.805 136.979,6.919 137.696 C 7.032 138.413,7.335 139.720,7.591 140.600 C 7.846 141.480,8.147 142.650,8.258 143.200 C 8.369 143.750,8.638 144.570,8.856 145.022 C 9.074 145.474,9.202 146.014,9.141 146.222 C 9.080 146.430,9.225 146.960,9.464 147.400 C 9.703 147.840,9.859 148.650,9.810 149.200 C 9.761 149.750,9.856 150.290,10.021 150.400 C 10.186 150.510,10.417 151.140,10.534 151.800 C 10.651 152.460,10.927 153.585,11.146 154.300 C 11.365 155.015,11.445 155.600,11.323 155.600 C 11.202 155.600,11.287 155.825,11.512 156.100 C 11.738 156.375,11.978 157.140,12.046 157.800 C 12.114 158.460,12.346 159.240,12.562 159.533 C 12.777 159.827,12.982 160.367,13.017 160.733 C 13.117 161.771,14.464 166.930,14.810 167.600 C 14.980 167.930,15.179 168.830,15.251 169.600 C 15.324 170.370,15.504 171.090,15.652 171.200 C 15.800 171.310,16.011 171.940,16.121 172.600 C 16.230 173.260,16.484 174.250,16.684 174.800 C 16.885 175.350,17.032 176.070,17.011 176.400 C 16.990 176.730,17.101 177.092,17.257 177.205 C 17.412 177.318,17.598 177.948,17.670 178.605 C 17.741 179.262,17.927 179.895,18.082 180.012 C 18.236 180.129,18.408 180.894,18.463 181.712 C 18.518 182.530,18.707 183.200,18.882 183.200 C 19.057 183.200,19.200 183.639,19.200 184.176 C 19.200 184.713,19.380 185.264,19.600 185.400 C 19.820 185.536,20.000 186.346,20.000 187.200 C 20.000 188.054,20.180 188.864,20.400 189.000 C 20.620 189.136,20.800 189.676,20.800 190.200 C 20.800 190.724,20.980 191.264,21.200 191.400 C 21.420 191.536,21.600 192.256,21.600 193.000 C 21.600 193.744,21.780 194.464,22.000 194.600 C 22.220 194.736,22.400 195.276,22.400 195.800 C 22.400 196.324,22.580 196.864,22.800 197.000 C 23.020 197.136,23.200 197.957,23.200 198.824 C 23.200 199.691,23.380 200.400,23.600 200.400 C 23.820 200.400,24.000 200.942,24.000 201.605 C 24.000 202.268,24.163 203.123,24.363 203.505 C 24.671 204.095,25.514 207.353,26.223 210.690 C 26.327 211.179,26.594 212.059,26.817 212.645 C 27.040 213.231,27.129 213.804,27.015 213.919 C 26.900 214.033,26.968 214.323,27.166 214.563 C 27.363 214.803,27.614 215.574,27.724 216.275 C 27.833 216.977,28.066 217.783,28.241 218.067 C 28.417 218.350,28.556 219.036,28.551 219.591 C 28.546 220.146,28.689 220.700,28.869 220.822 C 29.049 220.945,29.236 221.530,29.285 222.122 C 29.334 222.715,29.515 223.200,29.687 223.200 C 29.859 223.200,30.000 223.682,30.000 224.272 C 30.000 225.269,30.478 227.108,31.228 229.000 C 31.403 229.440,31.632 230.340,31.737 231.000 C 32.016 232.746,33.239 237.286,33.648 238.095 C 33.842 238.477,34.000 239.242,34.000 239.795 C 34.000 240.348,34.142 240.800,34.315 240.800 C 34.488 240.800,34.673 241.373,34.727 242.073 C 34.874 244.002,36.603 245.290,37.373 244.044 C 37.494 243.849,38.179 243.595,38.896 243.481 C 39.613 243.368,40.875 243.078,41.700 242.837 C 44.640 241.980,46.219 241.542,47.600 241.200 C 48.370 241.009,49.720 240.649,50.600 240.400 C 51.480 240.151,52.830 239.791,53.600 239.600 C 54.370 239.409,55.630 239.077,56.400 238.862 C 60.693 237.664,64.750 236.550,69.200 235.348 C 80.087 232.406,83.457 231.507,84.800 231.187 C 86.160 230.863,87.603 230.465,90.700 229.563 C 91.525 229.322,92.787 229.032,93.504 228.919 C 94.221 228.805,94.906 228.551,95.027 228.356 C 95.148 228.160,95.629 228.000,96.095 228.000 C 96.562 228.000,97.496 227.832,98.172 227.627 C 98.847 227.422,100.210 227.041,101.200 226.781 C 102.190 226.520,103.450 226.164,104.000 225.988 C 104.550 225.813,105.855 225.435,106.900 225.147 L 108.800 224.625 108.800 137.113 C 108.800 41.513,108.963 48.602,106.800 50.000 M224.800 84.465 C 251.925 91.071,258.874 126.516,236.373 143.504 C 229.755 148.501,217.097 151.437,210.085 149.602 C 200.968 147.217,194.836 143.299,189.695 136.576 C 188.195 134.615,185.212 128.866,185.205 127.924 C 185.202 127.552,185.040 127.148,184.844 127.027 C 183.033 125.908,183.033 107.292,184.844 106.173 C 185.040 106.052,185.200 105.691,185.200 105.372 C 185.200 103.405,189.604 96.483,193.043 93.043 C 198.072 88.015,205.706 84.151,212.000 83.449 C 214.838 83.132,221.497 83.661,224.800 84.465 M320.140 135.906 C 319.887 136.068,322.013 136.200,324.865 136.200 C 327.716 136.200,329.633 136.083,329.125 135.940 C 327.832 135.576,320.698 135.549,320.140 135.906 M316.652 136.716 C 316.544 136.890,317.073 136.961,317.828 136.873 C 318.583 136.785,319.200 136.642,319.200 136.556 C 319.200 136.255,316.845 136.403,316.652 136.716 M332.800 137.154 C 334.949 137.737,337.160 138.584,338.900 139.491 C 339.065 139.577,339.200 139.551,339.200 139.434 C 339.200 138.846,332.693 136.403,331.200 136.430 C 330.650 136.440,331.370 136.766,332.800 137.154 M314.200 137.600 C 313.908 138.073,314.299 138.073,315.400 137.600 C 316.171 137.269,316.169 137.255,315.324 137.228 C 314.842 137.213,314.336 137.380,314.200 137.600 M340.394 140.382 C 340.941 140.802,341.468 141.066,341.565 140.969 C 341.791 140.742,340.329 139.627,339.800 139.622 C 339.580 139.620,339.847 139.961,340.394 140.382 M306.629 141.809 C 306.205 142.129,305.938 142.471,306.035 142.569 C 306.132 142.666,306.659 142.402,307.206 141.982 C 307.753 141.561,308.020 141.220,307.800 141.222 C 307.580 141.224,307.053 141.488,306.629 141.809 M344.171 143.111 C 344.815 143.815,345.421 144.312,345.518 144.215 C 345.711 144.022,345.053 143.334,343.798 142.415 C 343.359 142.094,343.527 142.407,344.171 143.111 M298.991 149.300 L 295.800 152.600 299.100 149.409 C 300.915 147.655,302.400 146.170,302.400 146.109 C 302.400 145.818,301.954 146.235,298.991 149.300 M349.200 147.721 C 349.200 148.124,353.617 152.517,353.819 152.315 C 353.907 152.227,352.904 151.090,351.590 149.790 C 350.275 148.489,349.200 147.558,349.200 147.721 M282.192 166.100 L 278.600 169.800 282.300 166.208 C 284.335 164.233,286.000 162.568,286.000 162.508 C 286.000 162.218,285.528 162.664,282.192 166.100 M365.600 164.118 C 365.600 164.519,370.817 169.716,371.018 169.515 C 371.106 169.428,369.922 168.111,368.389 166.589 C 366.855 165.067,365.600 163.955,365.600 164.118 M382.800 181.321 C 382.800 181.724,387.217 186.117,387.419 185.915 C 387.507 185.827,386.504 184.690,385.190 183.390 C 383.875 182.089,382.800 181.158,382.800 181.321 " stroke="none" fill="#c2cacd" fill-rule="evenodd"></path><path id="path2" d="M78.400 56.400 C 78.400 56.901,78.824 56.901,79.600 56.400 C 80.085 56.086,80.028 56.011,79.300 56.006 C 78.805 56.003,78.400 56.180,78.400 56.400 M58.604 60.794 C 58.452 61.040,58.855 61.094,59.680 60.937 C 61.449 60.600,61.601 60.400,60.090 60.400 C 59.407 60.400,58.738 60.577,58.604 60.794 M12.400 75.800 C 11.883 76.350,11.573 76.800,11.710 76.800 C 11.847 76.800,12.444 76.350,13.038 75.800 C 13.631 75.250,13.942 74.800,13.728 74.800 C 13.514 74.800,12.917 75.250,12.400 75.800 M9.429 78.762 L 8.258 80.200 9.609 78.913 C 10.351 78.205,10.878 77.558,10.779 77.475 C 10.681 77.392,10.073 77.971,9.429 78.762 M320.000 136.400 C 318.656 136.831,320.108 136.831,321.800 136.400 C 322.878 136.126,322.898 136.094,322.000 136.087 C 321.450 136.083,320.550 136.224,320.000 136.400 M326.200 136.418 C 329.044 136.861,331.188 136.830,329.000 136.377 C 328.120 136.195,326.680 136.060,325.800 136.076 C 324.233 136.106,324.241 136.113,326.200 136.418 M316.400 137.200 C 315.867 137.545,315.867 137.588,316.400 137.588 C 316.730 137.588,317.270 137.413,317.600 137.200 C 318.133 136.855,318.133 136.812,317.600 136.812 C 317.270 136.812,316.730 136.987,316.400 137.200 M331.600 137.200 C 331.930 137.413,332.560 137.578,333.000 137.566 L 333.800 137.544 333.000 137.200 C 331.804 136.686,330.805 136.686,331.600 137.200 M309.971 139.991 C 309.186 140.406,308.291 141.050,307.982 141.421 C 307.625 141.851,307.945 141.752,308.861 141.148 C 309.653 140.627,310.638 139.986,311.050 139.724 C 312.205 138.990,311.565 139.148,309.971 139.991 M340.849 141.139 C 342.472 142.205,344.143 143.465,344.562 143.939 C 344.981 144.413,345.477 144.800,345.663 144.800 C 345.850 144.800,345.327 144.198,344.501 143.463 C 342.774 141.924,338.782 139.200,338.254 139.200 C 338.058 139.200,339.225 140.073,340.849 141.139 M269.306 179.203 C 249.675 198.781,233.442 214.800,233.235 214.800 C 233.027 214.800,229.672 211.644,225.781 207.786 C 218.336 200.407,216.836 199.182,212.979 197.326 C 210.711 196.234,209.474 195.807,205.754 194.832 C 203.664 194.284,194.135 194.259,193.800 194.800 C 193.664 195.020,193.034 195.200,192.400 195.200 C 191.766 195.200,191.124 195.399,190.974 195.643 C 190.798 195.927,190.968 196.014,191.450 195.886 C 195.519 194.800,196.316 194.714,200.495 194.910 C 210.809 195.393,214.687 197.475,225.910 208.556 L 233.220 215.773 269.315 179.687 C 289.168 159.839,305.318 143.601,305.205 143.603 C 305.092 143.604,288.938 159.624,269.306 179.203 M350.988 150.387 C 352.952 152.361,354.629 153.904,354.715 153.818 C 354.915 153.618,348.113 146.800,347.714 146.800 C 347.550 146.800,349.024 148.414,350.988 150.387 M367.787 167.187 C 369.972 169.380,371.830 171.104,371.916 171.018 C 372.115 170.818,364.511 163.200,364.113 163.200 C 363.949 163.200,365.602 164.994,367.787 167.187 M378.875 178.200 C 379.353 178.750,379.891 179.200,380.069 179.200 C 380.248 179.200,380.003 178.750,379.525 178.200 C 379.047 177.650,378.509 177.200,378.331 177.200 C 378.152 177.200,378.397 177.650,378.875 178.200 M384.588 183.987 C 386.552 185.961,388.229 187.504,388.315 187.418 C 388.515 187.218,381.713 180.400,381.314 180.400 C 381.150 180.400,382.624 182.014,384.588 183.987 M389.600 188.731 C 389.600 188.909,390.050 189.447,390.600 189.925 C 391.150 190.403,391.600 190.648,391.600 190.469 C 391.600 190.291,391.150 189.753,390.600 189.275 C 390.050 188.797,389.600 188.552,389.600 188.731 M186.858 197.233 C 182.324 199.695,179.521 202.287,156.315 225.481 L 132.400 249.384 132.400 270.892 C 132.400 284.964,132.538 292.400,132.800 292.400 C 133.062 292.400,133.200 284.964,133.200 270.892 L 133.200 249.385 157.300 225.303 C 183.436 199.188,182.737 199.832,187.379 197.558 C 189.127 196.701,190.207 196.016,189.779 196.035 C 189.350 196.054,188.036 196.593,186.858 197.233 M398.400 197.800 C 398.917 198.350,399.496 198.800,399.688 198.800 C 399.880 198.800,399.586 198.350,399.036 197.800 C 398.486 197.250,397.907 196.800,397.748 196.800 C 397.590 196.800,397.883 197.250,398.400 197.800 M106.600 225.185 C 105.862 225.489,104.209 225.974,100.900 226.854 C 100.185 227.044,99.002 227.380,98.272 227.600 C 97.541 227.820,96.562 228.000,96.095 228.000 C 95.629 228.000,95.148 228.160,95.027 228.356 C 94.906 228.551,94.221 228.805,93.504 228.919 C 92.787 229.032,91.570 229.312,90.800 229.540 C 88.391 230.254,86.253 230.841,84.800 231.187 C 82.353 231.770,65.183 236.411,56.400 238.862 C 55.630 239.077,54.370 239.409,53.600 239.600 C 52.830 239.791,51.480 240.151,50.600 240.400 C 49.720 240.649,48.370 241.009,47.600 241.200 C 46.830 241.391,45.570 241.729,44.800 241.951 C 41.562 242.885,40.144 243.267,39.200 243.458 C 38.650 243.569,37.784 243.863,37.275 244.111 C 36.598 244.441,36.161 244.443,35.642 244.119 C 35.090 243.774,34.933 243.801,34.933 244.238 C 34.933 244.547,35.083 244.800,35.267 244.800 C 35.450 244.800,35.600 245.340,35.600 246.000 C 35.600 246.660,35.780 247.200,36.000 247.200 C 36.220 247.200,36.400 247.920,36.400 248.800 C 36.400 249.680,36.580 250.400,36.800 250.400 C 37.020 250.400,37.200 251.120,37.200 252.000 C 37.200 252.880,37.380 253.600,37.600 253.600 C 37.820 253.600,38.000 254.230,38.000 255.000 C 38.000 255.770,38.180 256.400,38.400 256.400 C 38.620 256.400,38.800 256.940,38.800 257.600 C 38.800 258.260,38.980 258.800,39.200 258.800 C 39.420 258.800,39.600 259.520,39.600 260.400 C 39.600 261.280,39.780 262.000,40.000 262.000 C 40.220 262.000,40.400 262.720,40.400 263.600 C 40.400 264.480,40.580 265.200,40.800 265.200 C 41.020 265.200,41.200 265.819,41.200 266.576 C 41.200 267.333,41.356 268.049,41.546 268.167 C 41.736 268.284,41.995 269.060,42.122 269.890 C 42.248 270.721,42.473 271.850,42.621 272.400 C 42.768 272.950,42.979 273.987,43.089 274.704 C 43.199 275.421,43.449 276.106,43.644 276.227 C 43.840 276.348,44.000 276.919,44.000 277.495 C 44.000 278.566,44.620 280.849,45.249 282.095 C 45.442 282.477,45.600 283.422,45.600 284.195 C 45.600 284.968,45.760 285.600,45.956 285.600 C 46.152 285.600,46.414 286.185,46.537 286.900 C 47.058 289.912,47.310 290.800,47.645 290.800 C 47.840 290.800,48.000 291.520,48.000 292.400 C 48.000 293.280,48.180 294.000,48.400 294.000 C 48.620 294.000,48.800 294.720,48.800 295.600 C 48.800 296.480,48.960 297.200,49.156 297.200 C 49.352 297.200,49.622 297.830,49.756 298.600 C 49.890 299.370,50.110 300.630,50.244 301.400 C 50.378 302.170,50.648 302.800,50.844 302.800 C 51.040 302.800,51.200 303.520,51.200 304.400 C 51.200 305.280,51.380 306.000,51.600 306.000 C 51.820 306.000,52.000 306.641,52.000 307.424 C 52.000 308.271,52.162 308.747,52.400 308.600 C 52.642 308.451,52.800 308.996,52.800 309.976 C 52.800 310.869,52.980 311.600,53.200 311.600 C 53.420 311.600,53.600 312.230,53.600 313.000 C 53.600 313.770,53.780 314.400,54.000 314.400 C 54.220 314.400,54.400 315.120,54.400 316.000 C 54.400 316.880,54.580 317.600,54.800 317.600 C 55.020 317.600,55.200 318.230,55.200 319.000 C 55.200 319.770,55.380 320.400,55.600 320.400 C 55.820 320.400,56.000 321.120,56.000 322.000 C 56.000 322.880,56.180 323.600,56.400 323.600 C 56.620 323.600,56.800 324.140,56.800 324.800 C 56.800 325.460,56.980 326.000,57.200 326.000 C 57.420 326.000,57.600 326.720,57.600 327.600 C 57.600 328.480,57.780 329.200,58.000 329.200 C 58.220 329.200,58.400 329.920,58.400 330.800 C 58.400 331.680,58.574 332.400,58.787 332.400 C 59.001 332.400,59.070 332.672,58.943 333.005 C 58.815 333.338,58.916 333.858,59.168 334.161 C 59.420 334.464,59.665 335.272,59.713 335.955 C 59.761 336.639,59.898 337.199,60.018 337.199 C 60.138 337.200,60.282 337.875,60.337 338.699 C 60.393 339.524,60.610 340.370,60.819 340.579 C 61.029 340.789,61.200 341.554,61.200 342.280 C 61.200 343.006,61.380 343.600,61.600 343.600 C 61.820 343.600,62.000 344.241,62.000 345.024 C 62.000 345.871,62.162 346.347,62.400 346.200 C 62.644 346.049,62.800 346.663,62.800 347.776 C 62.800 348.779,62.960 349.600,63.156 349.600 C 63.352 349.600,63.622 350.230,63.756 351.000 C 63.890 351.770,64.110 353.032,64.244 353.804 C 64.379 354.576,64.649 355.306,64.844 355.427 C 65.040 355.548,65.200 356.177,65.200 356.824 C 65.200 357.471,65.380 358.000,65.600 358.000 C 65.820 358.000,66.000 358.720,66.000 359.600 C 66.000 360.480,66.180 361.200,66.400 361.200 C 66.620 361.200,66.800 361.830,66.800 362.600 C 66.800 363.370,66.980 364.000,67.200 364.000 C 67.420 364.000,67.600 364.709,67.600 365.576 C 67.600 366.443,67.780 367.264,68.000 367.400 C 68.220 367.536,68.400 368.177,68.400 368.824 C 68.400 369.471,68.580 370.000,68.800 370.000 C 69.020 370.000,69.200 370.619,69.200 371.376 C 69.200 372.133,69.380 372.864,69.600 373.000 C 69.820 373.136,70.000 373.687,70.000 374.224 C 70.000 374.761,70.180 375.200,70.400 375.200 C 70.620 375.200,70.800 375.639,70.800 376.176 C 70.800 376.713,70.980 377.264,71.200 377.400 C 71.420 377.536,71.600 377.997,71.600 378.424 C 71.600 378.851,71.780 379.200,72.000 379.200 C 72.220 379.200,72.400 379.560,72.400 380.000 C 72.400 380.440,72.580 380.800,72.800 380.800 C 73.020 380.800,73.200 381.120,73.200 381.512 C 73.200 381.903,73.560 382.483,74.000 382.800 C 74.440 383.117,74.800 383.573,74.800 383.813 C 74.800 384.053,75.136 384.609,75.546 385.050 C 75.956 385.490,76.518 386.273,76.794 386.789 C 77.584 388.265,79.686 390.422,80.995 391.100 C 81.652 391.440,82.669 392.232,83.255 392.859 C 83.842 393.487,84.569 394.000,84.872 394.000 C 85.175 394.000,85.683 394.360,86.000 394.800 C 86.317 395.240,86.897 395.600,87.288 395.600 C 87.680 395.600,88.000 395.780,88.000 396.000 C 88.000 396.220,88.360 396.400,88.800 396.400 C 89.240 396.400,89.600 396.580,89.600 396.800 C 89.600 397.020,89.960 397.200,90.400 397.200 C 90.840 397.200,91.200 397.380,91.200 397.600 C 91.200 397.820,91.751 398.000,92.424 398.000 C 93.137 398.000,93.544 398.167,93.400 398.400 C 93.256 398.632,93.651 398.800,94.343 398.800 C 94.998 398.800,95.608 399.025,95.700 399.300 C 95.828 399.684,98.409 399.800,106.800 399.800 C 115.191 399.800,117.772 399.684,117.900 399.300 C 118.000 398.999,118.780 398.800,119.857 398.800 C 120.949 398.800,121.551 398.644,121.400 398.400 C 121.251 398.158,121.796 398.000,122.776 398.000 C 123.669 398.000,124.400 397.820,124.400 397.600 C 124.400 397.380,125.120 397.200,126.000 397.200 C 126.880 397.200,127.600 397.020,127.600 396.800 C 127.600 396.580,128.320 396.400,129.200 396.400 C 130.080 396.400,130.800 396.238,130.800 396.040 C 130.800 395.842,131.565 395.581,132.500 395.459 C 135.863 395.020,137.200 394.706,137.200 394.356 C 137.200 394.160,138.010 394.000,139.000 394.000 C 139.990 394.000,140.800 393.820,140.800 393.600 C 140.800 393.380,141.520 393.200,142.400 393.200 C 143.280 393.200,144.000 393.020,144.000 392.800 C 144.000 392.580,144.720 392.400,145.600 392.400 C 146.480 392.400,147.200 392.256,147.200 392.079 C 147.200 391.903,148.595 391.539,150.300 391.271 C 152.005 391.003,154.076 390.678,154.903 390.550 C 155.729 390.421,156.505 390.155,156.626 389.958 C 156.748 389.761,157.456 389.600,158.200 389.600 C 158.944 389.600,159.652 389.439,159.774 389.242 C 159.895 389.045,160.716 388.775,161.597 388.642 C 162.479 388.509,163.921 388.291,164.803 388.158 C 165.684 388.025,166.505 387.755,166.626 387.558 C 166.748 387.361,167.557 387.200,168.424 387.200 C 169.291 387.200,170.000 387.020,170.000 386.800 C 170.000 386.580,170.619 386.400,171.376 386.400 C 172.133 386.400,172.864 386.220,173.000 386.000 C 173.136 385.780,173.867 385.600,174.624 385.600 C 175.381 385.600,176.000 385.420,176.000 385.200 C 176.000 384.980,176.720 384.800,177.600 384.800 C 178.480 384.800,179.200 384.620,179.200 384.400 C 179.200 384.180,179.999 384.000,180.976 384.000 C 181.953 384.000,182.864 383.820,183.000 383.600 C 183.136 383.380,183.856 383.200,184.600 383.200 C 185.344 383.200,186.064 383.020,186.200 382.800 C 186.336 382.580,187.157 382.400,188.024 382.400 C 188.891 382.400,189.600 382.220,189.600 382.000 C 189.600 381.780,190.230 381.600,191.000 381.600 C 191.770 381.600,192.400 381.420,192.400 381.200 C 192.400 380.980,193.120 380.800,194.000 380.800 C 194.880 380.800,195.600 380.638,195.600 380.440 C 195.600 380.242,196.365 379.981,197.300 379.859 C 200.663 379.420,202.000 379.106,202.000 378.756 C 202.000 378.560,202.709 378.400,203.576 378.400 C 204.443 378.400,205.264 378.220,205.400 378.000 C 205.536 377.780,206.357 377.600,207.224 377.600 C 208.091 377.600,208.800 377.420,208.800 377.200 C 208.800 376.980,209.520 376.800,210.400 376.800 C 211.280 376.800,212.000 376.620,212.000 376.400 C 212.000 376.180,212.720 376.000,213.600 376.000 C 214.480 376.000,215.200 375.852,215.200 375.672 C 215.200 375.491,216.595 375.147,218.300 374.907 C 220.005 374.667,222.210 374.262,223.200 374.006 C 224.190 373.751,225.587 373.445,226.304 373.327 C 227.021 373.208,227.706 372.951,227.827 372.756 C 227.948 372.560,228.746 372.400,229.600 372.400 C 230.454 372.400,231.264 372.220,231.400 372.000 C 231.536 371.780,232.357 371.600,233.224 371.600 C 234.091 371.600,234.800 371.420,234.800 371.200 C 234.800 370.980,235.520 370.800,236.400 370.800 C 237.280 370.800,238.000 370.620,238.000 370.400 C 238.000 370.180,238.731 370.000,239.624 370.000 C 240.604 370.000,241.149 369.842,241.000 369.600 C 240.851 369.359,241.388 369.200,242.353 369.200 C 243.233 369.200,244.064 369.020,244.200 368.800 C 244.336 368.580,245.146 368.400,246.000 368.400 C 246.854 368.400,247.664 368.220,247.800 368.000 C 247.936 367.780,248.656 367.600,249.400 367.600 C 250.144 367.600,250.864 367.420,251.000 367.200 C 251.136 366.980,251.856 366.800,252.600 366.800 C 253.344 366.800,254.064 366.620,254.200 366.400 C 254.336 366.180,255.056 366.000,255.800 366.000 C 256.544 366.000,257.264 365.820,257.400 365.600 C 257.536 365.380,258.267 365.200,259.024 365.200 C 259.781 365.200,260.400 365.020,260.400 364.800 C 260.400 364.580,261.120 364.400,262.000 364.400 C 262.880 364.400,263.600 364.220,263.600 364.000 C 263.600 363.780,264.511 363.600,265.624 363.600 C 266.871 363.600,267.552 363.447,267.400 363.200 C 267.251 362.958,267.796 362.800,268.776 362.800 C 269.669 362.800,270.400 362.620,270.400 362.400 C 270.400 362.180,271.120 362.000,272.000 362.000 C 272.880 362.000,273.600 361.820,273.600 361.600 C 273.600 361.380,274.320 361.200,275.200 361.200 C 276.080 361.200,276.800 361.020,276.800 360.800 C 276.800 360.580,277.520 360.400,278.400 360.400 C 279.280 360.400,280.000 360.220,280.000 360.000 C 280.000 359.780,280.720 359.600,281.600 359.600 C 282.480 359.600,283.200 359.432,283.200 359.227 C 283.200 359.022,283.563 358.739,284.006 358.598 C 286.789 357.715,280.322 357.600,227.776 357.600 C 190.325 357.600,171.200 357.465,171.200 357.200 C 171.200 356.974,170.067 356.800,168.600 356.800 C 167.133 356.800,166.000 356.626,166.000 356.400 C 166.000 356.180,165.280 356.000,164.400 356.000 C 163.520 356.000,162.800 355.820,162.800 355.600 C 162.800 355.380,162.080 355.200,161.200 355.200 C 160.320 355.200,159.600 355.020,159.600 354.800 C 159.600 354.580,159.161 354.400,158.624 354.400 C 158.087 354.400,157.536 354.220,157.400 354.000 C 157.264 353.780,156.713 353.600,156.176 353.600 C 155.639 353.600,155.200 353.420,155.200 353.200 C 155.200 352.980,154.750 352.800,154.200 352.800 C 153.650 352.800,153.200 352.620,153.200 352.400 C 153.200 352.180,152.750 352.000,152.200 352.000 C 151.650 352.000,151.200 351.820,151.200 351.600 C 151.200 351.380,150.840 351.200,150.400 351.200 C 149.960 351.200,149.600 351.020,149.600 350.800 C 149.600 350.580,149.240 350.400,148.800 350.400 C 148.360 350.400,148.000 350.220,148.000 350.000 C 148.000 349.780,147.640 349.600,147.200 349.600 C 146.760 349.600,146.400 349.420,146.400 349.200 C 146.400 348.980,146.040 348.800,145.600 348.800 C 145.160 348.800,144.800 348.642,144.800 348.449 C 144.800 348.255,144.260 347.873,143.600 347.600 C 142.940 347.327,142.400 346.945,142.400 346.751 C 142.400 346.558,142.198 346.400,141.951 346.400 C 141.704 346.400,140.358 345.584,138.960 344.587 C 137.563 343.589,136.362 342.824,136.293 342.887 C 136.024 343.127,124.814 331.607,123.887 330.138 C 123.349 329.286,122.614 328.344,122.254 328.045 C 121.894 327.746,121.600 327.337,121.600 327.134 C 121.600 326.932,121.240 326.380,120.800 325.908 C 120.360 325.436,120.000 324.813,120.000 324.525 C 120.000 324.236,119.820 324.000,119.600 324.000 C 119.380 324.000,119.200 323.640,119.200 323.200 C 119.200 322.760,119.020 322.400,118.800 322.400 C 118.580 322.400,118.400 322.119,118.400 321.776 C 118.400 321.433,118.220 321.264,118.000 321.400 C 117.780 321.536,117.600 321.277,117.600 320.824 C 117.600 320.371,117.420 320.000,117.200 320.000 C 116.980 320.000,116.800 319.640,116.800 319.200 C 116.800 318.760,116.620 318.400,116.400 318.400 C 116.180 318.400,116.000 318.040,116.000 317.600 C 116.000 317.160,115.820 316.800,115.600 316.800 C 115.380 316.800,115.200 316.451,115.200 316.024 C 115.200 315.597,115.020 315.136,114.800 315.000 C 114.580 314.864,114.400 314.313,114.400 313.776 C 114.400 313.239,114.220 312.800,114.000 312.800 C 113.780 312.800,113.600 312.350,113.600 311.800 C 113.600 311.250,113.420 310.800,113.200 310.800 C 112.980 310.800,112.800 310.260,112.800 309.600 C 112.800 308.940,112.620 308.400,112.400 308.400 C 112.180 308.400,112.000 307.860,112.000 307.200 C 112.000 306.540,111.820 306.000,111.600 306.000 C 111.380 306.000,111.200 305.280,111.200 304.400 C 111.200 303.520,111.020 302.800,110.800 302.800 C 110.580 302.800,110.400 301.900,110.400 300.800 C 110.400 299.700,110.220 298.800,110.000 298.800 C 109.769 298.800,109.600 297.533,109.600 295.800 C 109.600 294.067,109.431 292.800,109.200 292.800 C 108.936 292.800,108.800 281.200,108.800 258.800 C 108.800 221.446,108.980 224.201,106.600 225.185 M399.709 294.800 C 399.709 295.790,399.787 296.195,399.882 295.700 C 399.978 295.205,399.978 294.395,399.882 293.900 C 399.787 293.405,399.709 293.810,399.709 294.800 M133.200 296.376 C 133.200 296.803,133.380 297.264,133.600 297.400 C 133.827 297.540,134.000 297.204,134.000 296.624 C 134.000 296.061,133.820 295.600,133.600 295.600 C 133.380 295.600,133.200 295.949,133.200 296.376 M398.800 298.600 C 398.800 299.150,398.980 299.600,399.200 299.600 C 399.420 299.600,399.600 299.150,399.600 298.600 C 399.600 298.050,399.420 297.600,399.200 297.600 C 398.980 297.600,398.800 298.050,398.800 298.600 M134.000 299.776 C 134.000 300.093,134.180 300.464,134.400 300.600 C 134.620 300.736,134.800 300.477,134.800 300.024 C 134.800 299.571,134.620 299.200,134.400 299.200 C 134.180 299.200,134.000 299.459,134.000 299.776 M398.000 301.553 C 398.000 302.213,397.820 302.864,397.600 303.000 C 397.380 303.136,397.200 303.507,397.200 303.824 C 397.200 304.141,397.380 304.400,397.600 304.400 C 397.820 304.400,398.000 304.051,398.000 303.624 C 398.000 303.197,398.180 302.736,398.400 302.600 C 398.620 302.464,398.800 302.014,398.800 301.600 C 398.800 301.186,398.620 300.736,398.400 300.600 C 398.167 300.456,398.000 300.855,398.000 301.553 M134.800 302.600 C 134.800 302.930,134.980 303.200,135.200 303.200 C 135.420 303.200,135.600 302.930,135.600 302.600 C 135.600 302.270,135.420 302.000,135.200 302.000 C 134.980 302.000,134.800 302.270,134.800 302.600 M396.400 305.800 C 396.400 306.130,396.580 306.400,396.800 306.400 C 397.020 306.400,397.200 306.130,397.200 305.800 C 397.200 305.470,397.020 305.200,396.800 305.200 C 396.580 305.200,396.400 305.470,396.400 305.800 M136.400 306.600 C 136.400 306.930,136.580 307.200,136.800 307.200 C 137.020 307.200,137.200 306.930,137.200 306.600 C 137.200 306.270,137.020 306.000,136.800 306.000 C 136.580 306.000,136.400 306.270,136.400 306.600 M395.600 307.400 C 395.600 307.730,395.780 308.000,396.000 308.000 C 396.220 308.000,396.400 307.730,396.400 307.400 C 396.400 307.070,396.220 306.800,396.000 306.800 C 395.780 306.800,395.600 307.070,395.600 307.400 M394.800 309.000 C 394.800 309.330,394.980 309.600,395.200 309.600 C 395.420 309.600,395.600 309.330,395.600 309.000 C 395.600 308.670,395.420 308.400,395.200 308.400 C 394.980 308.400,394.800 308.670,394.800 309.000 M394.000 310.567 C 394.000 310.878,393.775 311.214,393.500 311.312 C 393.225 311.410,393.126 311.627,393.281 311.793 C 393.605 312.141,394.800 311.068,394.800 310.429 C 394.800 310.193,394.620 310.000,394.400 310.000 C 394.180 310.000,394.000 310.255,394.000 310.567 M392.060 313.442 C 391.331 314.266,391.800 314.657,392.581 313.876 C 392.921 313.536,393.200 313.154,393.200 313.029 C 393.200 312.609,392.606 312.824,392.060 313.442 M389.487 317.005 C 388.907 317.802,388.889 317.941,389.387 317.750 C 389.724 317.620,390.000 317.354,390.000 317.157 C 390.000 316.961,390.281 316.800,390.624 316.800 C 390.967 316.800,391.136 316.620,391.000 316.400 C 390.623 315.790,390.267 315.932,389.487 317.005 M383.603 322.789 C 383.167 323.065,383.126 323.286,383.450 323.610 C 383.774 323.934,383.951 323.831,384.109 323.226 C 384.228 322.772,384.297 322.403,384.263 322.406 C 384.228 322.409,383.932 322.582,383.603 322.789 M382.060 324.242 C 381.762 324.578,381.623 324.956,381.750 325.083 C 382.028 325.361,383.200 324.446,383.200 323.951 C 383.200 323.420,382.665 323.557,382.060 324.242 M379.660 325.842 C 378.931 326.666,379.400 327.057,380.181 326.276 C 380.521 325.936,380.800 325.554,380.800 325.429 C 380.800 325.009,380.206 325.224,379.660 325.842 M376.000 328.000 C 376.000 328.220,375.640 328.400,375.200 328.400 C 374.760 328.400,374.400 328.580,374.400 328.800 C 374.400 329.020,374.040 329.200,373.600 329.200 C 373.160 329.200,372.800 329.380,372.800 329.600 C 372.800 329.820,372.440 330.000,372.000 330.000 C 371.560 330.000,371.200 330.180,371.200 330.400 C 371.200 330.620,371.459 330.800,371.776 330.800 C 372.093 330.800,372.464 330.620,372.600 330.400 C 372.736 330.180,373.197 330.000,373.624 330.000 C 374.051 330.000,374.400 329.864,374.400 329.698 C 374.400 329.335,376.860 328.179,377.330 328.321 C 377.511 328.375,377.545 328.235,377.406 328.010 C 377.080 327.483,376.000 327.475,376.000 328.000 M368.800 331.200 C 368.800 331.420,369.160 331.600,369.600 331.600 C 370.040 331.600,370.400 331.420,370.400 331.200 C 370.400 330.980,370.040 330.800,369.600 330.800 C 369.160 330.800,368.800 330.980,368.800 331.200 M366.400 332.000 C 366.400 332.220,366.850 332.400,367.400 332.400 C 367.950 332.400,368.400 332.220,368.400 332.000 C 368.400 331.780,367.950 331.600,367.400 331.600 C 366.850 331.600,366.400 331.780,366.400 332.000 M363.200 332.800 C 363.200 333.020,363.650 333.200,364.200 333.200 C 364.750 333.200,365.200 333.020,365.200 332.800 C 365.200 332.580,364.750 332.400,364.200 332.400 C 363.650 332.400,363.200 332.580,363.200 332.800 M357.000 333.600 C 357.136 333.820,358.036 334.000,359.000 334.000 C 359.964 334.000,360.864 333.820,361.000 333.600 C 361.154 333.351,360.396 333.200,359.000 333.200 C 357.604 333.200,356.846 333.351,357.000 333.600 " stroke="none" fill="#9ca4ac" fill-rule="evenodd"></path><path id="path3" d="M213.000 83.471 C 206.334 83.894,197.693 88.205,192.568 93.662 C 189.276 97.168,185.219 103.788,185.205 105.676 C 185.202 106.048,185.040 106.452,184.844 106.573 C 184.077 107.047,183.158 115.256,183.431 119.200 C 184.102 128.924,189.025 137.750,197.087 143.685 C 213.730 155.937,238.012 149.625,246.744 130.777 C 257.695 107.140,239.606 81.780,213.000 83.471 " stroke="none" fill="#ebb704" fill-rule="evenodd"></path><path id="path4" d="M275.600 86.185 C 275.600 133.603,275.667 172.400,275.748 172.400 C 275.829 172.400,282.928 165.380,291.523 156.800 C 300.119 148.220,307.350 141.200,307.592 141.200 C 307.835 141.200,308.420 140.840,308.892 140.400 C 309.364 139.960,309.987 139.600,310.275 139.600 C 310.564 139.600,310.800 139.420,310.800 139.200 C 310.800 138.980,311.160 138.800,311.600 138.800 C 312.040 138.800,312.400 138.620,312.400 138.400 C 312.400 138.180,312.749 138.000,313.176 138.000 C 313.603 138.000,314.064 137.820,314.200 137.600 C 314.336 137.380,314.876 137.200,315.400 137.200 C 315.924 137.200,316.452 137.039,316.574 136.842 C 317.145 135.918,325.689 135.363,329.400 136.008 C 333.705 136.757,340.691 139.472,341.594 140.747 C 341.707 140.907,342.430 141.473,343.200 142.003 C 343.970 142.533,357.020 155.388,372.200 170.568 L 399.800 198.169 399.908 187.984 C 400.216 158.990,399.771 34.087,399.358 33.561 C 399.115 33.253,398.671 32.145,398.371 31.100 C 398.071 30.055,397.724 29.200,397.600 29.200 C 397.476 29.200,397.334 28.705,397.284 28.100 C 397.234 27.495,397.015 26.940,396.797 26.867 C 396.578 26.793,396.400 26.388,396.400 25.967 C 396.400 25.545,396.254 25.200,396.075 25.200 C 395.896 25.200,395.502 24.570,395.200 23.800 C 394.898 23.030,394.504 22.400,394.325 22.400 C 394.146 22.400,394.000 22.130,394.000 21.800 C 394.000 21.470,393.864 21.200,393.698 21.200 C 393.531 21.200,393.142 20.628,392.832 19.928 C 392.523 19.229,392.033 18.374,391.745 18.028 C 391.456 17.683,390.630 16.564,389.910 15.542 C 389.189 14.520,388.465 13.665,388.300 13.642 C 388.135 13.619,388.004 13.506,388.008 13.392 C 388.025 12.992,386.996 12.077,386.600 12.138 C 386.380 12.172,386.245 11.975,386.300 11.700 C 386.355 11.425,386.158 11.200,385.861 11.200 C 385.565 11.200,384.679 10.615,383.893 9.900 C 381.855 8.046,380.144 6.800,379.637 6.800 C 379.397 6.800,379.200 6.620,379.200 6.400 C 379.200 6.180,378.880 6.000,378.488 6.000 C 378.097 6.000,377.517 5.640,377.200 5.200 C 376.856 4.723,376.165 4.400,375.488 4.400 C 374.833 4.400,374.457 4.231,374.600 4.000 C 374.741 3.772,374.396 3.600,373.800 3.600 C 373.204 3.600,372.859 3.428,373.000 3.200 C 373.136 2.980,372.887 2.800,372.447 2.800 C 372.007 2.800,371.536 2.620,371.400 2.400 C 371.264 2.180,370.623 2.000,369.976 2.000 C 369.329 2.000,368.800 1.820,368.800 1.600 C 368.800 1.380,368.386 1.200,367.880 1.200 C 367.374 1.200,366.735 0.975,366.460 0.700 C 366.068 0.307,356.267 0.175,320.780 0.085 L 275.600 -0.029 275.600 86.185 M163.964 1.843 C 163.732 2.123,163.303 2.261,163.011 2.149 C 162.720 2.037,162.362 2.138,162.217 2.373 C 162.063 2.621,162.287 2.800,162.753 2.800 C 163.193 2.800,163.664 2.620,163.800 2.400 C 163.936 2.180,164.397 2.000,164.824 2.000 C 165.251 2.000,165.600 1.850,165.600 1.667 C 165.600 1.149,164.436 1.274,163.964 1.843 M156.813 4.947 C 156.586 5.174,156.405 5.549,156.412 5.780 C 156.419 6.011,156.610 5.881,156.837 5.492 C 157.064 5.102,157.406 4.880,157.597 4.998 C 157.788 5.116,158.039 5.060,158.155 4.873 C 158.454 4.389,157.309 4.451,156.813 4.947 M154.900 5.798 C 154.331 6.445,154.261 6.800,154.704 6.800 C 154.871 6.800,155.232 6.440,155.507 6.000 C 156.078 5.087,155.651 4.945,154.900 5.798 M149.819 9.184 C 148.802 9.854,148.756 9.954,149.491 9.898 C 149.961 9.863,150.256 9.691,150.149 9.517 C 150.041 9.343,150.223 9.200,150.553 9.200 C 150.883 9.200,151.264 9.020,151.400 8.800 C 151.790 8.169,151.106 8.335,149.819 9.184 M144.600 14.230 C 144.160 14.562,143.827 14.962,143.860 15.117 C 143.893 15.273,143.745 15.351,143.530 15.290 C 143.316 15.230,143.249 15.356,143.381 15.570 C 143.514 15.784,143.242 16.163,142.777 16.412 C 142.312 16.661,142.037 16.971,142.167 17.100 C 142.296 17.229,142.120 17.647,141.775 18.028 C 141.359 18.487,141.291 18.809,141.574 18.984 C 141.808 19.129,142.000 18.967,142.000 18.624 C 142.000 18.281,142.180 18.000,142.400 18.000 C 142.620 18.000,142.800 17.796,142.800 17.547 C 142.800 17.298,143.130 16.803,143.533 16.447 C 144.253 15.812,145.832 13.588,145.546 13.613 C 145.466 13.620,145.040 13.897,144.600 14.230 M134.800 30.553 C 134.800 30.883,134.980 31.264,135.200 31.400 C 135.420 31.536,135.600 31.377,135.600 31.047 C 135.600 30.717,135.420 30.336,135.200 30.200 C 134.980 30.064,134.800 30.223,134.800 30.553 M133.286 36.745 C 133.305 37.420,133.471 37.880,133.655 37.766 C 134.016 37.543,133.912 36.179,133.503 35.769 C 133.364 35.631,133.267 36.070,133.286 36.745 M132.408 144.223 C 132.395 201.382,132.474 248.060,132.582 247.952 C 132.846 247.688,132.901 40.768,132.637 40.504 C 132.524 40.390,132.420 87.064,132.408 144.223 " stroke="none" fill="#ececf3" fill-rule="evenodd"></path></g></svg>