<svg id="svg" version="1.1" xmlns="http://www.w3.org/2000/svg" xmlns:xlink="http://www.w3.org/1999/xlink" width="400" height="400" viewBox="0, 0, 400,400"><g id="svgg"><path id="path0" d="M25.600 62.400 C 25.600 62.620,25.060 62.800,24.400 62.800 C 23.740 62.800,23.200 62.980,23.200 63.200 C 23.200 63.420,22.840 63.600,22.400 63.600 C 21.960 63.600,21.600 63.780,21.600 64.000 C 21.600 64.220,21.339 64.400,21.019 64.400 C 20.263 64.400,14.400 70.263,14.400 71.019 C 14.400 71.339,14.220 71.600,14.000 71.600 C 13.780 71.600,13.600 71.960,13.600 72.400 C 13.600 72.840,13.420 73.200,13.200 73.200 C 12.980 73.200,12.800 73.740,12.800 74.400 C 12.800 75.060,12.620 75.600,12.400 75.600 C 11.845 75.600,11.845 286.657,12.400 287.000 C 12.620 287.136,12.800 287.561,12.800 287.944 C 12.800 288.819,13.699 290.793,14.100 290.797 C 14.265 290.799,14.400 291.061,14.400 291.381 C 14.400 292.137,20.263 298.000,21.019 298.000 C 21.339 298.000,21.600 298.180,21.600 298.400 C 21.600 298.620,21.960 298.800,22.400 298.800 C 22.840 298.800,23.200 298.980,23.200 299.200 C 23.200 299.420,23.740 299.600,24.400 299.600 C 25.060 299.600,25.600 299.780,25.600 300.000 C 25.600 300.266,59.533 300.400,126.600 300.400 C 196.852 300.400,227.600 300.272,227.600 299.980 C 227.600 299.749,227.314 299.007,226.965 298.332 C 225.727 295.939,222.800 288.309,222.794 287.461 C 222.790 286.880,222.684 286.763,222.470 287.101 C 222.216 287.500,205.932 287.581,142.376 287.501 L 62.600 287.400 62.600 181.200 L 62.600 75.000 168.800 75.000 L 275.000 75.000 275.101 131.870 C 275.197 185.617,275.164 188.779,274.501 189.448 C 273.832 190.123,273.837 190.140,274.600 189.828 C 280.381 187.459,311.513 186.636,312.210 188.833 C 312.357 189.296,313.125 189.689,314.427 189.969 C 315.523 190.203,318.286 191.027,320.566 191.798 C 322.847 192.569,324.825 193.200,324.962 193.200 C 325.099 193.200,325.163 166.515,325.105 133.900 L 325.000 74.600 323.681 72.051 C 322.340 69.458,317.628 64.400,316.554 64.400 C 316.249 64.400,316.000 64.220,316.000 64.000 C 316.000 63.780,315.640 63.600,315.200 63.600 C 314.760 63.600,314.400 63.420,314.400 63.200 C 314.400 62.980,313.860 62.800,313.200 62.800 C 312.540 62.800,312.000 62.620,312.000 62.400 C 312.000 62.134,264.000 62.000,168.800 62.000 C 73.600 62.000,25.600 62.134,25.600 62.400 M49.600 87.400 L 49.600 99.600 37.400 99.600 L 25.200 99.600 25.200 90.600 C 25.200 84.867,25.345 81.600,25.600 81.600 C 25.820 81.600,26.000 81.148,26.000 80.595 C 26.000 78.315,28.315 76.000,30.595 76.000 C 31.148 76.000,31.600 75.820,31.600 75.600 C 31.600 75.345,34.867 75.200,40.600 75.200 L 49.600 75.200 49.600 87.400 M306.000 75.600 C 306.000 75.820,306.540 76.000,307.200 76.000 C 307.860 76.000,308.400 76.180,308.400 76.400 C 308.400 76.620,308.604 76.800,308.853 76.800 C 309.529 76.800,310.792 78.405,311.035 79.574 C 311.152 80.138,311.417 80.913,311.624 81.295 C 311.831 81.677,312.000 85.952,312.000 90.795 L 312.000 99.600 300.000 99.600 L 288.000 99.600 288.000 87.400 L 288.000 75.200 297.000 75.200 C 302.733 75.200,306.000 75.345,306.000 75.600 M49.600 125.000 L 49.600 137.200 37.400 137.200 L 25.200 137.200 25.200 125.000 L 25.200 112.800 37.400 112.800 L 49.600 112.800 49.600 125.000 M312.000 125.000 L 312.000 137.200 300.000 137.200 L 288.000 137.200 288.000 125.000 L 288.000 112.800 300.000 112.800 L 312.000 112.800 312.000 125.000 M49.600 162.600 L 49.600 174.800 37.400 174.800 L 25.200 174.800 25.200 162.600 L 25.200 150.400 37.400 150.400 L 49.600 150.400 49.600 162.600 M312.000 162.600 L 312.000 174.800 300.000 174.800 L 288.000 174.800 288.000 162.600 L 288.000 150.400 300.000 150.400 L 312.000 150.400 312.000 162.600 M49.600 200.000 L 49.600 212.000 37.400 212.000 L 25.200 212.000 25.200 200.000 L 25.200 188.000 37.400 188.000 L 49.600 188.000 49.600 200.000 M49.600 237.400 L 49.600 249.600 37.400 249.600 L 25.200 249.600 25.200 237.400 L 25.200 225.200 37.400 225.200 L 49.600 225.200 49.600 237.400 M49.600 275.000 L 49.600 287.200 40.600 287.200 C 34.867 287.200,31.600 287.055,31.600 286.800 C 31.600 286.580,31.148 286.400,30.595 286.400 C 28.315 286.400,26.000 284.085,26.000 281.805 C 26.000 281.252,25.820 280.800,25.600 280.800 C 25.345 280.800,25.200 277.533,25.200 271.800 L 25.200 262.800 37.400 262.800 L 49.600 262.800 49.600 275.000 " stroke="none" fill="#44444b" fill-rule="evenodd"></path><path id="path1" d="M111.400 97.459 C 102.493 99.314,96.799 104.517,94.590 112.818 C 93.846 115.614,93.696 245.930,94.433 249.123 C 96.132 256.481,100.647 261.436,108.400 264.450 C 109.282 264.793,111.428 264.992,114.200 264.988 C 119.985 264.980,121.789 264.343,128.656 259.883 C 132.079 257.660,142.959 250.739,143.878 250.200 C 144.254 249.980,146.426 248.585,148.707 247.100 C 150.988 245.615,152.933 244.400,153.030 244.400 C 153.127 244.400,154.960 243.255,157.103 241.855 C 159.246 240.456,161.990 238.687,163.200 237.923 C 169.058 234.229,175.019 230.412,179.097 227.743 C 181.571 226.124,183.675 224.800,183.773 224.800 C 183.950 224.800,192.852 219.125,200.544 214.109 C 202.714 212.694,205.054 211.213,205.744 210.817 C 207.411 209.862,222.353 200.325,225.400 198.271 C 227.632 196.767,230.800 193.750,230.800 193.129 C 230.800 192.979,231.032 192.619,231.315 192.329 C 235.578 187.955,235.522 176.330,231.208 170.030 C 229.032 166.852,220.996 160.400,219.215 160.400 C 218.987 160.400,218.800 160.220,218.800 160.000 C 218.800 159.780,218.613 159.600,218.385 159.600 C 218.156 159.600,216.370 158.525,214.416 157.211 C 212.462 155.897,210.264 154.479,209.531 154.060 C 208.799 153.642,204.060 150.643,199.000 147.397 C 193.940 144.151,189.306 141.204,188.702 140.848 C 188.098 140.491,184.948 138.500,181.702 136.422 C 178.456 134.344,173.550 131.212,170.800 129.463 C 168.050 127.714,163.910 125.075,161.600 123.600 C 159.290 122.125,155.600 119.779,153.400 118.388 C 146.525 114.038,143.924 112.373,139.903 109.746 C 137.760 108.346,135.825 107.200,135.603 107.200 C 135.381 107.200,135.200 107.020,135.200 106.800 C 135.200 106.580,135.026 106.400,134.814 106.400 C 134.601 106.400,132.666 105.249,130.514 103.842 C 121.807 98.150,116.535 96.390,111.400 97.459 M291.400 206.965 C 289.724 207.711,288.811 208.615,286.772 211.547 C 284.436 214.905,282.763 217.267,281.888 218.443 C 281.496 218.969,278.076 223.748,274.288 229.061 C 270.499 234.375,265.219 241.763,262.553 245.479 C 255.807 254.882,255.456 255.782,257.205 259.211 C 258.619 261.982,260.029 262.400,267.968 262.400 L 274.767 262.400 274.883 288.100 C 275.015 317.204,274.867 315.868,278.187 317.814 L 279.870 318.800 293.781 318.800 C 314.347 318.800,312.140 322.380,312.400 288.600 L 312.600 262.600 319.800 262.400 C 327.918 262.174,328.838 261.894,330.362 259.182 C 331.660 256.873,331.466 254.932,329.661 252.162 C 328.151 249.845,300.352 210.883,298.813 208.925 C 297.085 206.729,293.851 205.874,291.400 206.965 " stroke="none" fill="#ebebeb" fill-rule="evenodd"></path><path id="path2" d="M284.000 188.004 C 280.333 188.517,276.409 189.218,275.000 189.611 C 274.340 189.795,272.990 190.164,272.000 190.430 C 251.610 195.912,234.614 209.940,226.482 228.000 C 225.134 230.993,223.120 236.118,222.749 237.500 C 222.557 238.215,222.232 239.385,222.026 240.100 C 220.881 244.083,220.077 248.316,219.209 254.916 C 218.158 262.916,219.327 275.595,221.973 284.900 C 222.208 285.725,222.561 286.985,222.758 287.700 C 223.319 289.737,224.269 292.207,226.080 296.336 C 227.117 298.701,227.584 300.205,227.308 300.297 C 226.819 300.460,228.308 303.600,228.874 303.600 C 229.053 303.600,229.200 303.960,229.200 304.400 C 229.200 304.840,229.380 305.200,229.600 305.200 C 229.820 305.200,230.000 305.470,230.000 305.800 C 230.000 306.130,230.150 306.400,230.332 306.400 C 230.515 306.400,230.920 306.895,231.232 307.500 C 231.545 308.105,232.295 309.077,232.900 309.660 C 233.505 310.244,234.000 310.910,234.000 311.141 C 234.000 312.217,247.212 324.800,248.341 324.800 C 248.525 324.800,249.199 325.250,249.838 325.800 C 250.477 326.349,251.225 326.799,251.500 326.800 C 251.775 326.800,252.000 326.980,252.000 327.200 C 252.000 327.420,252.360 327.600,252.800 327.600 C 253.240 327.600,253.600 327.780,253.600 328.000 C 253.600 328.220,253.836 328.400,254.125 328.400 C 254.413 328.400,255.036 328.760,255.508 329.200 C 255.980 329.640,256.644 330.000,256.983 330.000 C 257.322 330.000,257.600 330.180,257.600 330.400 C 257.600 330.620,257.949 330.800,258.376 330.800 C 258.803 330.800,259.264 330.980,259.400 331.200 C 259.536 331.420,259.997 331.600,260.424 331.600 C 260.851 331.600,261.200 331.780,261.200 332.000 C 261.200 332.220,261.560 332.400,262.000 332.400 C 262.440 332.400,262.800 332.580,262.800 332.800 C 262.800 333.020,263.340 333.200,264.000 333.200 C 264.660 333.200,265.200 333.380,265.200 333.600 C 265.200 333.820,265.740 334.000,266.400 334.000 C 267.060 334.000,267.600 334.180,267.600 334.400 C 267.600 334.620,268.140 334.800,268.800 334.800 C 269.460 334.800,270.000 334.980,270.000 335.200 C 270.000 335.420,270.720 335.600,271.600 335.600 C 272.480 335.600,273.200 335.780,273.200 336.000 C 273.200 336.220,273.999 336.400,274.976 336.400 C 275.953 336.400,276.864 336.580,277.000 336.800 C 277.136 337.020,278.216 337.200,279.400 337.200 C 280.584 337.200,281.664 337.380,281.800 337.600 C 282.137 338.145,305.063 338.145,305.400 337.600 C 305.536 337.380,306.717 337.200,308.024 337.200 C 309.341 337.200,310.400 337.022,310.400 336.800 C 310.400 336.580,311.300 336.400,312.400 336.400 C 313.500 336.400,314.400 336.220,314.400 336.000 C 314.400 335.780,315.019 335.600,315.776 335.600 C 316.533 335.600,317.264 335.420,317.400 335.200 C 317.536 334.980,318.177 334.800,318.824 334.800 C 319.471 334.800,320.000 334.620,320.000 334.400 C 320.000 334.180,320.540 334.000,321.200 334.000 C 321.860 334.000,322.400 333.820,322.400 333.600 C 322.400 333.380,322.850 333.200,323.400 333.200 C 323.950 333.200,324.400 333.020,324.400 332.800 C 324.400 332.580,324.760 332.400,325.200 332.400 C 325.640 332.400,326.000 332.220,326.000 332.000 C 326.000 331.780,326.439 331.600,326.976 331.600 C 327.513 331.600,328.064 331.420,328.200 331.200 C 328.336 330.980,328.797 330.800,329.224 330.800 C 329.651 330.800,330.000 330.620,330.000 330.400 C 330.000 330.180,330.360 330.000,330.800 330.000 C 331.240 330.000,331.600 329.820,331.600 329.600 C 331.600 329.380,331.836 329.200,332.125 329.200 C 332.413 329.200,333.036 328.840,333.508 328.400 C 333.980 327.960,334.644 327.600,334.983 327.600 C 335.322 327.600,335.600 327.420,335.600 327.200 C 335.600 326.980,335.836 326.800,336.125 326.800 C 336.413 326.800,337.036 326.440,337.508 326.000 C 337.980 325.560,338.535 325.200,338.740 325.200 C 339.782 325.200,353.600 312.117,353.600 311.130 C 353.600 310.890,353.928 310.403,354.328 310.047 C 355.307 309.178,358.217 304.824,358.571 303.700 C 358.726 303.205,359.022 302.800,359.227 302.800 C 359.432 302.800,359.600 302.440,359.600 302.000 C 359.600 301.560,359.780 301.200,360.000 301.200 C 360.220 301.200,360.400 300.840,360.400 300.400 C 360.400 299.960,360.580 299.600,360.800 299.600 C 361.020 299.600,361.200 299.240,361.200 298.800 C 361.200 298.360,361.380 298.000,361.600 298.000 C 361.820 298.000,362.000 297.640,362.000 297.200 C 362.000 296.760,362.180 296.400,362.400 296.400 C 362.620 296.400,362.800 296.051,362.800 295.624 C 362.800 295.197,362.980 294.736,363.200 294.600 C 363.420 294.464,363.600 293.913,363.600 293.376 C 363.600 292.839,363.780 292.400,364.000 292.400 C 364.220 292.400,364.400 291.950,364.400 291.400 C 364.400 290.850,364.580 290.400,364.800 290.400 C 365.020 290.400,365.200 289.860,365.200 289.200 C 365.200 288.540,365.380 288.000,365.600 288.000 C 365.820 288.000,366.000 287.460,366.000 286.800 C 366.000 286.140,366.180 285.600,366.400 285.600 C 366.620 285.600,366.800 284.880,366.800 284.000 C 366.800 283.120,366.980 282.400,367.200 282.400 C 367.420 282.400,367.600 281.691,367.600 280.824 C 367.600 279.957,367.780 279.136,368.000 279.000 C 368.220 278.864,368.400 277.784,368.400 276.600 C 368.400 275.416,368.580 274.336,368.800 274.200 C 369.052 274.044,369.200 269.670,369.200 262.400 C 369.200 255.130,369.052 250.756,368.800 250.600 C 368.580 250.464,368.400 249.373,368.400 248.176 C 368.400 246.979,368.220 246.000,368.000 246.000 C 367.780 246.000,367.600 245.291,367.600 244.424 C 367.600 243.557,367.420 242.736,367.200 242.600 C 366.980 242.464,366.800 241.733,366.800 240.976 C 366.800 240.219,366.620 239.600,366.400 239.600 C 366.180 239.600,366.000 239.071,366.000 238.424 C 366.000 237.777,365.820 237.136,365.600 237.000 C 365.380 236.864,365.200 236.324,365.200 235.800 C 365.200 235.276,365.020 234.736,364.800 234.600 C 364.580 234.464,364.400 233.913,364.400 233.376 C 364.400 232.839,364.220 232.400,364.000 232.400 C 363.780 232.400,363.600 231.950,363.600 231.400 C 363.600 230.850,363.420 230.400,363.200 230.400 C 362.980 230.400,362.800 229.950,362.800 229.400 C 362.800 228.850,362.620 228.400,362.400 228.400 C 362.180 228.400,362.000 228.040,362.000 227.600 C 362.000 227.160,361.820 226.800,361.600 226.800 C 361.380 226.800,361.200 226.530,361.200 226.200 C 361.200 225.870,361.020 225.600,360.800 225.600 C 360.580 225.600,360.400 225.240,360.400 224.800 C 360.400 224.360,360.220 224.000,360.000 224.000 C 359.780 224.000,359.600 223.640,359.600 223.200 C 359.600 222.760,359.465 222.400,359.300 222.399 C 359.135 222.399,358.474 221.319,357.830 219.999 C 357.187 218.680,356.524 217.600,356.357 217.600 C 356.190 217.600,355.938 217.234,355.796 216.787 C 355.654 216.340,355.102 215.538,354.569 215.005 C 354.036 214.472,353.600 213.884,353.600 213.697 C 353.600 213.107,342.211 202.000,341.606 202.000 C 341.383 202.000,341.200 201.859,341.200 201.686 C 341.200 201.514,340.705 201.079,340.100 200.721 C 339.495 200.363,338.460 199.604,337.800 199.035 C 337.140 198.466,336.375 198.001,336.100 198.000 C 335.825 198.000,335.600 197.820,335.600 197.600 C 335.600 197.380,335.240 197.200,334.800 197.200 C 334.360 197.200,333.999 197.065,333.997 196.900 C 333.995 196.735,333.590 196.395,333.097 196.145 C 332.604 195.895,331.120 195.136,329.800 194.458 C 328.480 193.780,327.100 193.219,326.733 193.213 C 326.367 193.206,325.975 192.975,325.864 192.700 C 325.705 192.309,325.579 192.316,325.286 192.733 C 324.983 193.165,324.096 192.991,320.665 191.831 C 318.330 191.042,315.515 190.202,314.410 189.965 C 313.304 189.728,312.400 189.369,312.400 189.167 C 312.400 188.965,311.965 188.800,311.433 188.800 C 310.902 188.800,310.400 188.601,310.319 188.358 C 310.129 187.788,287.697 187.487,284.000 188.004 M296.530 207.164 C 298.393 208.114,296.975 206.257,313.859 229.861 C 333.330 257.081,332.436 255.493,330.362 259.182 C 328.838 261.894,327.918 262.174,319.800 262.400 L 312.600 262.600 312.400 288.600 C 312.140 322.380,314.347 318.800,293.781 318.800 L 279.870 318.800 278.187 317.814 C 274.867 315.868,275.015 317.204,274.883 288.100 L 274.767 262.400 267.968 262.400 C 260.029 262.400,258.619 261.982,257.205 259.211 C 255.456 255.782,255.807 254.882,262.553 245.479 C 265.219 241.763,270.499 234.375,274.288 229.061 C 278.076 223.748,281.496 218.969,281.888 218.443 C 282.763 217.267,284.436 214.905,286.772 211.547 C 290.210 206.604,292.986 205.357,296.530 207.164 " stroke="none" fill="#fb3c3c" fill-rule="evenodd"></path><path id="path3" d="M62.585 75.299 C 62.481 75.575,62.441 123.410,62.498 181.600 L 62.600 287.400 142.524 287.501 C 201.454 287.575,222.376 287.484,222.171 287.154 C 221.755 286.480,220.902 283.063,219.837 277.800 C 217.747 267.479,218.405 249.345,221.165 241.200 C 221.351 240.650,221.917 238.850,222.424 237.200 C 222.930 235.550,223.492 234.029,223.672 233.820 C 223.852 233.611,224.001 233.161,224.002 232.820 C 224.006 231.643,229.575 221.151,232.144 217.481 C 239.766 206.591,250.812 197.692,262.400 193.103 C 262.950 192.885,263.713 192.548,264.095 192.353 C 264.477 192.159,265.116 192.000,265.515 192.000 C 265.914 192.000,266.411 191.851,266.620 191.670 C 266.829 191.488,267.810 191.109,268.800 190.828 C 269.790 190.547,271.013 190.155,271.519 189.958 C 272.024 189.761,272.857 189.600,273.370 189.600 C 275.269 189.600,275.208 191.640,275.101 131.757 L 275.000 75.000 168.888 74.899 C 84.208 74.819,62.737 74.900,62.585 75.299 M119.931 97.546 C 122.455 98.234,125.159 99.688,130.921 103.453 C 133.737 105.294,136.128 106.800,136.234 106.800 C 136.340 106.800,138.305 108.060,140.600 109.600 C 142.895 111.140,144.959 112.400,145.187 112.400 C 145.414 112.400,145.600 112.580,145.600 112.800 C 145.600 113.020,145.772 113.200,145.982 113.200 C 146.192 113.200,148.217 114.390,150.482 115.844 C 152.747 117.299,155.230 118.886,156.000 119.372 C 156.770 119.858,159.244 121.458,161.497 122.928 C 163.750 124.398,165.775 125.600,165.997 125.600 C 166.219 125.600,166.400 125.750,166.400 125.932 C 166.400 126.115,166.895 126.518,167.500 126.827 C 168.105 127.136,170.310 128.491,172.400 129.839 C 174.490 131.187,178.810 133.930,182.000 135.934 C 185.190 137.939,187.980 139.718,188.200 139.889 C 188.420 140.060,189.095 140.455,189.700 140.768 C 190.305 141.080,190.800 141.485,190.800 141.668 C 190.800 141.850,190.988 142.000,191.218 142.000 C 191.448 142.000,192.970 142.900,194.600 144.000 C 196.230 145.100,197.646 146.000,197.745 146.000 C 197.845 146.000,200.688 147.805,204.063 150.012 C 207.439 152.218,210.470 154.140,210.800 154.283 C 211.130 154.425,213.200 155.729,215.400 157.179 C 217.600 158.630,219.892 160.067,220.493 160.372 C 221.095 160.678,221.942 161.259,222.377 161.664 C 222.811 162.069,223.277 162.400,223.411 162.400 C 223.807 162.400,227.287 164.868,228.748 166.185 C 236.766 173.415,237.292 186.930,229.871 195.070 C 228.167 196.940,215.909 205.600,214.967 205.600 C 214.855 205.600,213.430 206.500,211.800 207.600 C 210.170 208.700,208.648 209.600,208.418 209.600 C 208.188 209.600,208.000 209.758,208.000 209.951 C 208.000 210.145,207.460 210.527,206.800 210.800 C 206.140 211.073,205.600 211.455,205.600 211.649 C 205.600 211.842,205.432 212.000,205.226 212.000 C 205.020 212.000,202.409 213.575,199.423 215.500 C 196.437 217.425,191.994 220.260,189.551 221.800 C 187.107 223.340,182.654 226.174,179.654 228.097 C 176.654 230.021,173.660 231.939,173.000 232.359 C 172.340 232.780,169.951 234.311,167.690 235.762 C 165.430 237.213,163.508 238.400,163.420 238.400 C 163.331 238.400,161.900 239.300,160.239 240.400 C 158.578 241.500,157.117 242.400,156.993 242.400 C 156.868 242.400,156.380 242.760,155.908 243.200 C 155.436 243.640,154.813 244.000,154.525 244.000 C 154.236 244.000,154.000 244.180,154.000 244.400 C 154.000 244.620,153.829 244.800,153.621 244.800 C 153.412 244.800,150.847 246.352,147.921 248.249 C 144.994 250.146,141.970 252.094,141.200 252.577 C 140.430 253.061,137.956 254.658,135.703 256.128 C 133.450 257.598,131.507 258.800,131.385 258.800 C 131.263 258.800,129.867 259.672,128.282 260.738 C 117.578 267.935,107.572 267.538,99.592 259.600 C 96.809 256.831,95.538 254.622,94.055 249.972 C 93.722 248.927,93.600 230.456,93.600 181.200 C 93.600 114.427,93.630 112.718,94.849 110.305 C 95.042 109.923,95.200 109.338,95.200 109.005 C 95.200 108.672,95.380 108.400,95.600 108.400 C 95.820 108.400,96.000 108.207,96.000 107.972 C 96.000 107.287,98.380 104.019,100.082 102.367 C 104.952 97.640,113.060 95.671,119.931 97.546 " stroke="none" fill="#24a4fb" fill-rule="evenodd"></path><path id="path4" d="M107.997 97.737 C 102.604 99.634,96.000 105.268,96.000 107.972 C 96.000 108.207,95.820 108.400,95.600 108.400 C 95.380 108.400,95.200 108.672,95.200 109.005 C 95.200 109.338,95.042 109.923,94.849 110.305 C 93.630 112.718,93.600 114.427,93.600 181.200 C 93.600 230.456,93.722 248.927,94.055 249.972 C 95.538 254.622,96.809 256.831,99.592 259.600 C 107.572 267.538,117.578 267.935,128.282 260.738 C 129.867 259.672,131.263 258.800,131.385 258.800 C 131.507 258.800,133.450 257.598,135.703 256.128 C 137.956 254.658,140.430 253.061,141.200 252.577 C 141.970 252.094,144.994 250.146,147.921 248.249 C 150.847 246.352,153.412 244.800,153.621 244.800 C 153.829 244.800,154.000 244.620,154.000 244.400 C 154.000 244.180,154.236 244.000,154.525 244.000 C 154.813 244.000,155.436 243.640,155.908 243.200 C 156.380 242.760,156.868 242.400,156.993 242.400 C 157.117 242.400,158.578 241.500,160.239 240.400 C 161.900 239.300,163.331 238.400,163.420 238.400 C 163.508 238.400,165.430 237.213,167.690 235.762 C 169.951 234.311,172.340 232.780,173.000 232.359 C 173.660 231.939,176.654 230.021,179.654 228.097 C 182.654 226.174,187.107 223.340,189.551 221.800 C 191.994 220.260,196.437 217.425,199.423 215.500 C 202.409 213.575,205.020 212.000,205.226 212.000 C 205.432 212.000,205.600 211.842,205.600 211.649 C 205.600 211.455,206.140 211.073,206.800 210.800 C 207.460 210.527,208.000 210.145,208.000 209.951 C 208.000 209.758,208.188 209.600,208.418 209.600 C 208.648 209.600,210.170 208.700,211.800 207.600 C 213.430 206.500,214.855 205.600,214.967 205.600 C 215.909 205.600,228.167 196.940,229.871 195.070 C 237.292 186.930,236.766 173.415,228.748 166.185 C 227.287 164.868,223.807 162.400,223.411 162.400 C 223.277 162.400,222.811 162.069,222.377 161.664 C 221.942 161.259,221.095 160.678,220.493 160.372 C 219.892 160.067,217.600 158.630,215.400 157.179 C 213.200 155.729,211.130 154.425,210.800 154.283 C 210.470 154.140,207.439 152.218,204.063 150.012 C 200.688 147.805,197.845 146.000,197.745 146.000 C 197.646 146.000,196.230 145.100,194.600 144.000 C 192.970 142.900,191.448 142.000,191.218 142.000 C 190.988 142.000,190.800 141.850,190.800 141.668 C 190.800 141.485,190.305 141.080,189.700 140.768 C 189.095 140.455,188.420 140.060,188.200 139.889 C 187.980 139.718,185.190 137.939,182.000 135.934 C 178.810 133.930,174.490 131.187,172.400 129.839 C 170.310 128.491,168.105 127.136,167.500 126.827 C 166.895 126.518,166.400 126.115,166.400 125.932 C 166.400 125.750,166.219 125.600,165.997 125.600 C 165.775 125.600,163.750 124.398,161.497 122.928 C 159.244 121.458,156.770 119.858,156.000 119.372 C 155.230 118.886,152.747 117.299,150.482 115.844 C 148.217 114.390,146.192 113.200,145.982 113.200 C 145.772 113.200,145.600 113.020,145.600 112.800 C 145.600 112.580,145.414 112.400,145.187 112.400 C 144.959 112.400,142.895 111.140,140.600 109.600 C 138.305 108.060,136.340 106.800,136.234 106.800 C 136.128 106.800,133.737 105.294,130.921 103.453 C 120.786 96.830,114.811 95.340,107.997 97.737 M118.466 97.814 C 121.646 98.483,124.498 99.910,130.514 103.842 C 132.666 105.249,134.601 106.400,134.814 106.400 C 135.026 106.400,135.200 106.580,135.200 106.800 C 135.200 107.020,135.381 107.200,135.603 107.200 C 135.825 107.200,137.760 108.346,139.903 109.746 C 143.924 112.373,146.525 114.038,153.400 118.388 C 155.600 119.779,159.290 122.125,161.600 123.600 C 163.910 125.075,168.050 127.714,170.800 129.463 C 173.550 131.212,178.456 134.344,181.702 136.422 C 184.948 138.500,188.098 140.491,188.702 140.848 C 189.306 141.204,193.940 144.151,199.000 147.397 C 204.060 150.643,208.799 153.642,209.531 154.060 C 210.264 154.479,212.462 155.897,214.416 157.211 C 216.370 158.525,218.156 159.600,218.385 159.600 C 218.613 159.600,218.800 159.780,218.800 160.000 C 218.800 160.220,218.987 160.400,219.215 160.400 C 220.996 160.400,229.032 166.852,231.208 170.030 C 235.522 176.330,235.578 187.955,231.315 192.329 C 231.032 192.619,230.800 192.979,230.800 193.129 C 230.800 193.750,227.632 196.767,225.400 198.271 C 222.353 200.325,207.411 209.862,205.744 210.817 C 205.054 211.213,202.714 212.694,200.544 214.109 C 192.852 219.125,183.950 224.800,183.773 224.800 C 183.675 224.800,181.571 226.124,179.097 227.743 C 175.019 230.412,169.058 234.229,163.200 237.923 C 161.990 238.687,159.246 240.456,157.103 241.855 C 154.960 243.255,153.127 244.400,153.030 244.400 C 152.933 244.400,150.988 245.615,148.707 247.100 C 146.426 248.585,144.254 249.980,143.878 250.200 C 142.959 250.739,132.079 257.660,128.656 259.883 C 121.789 264.343,119.985 264.980,114.200 264.988 C 111.428 264.992,109.282 264.793,108.400 264.450 C 100.647 261.436,96.132 256.481,94.433 249.123 C 93.696 245.930,93.846 115.614,94.590 112.818 C 96.799 104.517,102.493 99.314,111.400 97.459 C 113.128 97.100,115.678 97.227,118.466 97.814 M271.600 190.006 C 271.178 190.282,271.415 190.323,272.400 190.142 C 274.125 189.825,274.451 189.598,273.167 189.606 C 272.635 189.609,271.930 189.789,271.600 190.006 M268.119 190.962 C 265.937 191.756,266.156 192.029,268.436 191.356 C 269.626 191.005,270.675 190.646,270.767 190.559 C 271.098 190.243,269.371 190.506,268.119 190.962 M264.200 192.400 C 263.908 192.873,264.299 192.873,265.400 192.400 C 266.171 192.069,266.169 192.055,265.324 192.028 C 264.842 192.013,264.336 192.180,264.200 192.400 M258.676 194.687 C 257.617 195.236,256.834 195.768,256.936 195.869 C 257.037 195.970,258.173 195.510,259.460 194.846 C 260.747 194.182,261.530 193.650,261.200 193.664 C 260.870 193.677,259.734 194.138,258.676 194.687 M255.100 196.629 C 253.605 197.440,253.696 197.778,255.200 197.000 C 255.860 196.659,256.400 196.294,256.400 196.190 C 256.400 195.932,256.357 195.947,255.100 196.629 M249.852 199.900 C 245.004 203.193,240.601 207.129,236.522 211.814 C 233.974 214.741,231.041 218.801,231.478 218.797 C 231.655 218.795,232.519 217.670,233.397 216.297 C 235.786 212.562,244.674 203.862,249.200 200.827 C 253.199 198.146,253.925 197.600,253.499 197.600 C 253.356 197.600,251.715 198.635,249.852 199.900 M229.419 221.621 C 228.026 223.999,227.480 225.340,228.538 223.789 C 229.628 222.190,231.269 219.200,231.057 219.200 C 230.937 219.200,230.200 220.290,229.419 221.621 M224.596 231.072 C 224.258 231.881,224.033 232.700,224.097 232.891 C 224.161 233.082,224.516 232.420,224.887 231.419 C 225.693 229.245,225.470 228.979,224.596 231.072 M222.203 237.878 C 221.826 239.155,221.363 240.650,221.173 241.200 C 220.644 242.731,219.494 248.827,219.695 249.029 C 219.793 249.127,220.180 247.630,220.555 245.703 C 220.930 243.777,221.407 241.660,221.615 241.000 C 221.823 240.340,222.271 238.921,222.610 237.847 C 222.949 236.772,223.151 235.817,223.058 235.724 C 222.965 235.631,222.580 236.600,222.203 237.878 M219.025 252.425 C 218.870 253.994,218.827 255.361,218.929 255.462 C 219.031 255.564,219.243 254.366,219.400 252.800 C 219.557 251.234,219.600 249.867,219.496 249.763 C 219.392 249.658,219.180 250.856,219.025 252.425 M218.551 262.400 C 218.551 264.930,218.616 265.965,218.696 264.700 C 218.775 263.435,218.775 261.365,218.696 260.100 C 218.616 258.835,218.551 259.870,218.551 262.400 M219.047 271.953 C 219.270 275.064,220.622 282.476,221.316 284.400 C 221.436 284.730,221.647 285.516,221.786 286.147 C 221.925 286.778,222.130 287.203,222.242 287.091 C 222.353 286.980,222.009 285.204,221.477 283.144 C 220.580 279.671,220.199 277.694,219.212 271.400 L 218.835 269.000 219.047 271.953 " stroke="none" fill="#7cbbed" fill-rule="evenodd"></path></g></svg>